<svg version="1.1" xmlns="http://www.w3.org/2000/svg" style="display: block;" viewBox="0 0 4096 4096" width="2730" height="4096" preserveAspectRatio="none">
<path transform="translate(0,0)" fill="rgb(248,250,248)" d="M 0 0 L 4096 0 L 4096 4096 L 0 4096 L 0 0 z"/>
<path transform="translate(0,0)" fill="rgb(221,49,53)" d="M 1847.43 451.816 L 1849.96 447.127 C 1853.17 449.125 1855.55 451.134 1857.46 454.578 C 1868.03 473.585 1917.76 500.751 1925.5 510.335 C 1929.13 533.926 2016.73 723.238 2033.03 748.974 C 2032.92 754.155 2033.39 753.266 2031.89 757.996 C 2028.13 767.507 2030.98 769.922 2036.68 777.861 L 2041.95 779.017 L 2047.6 773.75 C 2046.09 782.876 2045.26 780.024 2048.63 787.403 C 2058.39 794.568 2075.13 792.24 2087.95 793.776 C 2077.69 803.839 2076.07 810 2070.6 823.275 C 2064.54 847.63 2054.45 916.579 2062.72 942.806 C 2063.29 944.603 2068.37 947.157 2070.28 948.138 C 2057.72 963.345 2059.96 967.857 2059.48 986.726 C 2058.03 1043.92 2096.29 1055.59 2140.81 1074.62 C 2162.08 1078.98 2184.57 1084.49 2205.74 1089.62 C 2237.5 1103.93 2288.91 1104.66 2305.68 1139.7 C 2311.49 1164.06 2307.51 1215.17 2297.62 1239.1 C 2292.84 1250.66 2273.61 1250.46 2263.52 1253.27 C 2312.89 1269.32 2309.15 1312.93 2297.97 1355.65 C 2292.18 1377.79 2279.19 1381.36 2259.63 1386.33 C 2283.5 1397.71 2293.19 1395.76 2297.97 1424.42 C 2297.87 1441.32 2297.08 1451.54 2292.79 1468.25 C 2281.49 1501.52 2279.9 1524.9 2241.61 1530.77 C 2249.03 1533.64 2256.7 1536.6 2258.83 1545.12 C 2277.66 1620.48 2201.57 1798.1 2139.42 1832.9 C 2114.46 1838.89 2103.94 1839.97 2078.44 1840.5 C 2068.22 1846.04 2002.02 1845.96 1991.45 1840.23 C 1969.56 1839.52 1957.89 1839.19 1937.72 1830.85 L 1936.97 1832.75 C 1926.85 1834.19 1900.45 1824.97 1890.05 1821.54 C 1868.44 1832.89 1887.17 1839.97 1868.68 1843.44 L 1868.28 1838.55 C 1860.67 1808.73 1855.21 1797.98 1837.12 1772.92 C 1799.51 1720.81 1758.66 1673.35 1710.16 1631.07 C 1695.97 1625.43 1674.2 1614.95 1659.91 1610.38 C 1657.96 1609.76 1656.58 1612.2 1654.68 1614.2 C 1651.52 1599.22 1613 1577.88 1602.6 1562.4 C 1597.02 1554.08 1589.53 1544.69 1583.75 1535.72 C 1559.18 1466.39 1591.13 1399.58 1586.75 1327.75 C 1558.43 1277.23 1480.22 1156.7 1470.13 1102.66 L 1466.07 1083.69 C 1463.97 1077.27 1461.26 1056.7 1460.84 1049.97 C 1460.19 1036.51 1433.78 996.451 1432.28 973.06 C 1427.03 967.541 1427.39 967.605 1425.55 960.609 C 1417.36 961.778 1408.83 969.121 1401.75 973.096 C 1382.07 984.148 1342.38 992.549 1319.66 997.272 C 1287.37 1004.24 1277.14 1004.04 1244.33 1002.92 C 1240.24 999.494 1236.49 995.308 1232.79 991.428 C 1223.49 984.041 1220.02 981.248 1214.18 970.995 C 1202.65 938.708 1196.49 909.592 1201.41 875.432 C 1220.89 740.24 1377.51 655.004 1503.26 672.29 C 1518.71 673.33 1520.1 672.235 1534.14 666.644 C 1611.13 634.04 1787.15 589.695 1841.72 537.077 C 1850.49 528.617 1859.13 519.833 1859.54 507.138 C 1856.33 500.657 1851.32 464.774 1847.43 451.816 z"/>
<path transform="translate(0,0)" fill="rgb(223,99,164)" d="M 1847.43 451.816 L 1849.96 447.127 C 1853.17 449.125 1855.55 451.134 1857.46 454.578 C 1868.03 473.585 1917.76 500.751 1925.5 510.335 C 1929.13 533.926 2016.73 723.238 2033.03 748.974 C 2032.92 754.155 2033.39 753.266 2031.89 757.996 C 2028.13 767.507 2030.98 769.922 2036.68 777.861 C 2037.65 785.432 2038.7 782.424 2034.73 787.581 C 2023.29 792.396 2004.79 792.02 1992.34 790.85 C 2003.88 799.584 2005.42 802.235 2011.57 815.281 C 2017.23 841.315 2029 918.975 2021.89 942.861 C 2018.83 945.749 2018.81 946.164 2015.25 948.265 C 2020.15 956.72 2020.38 958.223 2022.09 967.907 C 2024.87 990.01 2025.49 999.897 2018.94 1021.81 C 2010.61 1051.4 1975.66 1062.71 1949.45 1072.42 C 1931.61 1076.18 1913.69 1081.39 1895.52 1085.21 C 1889.09 1086.56 1862.16 1091.59 1858.37 1092.9 L 1862.94 1094.02 C 1854.1 1102.26 1806.69 1101.4 1779.26 1134.11 C 1773.45 1118.84 1759.17 1104.35 1743.41 1099.48 L 1730.44 1097.89 C 1737.1 1122.45 1694.17 1130.11 1676.89 1133.18 C 1648.32 1138.25 1622.1 1133.94 1594.24 1127.3 C 1551.71 1116.09 1508.91 1087.36 1476.73 1057.93 C 1471.81 1052.18 1468.19 1052.02 1460.84 1049.97 C 1460.19 1036.51 1433.78 996.451 1432.28 973.06 C 1427.03 967.541 1427.39 967.605 1425.55 960.609 C 1417.36 961.778 1408.83 969.121 1401.75 973.096 C 1382.07 984.148 1342.38 992.549 1319.66 997.272 C 1287.37 1004.24 1277.14 1004.04 1244.33 1002.92 C 1240.24 999.494 1236.49 995.308 1232.79 991.428 C 1223.49 984.041 1220.02 981.248 1214.18 970.995 C 1202.65 938.708 1196.49 909.592 1201.41 875.432 C 1220.89 740.24 1377.51 655.004 1503.26 672.29 C 1518.71 673.33 1520.1 672.235 1534.14 666.644 C 1611.13 634.04 1787.15 589.695 1841.72 537.077 C 1850.49 528.617 1859.13 519.833 1859.54 507.138 C 1856.33 500.657 1851.32 464.774 1847.43 451.816 z"/>
<path transform="translate(0,0)" fill="rgb(61,162,51)" d="M 1427.72 878.353 C 1621.83 875.067 1825.71 911.519 2015.25 948.265 C 2020.15 956.72 2020.38 958.223 2022.09 967.907 C 2024.87 990.01 2025.49 999.897 2018.94 1021.81 C 2010.61 1051.4 1975.66 1062.71 1949.45 1072.42 C 1931.61 1076.18 1913.69 1081.39 1895.52 1085.21 C 1889.09 1086.56 1862.16 1091.59 1858.37 1092.9 L 1862.94 1094.02 C 1854.1 1102.26 1806.69 1101.4 1779.26 1134.11 C 1773.45 1118.84 1759.17 1104.35 1743.41 1099.48 L 1730.44 1097.89 C 1737.1 1122.45 1694.17 1130.11 1676.89 1133.18 C 1648.32 1138.25 1622.1 1133.94 1594.24 1127.3 C 1551.71 1116.09 1508.91 1087.36 1476.73 1057.93 C 1471.81 1052.18 1468.19 1052.02 1460.84 1049.97 C 1460.19 1036.51 1433.78 996.451 1432.28 973.06 C 1427.03 967.541 1427.39 967.605 1425.55 960.609 C 1425.93 951.213 1423.34 940.949 1421.54 931.562 C 1421.81 917.846 1418.85 915.162 1425.33 904.323 C 1421.68 894.08 1420.97 886.884 1427.72 878.353 z"/>
<path transform="translate(0,0)" fill="rgb(91,84,190)" d="M 1425.33 904.323 C 1431.58 918.737 1438.21 926.369 1444.78 939.339 C 1452.62 949.439 1491.97 991.306 1494.83 996.361 C 1504.93 1003.96 1514.04 1010.93 1523.75 1019.01 C 1595.39 1061.97 1645.23 1085.55 1730.44 1097.89 C 1737.1 1122.45 1694.17 1130.11 1676.89 1133.18 C 1648.32 1138.25 1622.1 1133.94 1594.24 1127.3 C 1551.71 1116.09 1508.91 1087.36 1476.73 1057.93 C 1471.81 1052.18 1468.19 1052.02 1460.84 1049.97 C 1460.19 1036.51 1433.78 996.451 1432.28 973.06 C 1427.03 967.541 1427.39 967.605 1425.55 960.609 C 1425.93 951.213 1423.34 940.949 1421.54 931.562 C 1421.81 917.846 1418.85 915.162 1425.33 904.323 z"/>
<path transform="translate(0,0)" fill="rgb(60,77,212)" d="M 1494.83 996.361 C 1504.93 1003.96 1514.04 1010.93 1523.75 1019.01 L 1521.14 1023.03 C 1504.52 1026.92 1502.68 1013.81 1495.79 1003.39 L 1493.77 1000.36 L 1494.83 996.361 z"/>
<path transform="translate(0,0)" fill="rgb(164,164,162)" d="M 1858.37 1092.9 L 1862.94 1094.02 C 1854.1 1102.26 1806.69 1101.4 1779.26 1134.11 C 1773.45 1118.84 1759.17 1104.35 1743.41 1099.48 C 1789.76 1099.59 1812.27 1099.7 1858.37 1092.9 z"/>
<path transform="translate(0,0)" fill="rgb(22,164,65)" d="M 2018.94 1021.81 C 2009.3 1006.18 2011.54 982.848 2022.09 967.907 C 2024.87 990.01 2025.49 999.897 2018.94 1021.81 z"/>
<path transform="translate(0,0)" fill="rgb(3,163,181)" d="M 1427.72 878.353 C 1427.18 876.365 1426.21 873.978 1426.72 871.757 C 1438.58 824.055 1485.87 796.521 1532.03 788.437 C 1603.38 775.94 1684.69 773.43 1757.04 775.523 C 1833.99 777.748 1916.44 779.664 1992.34 790.85 C 2003.88 799.584 2005.42 802.235 2011.57 815.281 C 2017.23 841.315 2029 918.975 2021.89 942.861 C 2018.83 945.749 2018.81 946.164 2015.25 948.265 C 1825.71 911.519 1621.83 875.067 1427.72 878.353 z"/>
<path transform="translate(0,0)" fill="rgb(253,110,2)" d="M 1214.18 970.995 C 1202.65 938.708 1196.49 909.592 1201.41 875.432 C 1220.89 740.24 1377.51 655.004 1503.26 672.29 L 1510.97 675.068 L 1511.87 678.494 C 1506.46 686.885 1495.06 693.526 1487.45 700.926 C 1450.46 736.923 1428.6 784.185 1417.01 833.943 C 1412.04 855.299 1421.55 858.623 1402.81 872.377 C 1412.37 873.408 1410.42 871.675 1415.27 877.208 C 1419.11 892.12 1416.44 922.732 1421.54 931.562 C 1423.34 940.949 1425.93 951.213 1425.55 960.609 C 1417.36 961.778 1408.83 969.121 1401.75 973.096 C 1382.07 984.148 1342.38 992.549 1319.66 997.272 C 1287.37 1004.24 1277.14 1004.04 1244.33 1002.92 C 1240.24 999.494 1236.49 995.308 1232.79 991.428 C 1223.49 984.041 1220.02 981.248 1214.18 970.995 z"/>
<path transform="translate(0,0)" fill="rgb(251,152,5)" d="M 1232.79 991.428 C 1268.26 935.317 1343.11 900.575 1402.81 872.377 C 1412.37 873.408 1410.42 871.675 1415.27 877.208 C 1419.11 892.12 1416.44 922.732 1421.54 931.562 C 1423.34 940.949 1425.93 951.213 1425.55 960.609 C 1417.36 961.778 1408.83 969.121 1401.75 973.096 C 1382.07 984.148 1342.38 992.549 1319.66 997.272 C 1287.37 1004.24 1277.14 1004.04 1244.33 1002.92 C 1240.24 999.494 1236.49 995.308 1232.79 991.428 z"/>
<path transform="translate(0,0)" fill="rgb(231,66,123)" d="M 1847.43 451.816 L 1849.96 447.127 C 1853.17 449.125 1855.55 451.134 1857.46 454.578 C 1868.03 473.585 1917.76 500.751 1925.5 510.335 C 1929.13 533.926 2016.73 723.238 2033.03 748.974 C 2032.92 754.155 2033.39 753.266 2031.89 757.996 C 2008.77 755.519 1995.89 751.202 1979.33 733.891 C 1968.96 742.385 1810.29 709.96 1802.41 702.003 C 1831.76 676.61 1858.11 616.599 1860.76 577.398 C 1861.83 561.692 1858.7 531.31 1863.65 523.641 C 1863.34 516.591 1864.06 512.363 1859.54 507.138 C 1856.33 500.657 1851.32 464.774 1847.43 451.816 z"/>
<path transform="translate(0,0)" fill="rgb(3,150,151)" d="M 1802.41 702.003 C 1831.76 676.61 1858.11 616.599 1860.76 577.398 C 1861.83 561.692 1858.7 531.31 1863.65 523.641 C 1885.79 579.088 1939.02 693.834 1979.33 733.891 C 1968.96 742.385 1810.29 709.96 1802.41 702.003 z"/>
<path transform="translate(0,0)" fill="rgb(231,66,123)" d="M 1859.54 507.138 C 1864.06 512.363 1863.34 516.591 1863.65 523.641 C 1858.7 531.31 1861.83 561.692 1860.76 577.398 C 1858.11 616.599 1831.76 676.61 1802.41 702.003 C 1735.24 688.422 1659.55 675.601 1590.95 670.585 C 1572.7 669.251 1554.34 670.478 1536.05 669.726 L 1534.14 666.644 C 1611.13 634.04 1787.15 589.695 1841.72 537.077 C 1850.49 528.617 1859.13 519.833 1859.54 507.138 z"/>
<path transform="translate(0,0)" fill="rgb(154,194,44)" d="M 2036.68 777.861 L 2041.95 779.017 L 2047.6 773.75 C 2046.09 782.876 2045.26 780.024 2048.63 787.403 C 2058.39 794.568 2075.13 792.24 2087.95 793.776 C 2077.69 803.839 2076.07 810 2070.6 823.275 C 2064.54 847.63 2054.45 916.579 2062.72 942.806 C 2063.29 944.603 2068.37 947.157 2070.28 948.138 C 2057.72 963.345 2059.96 967.857 2059.48 986.726 C 2058.03 1043.92 2096.29 1055.59 2140.81 1074.62 C 2162.08 1078.98 2184.57 1084.49 2205.74 1089.62 C 2237.5 1103.93 2288.91 1104.66 2305.68 1139.7 C 2311.49 1164.06 2307.51 1215.17 2297.62 1239.1 C 2292.84 1250.66 2273.61 1250.46 2263.52 1253.27 C 2312.89 1269.32 2309.15 1312.93 2297.97 1355.65 C 2292.18 1377.79 2279.19 1381.36 2259.63 1386.33 C 2283.5 1397.71 2293.19 1395.76 2297.97 1424.42 C 2297.87 1441.32 2297.08 1451.54 2292.79 1468.25 C 2281.49 1501.52 2279.9 1524.9 2241.61 1530.77 C 2220.26 1526.6 2139.34 1522.95 2114.63 1521.66 C 2086.99 1518.91 2043.42 1521.08 2044.12 1484.65 C 2044.65 1457.23 2045.49 1428.82 2047.01 1401.44 L 2044.35 1399.83 C 2043.6 1393.29 2043.72 1392.32 2039.53 1386.79 C 2036.5 1394.18 2039.03 1400.95 2036.35 1410.19 C 2031.13 1374.79 2026.63 1374.54 1991.84 1370.07 C 1941.28 1373.32 1882.29 1378.27 1832.21 1385.13 C 1823.33 1384.12 1813.82 1382.6 1804.9 1381.35 C 1775.59 1358.43 1777.5 1307.45 1785.8 1274.57 C 1796.93 1262.08 1802.25 1259.88 1817.03 1253.38 C 1802.59 1250.56 1784.31 1250.07 1780.94 1230.46 C 1776.27 1203.26 1769.34 1160.04 1779.26 1134.11 C 1806.69 1101.4 1854.1 1102.26 1862.94 1094.02 L 1858.37 1092.9 C 1862.16 1091.59 1889.09 1086.56 1895.52 1085.21 C 1913.69 1081.39 1931.61 1076.18 1949.45 1072.42 C 1975.66 1062.71 2010.61 1051.4 2018.94 1021.81 C 2025.49 999.897 2024.87 990.01 2022.09 967.907 C 2020.38 958.223 2020.15 956.72 2015.25 948.265 C 2018.81 946.164 2018.83 945.749 2021.89 942.861 C 2029 918.975 2017.23 841.315 2011.57 815.281 C 2005.42 802.235 2003.88 799.584 1992.34 790.85 C 2004.79 792.02 2023.29 792.396 2034.73 787.581 C 2038.7 782.424 2037.65 785.432 2036.68 777.861 z"/>
<path transform="translate(0,0)" fill="rgb(154,194,44)" d="M 1949.45 1072.42 C 1950.66 1072.49 1951.87 1072.56 1953.08 1072.62 C 1969.79 1072.07 2007.08 1065.52 2019.59 1080.41 C 2038.17 1102.54 2035.8 1159.83 2033.26 1187.05 C 2032.19 1198.55 2030.26 1210.64 2021.13 1217.21 C 2012.58 1223.38 2002.55 1224.08 1992.38 1229.34 C 1953.04 1231 1913.86 1235.32 1875.1 1242.28 C 1862.67 1244.43 1826.62 1252.46 1817.03 1253.38 C 1802.59 1250.56 1784.31 1250.07 1780.94 1230.46 C 1776.27 1203.26 1769.34 1160.04 1779.26 1134.11 C 1806.69 1101.4 1854.1 1102.26 1862.94 1094.02 L 1858.37 1092.9 C 1862.16 1091.59 1889.09 1086.56 1895.52 1085.21 C 1913.69 1081.39 1931.61 1076.18 1949.45 1072.42 z"/>
<path transform="translate(0,0)" fill="rgb(251,152,5)" d="M 2092.28 1369.93 C 2125.76 1373.69 2160.29 1375.19 2194.36 1379.27 C 2208.36 1380.95 2247.49 1386.15 2259.63 1386.33 C 2283.5 1397.71 2293.19 1395.76 2297.97 1424.42 C 2297.87 1441.32 2297.08 1451.54 2292.79 1468.25 C 2281.49 1501.52 2279.9 1524.9 2241.61 1530.77 C 2220.26 1526.6 2139.34 1522.95 2114.63 1521.66 C 2086.99 1518.91 2043.42 1521.08 2044.12 1484.65 C 2044.65 1457.23 2045.49 1428.82 2047.01 1401.44 C 2049.84 1370.45 2067.26 1373.65 2092.28 1369.93 z"/>
<path transform="translate(0,0)" fill="rgb(253,197,8)" d="M 2082.26 1229.59 C 2131.49 1230.53 2169.89 1237.6 2218.74 1244.18 C 2225.12 1245.79 2258.28 1253.48 2263.52 1253.27 C 2312.89 1269.32 2309.15 1312.93 2297.97 1355.65 C 2292.18 1377.79 2279.19 1381.36 2259.63 1386.33 C 2247.49 1386.15 2208.36 1380.95 2194.36 1379.27 C 2160.29 1375.19 2125.76 1373.69 2092.28 1369.93 C 2085.73 1368.76 2064.88 1365.83 2061.01 1361.53 C 2046.11 1343.29 2046.29 1309.32 2046.93 1286.86 C 2047.78 1256.64 2048.06 1233.04 2082.26 1229.59 z"/>
<path transform="translate(0,0)" fill="rgb(253,197,8)" d="M 1992.38 1229.34 C 2000.86 1229.42 2013.96 1228.78 2020.56 1236.56 C 2043 1263.03 2038.58 1327.24 2026.57 1357.6 C 2024.01 1364.08 1999.15 1368.63 1991.84 1370.07 C 1941.28 1373.32 1882.29 1378.27 1832.21 1385.13 C 1823.33 1384.12 1813.82 1382.6 1804.9 1381.35 C 1775.59 1358.43 1777.5 1307.45 1785.8 1274.57 C 1796.93 1262.08 1802.25 1259.88 1817.03 1253.38 C 1826.62 1252.46 1862.67 1244.43 1875.1 1242.28 C 1913.86 1235.32 1953.04 1231 1992.38 1229.34 z"/>
<path transform="translate(0,0)" fill="rgb(164,164,162)" d="M 2036.68 777.861 L 2041.95 779.017 L 2047.6 773.75 C 2046.09 782.876 2045.26 780.024 2048.63 787.403 C 2058.39 794.568 2075.13 792.24 2087.95 793.776 C 2077.69 803.839 2076.07 810 2070.6 823.275 C 2064.54 847.63 2054.45 916.579 2062.72 942.806 C 2063.29 944.603 2068.37 947.157 2070.28 948.138 C 2057.72 963.345 2059.96 967.857 2059.48 986.726 C 2058.03 1043.92 2096.29 1055.59 2140.81 1074.62 C 2109.45 1069.86 2092 1066.32 2062.24 1079.41 C 2047.84 1110.86 2033.3 1202.18 2067.31 1221.4 C 2072.73 1223.38 2077.55 1225.19 2082.89 1227.46 L 2082.26 1229.59 C 2048.06 1233.04 2047.78 1256.64 2046.93 1286.86 C 2046.29 1309.32 2046.11 1343.29 2061.01 1361.53 C 2064.88 1365.83 2085.73 1368.76 2092.28 1369.93 C 2067.26 1373.65 2049.84 1370.45 2047.01 1401.44 L 2044.35 1399.83 C 2043.6 1393.29 2043.72 1392.32 2039.53 1386.79 C 2036.5 1394.18 2039.03 1400.95 2036.35 1410.19 C 2031.13 1374.79 2026.63 1374.54 1991.84 1370.07 C 1999.15 1368.63 2024.01 1364.08 2026.57 1357.6 C 2038.58 1327.24 2043 1263.03 2020.56 1236.56 C 2013.96 1228.78 2000.86 1229.42 1992.38 1229.34 C 2002.55 1224.08 2012.58 1223.38 2021.13 1217.21 C 2030.26 1210.64 2032.19 1198.55 2033.26 1187.05 C 2035.8 1159.83 2038.17 1102.54 2019.59 1080.41 C 2007.08 1065.52 1969.79 1072.07 1953.08 1072.62 C 1951.87 1072.56 1950.66 1072.49 1949.45 1072.42 C 1975.66 1062.71 2010.61 1051.4 2018.94 1021.81 C 2025.49 999.897 2024.87 990.01 2022.09 967.907 C 2020.38 958.223 2020.15 956.72 2015.25 948.265 C 2018.81 946.164 2018.83 945.749 2021.89 942.861 C 2029 918.975 2017.23 841.315 2011.57 815.281 C 2005.42 802.235 2003.88 799.584 1992.34 790.85 C 2004.79 792.02 2023.29 792.396 2034.73 787.581 C 2038.7 782.424 2037.65 785.432 2036.68 777.861 z"/>
<path transform="translate(0,0)" fill="rgb(178,134,137)" d="M 2036.68 777.861 L 2041.95 779.017 L 2047.6 773.75 C 2046.09 782.876 2045.26 780.024 2048.63 787.403 C 2058.39 794.568 2075.13 792.24 2087.95 793.776 C 2077.69 803.839 2076.07 810 2070.6 823.275 C 2066.41 827.491 2045.98 865.593 2041.55 873.574 C 2028.6 855.346 2020.86 826.851 2011.57 815.281 C 2005.42 802.235 2003.88 799.584 1992.34 790.85 C 2004.79 792.02 2023.29 792.396 2034.73 787.581 C 2038.7 782.424 2037.65 785.432 2036.68 777.861 z"/>
<path transform="translate(0,0)" fill="rgb(110,177,224)" d="M 1460.84 1049.97 C 1468.19 1052.02 1471.81 1052.18 1476.73 1057.93 C 1508.91 1087.36 1551.71 1116.09 1594.24 1127.3 C 1622.1 1133.94 1648.32 1138.25 1676.89 1133.18 C 1694.17 1130.11 1737.1 1122.45 1730.44 1097.89 L 1743.41 1099.48 C 1759.17 1104.35 1773.45 1118.84 1779.26 1134.11 C 1769.34 1160.04 1776.27 1203.26 1780.94 1230.46 C 1784.31 1250.07 1802.59 1250.56 1817.03 1253.38 C 1802.25 1259.88 1796.93 1262.08 1785.8 1274.57 C 1777.5 1307.45 1775.59 1358.43 1804.9 1381.35 C 1813.82 1382.6 1823.33 1384.12 1832.21 1385.13 C 1793.98 1397.09 1785.28 1400.36 1785.67 1442.64 C 1788.48 1449.74 1788.71 1454.17 1789.8 1461.8 C 1799.64 1497.72 1800.26 1528.61 1844.55 1528.39 L 1834.91 1532.28 C 1811.41 1541.63 1819.56 1565.8 1819.75 1585.95 L 1821.85 1597.74 C 1823.99 1608.42 1831.33 1642.92 1831.35 1651.76 C 1834.91 1661.87 1838.71 1672.13 1841.74 1682.39 C 1859.66 1729.99 1895.33 1802.12 1937.72 1830.85 L 1936.97 1832.75 C 1926.85 1834.19 1900.45 1824.97 1890.05 1821.54 C 1868.44 1832.89 1887.17 1839.97 1868.68 1843.44 L 1868.28 1838.55 C 1860.67 1808.73 1855.21 1797.98 1837.12 1772.92 C 1799.51 1720.81 1758.66 1673.35 1710.16 1631.07 C 1695.97 1625.43 1674.2 1614.95 1659.91 1610.38 C 1657.96 1609.76 1656.58 1612.2 1654.68 1614.2 C 1651.52 1599.22 1613 1577.88 1602.6 1562.4 C 1597.02 1554.08 1589.53 1544.69 1583.75 1535.72 C 1559.18 1466.39 1591.13 1399.58 1586.75 1327.75 C 1558.43 1277.23 1480.22 1156.7 1470.13 1102.66 L 1466.07 1083.69 C 1463.97 1077.27 1461.26 1056.7 1460.84 1049.97 z"/>
<path transform="translate(0,0)" fill="rgb(91,84,190)" d="M 1586.75 1327.75 L 1598.4 1337.31 C 1615.26 1369.16 1684.46 1418.79 1717.48 1436.19 C 1730.32 1442.96 1756.43 1456.52 1766.09 1465.5 C 1777.32 1501.25 1779.12 1532.92 1784.91 1568.78 C 1798.36 1652.1 1796.58 1657.18 1710.16 1631.07 C 1695.97 1625.43 1674.2 1614.95 1659.91 1610.38 C 1657.96 1609.76 1656.58 1612.2 1654.68 1614.2 C 1651.52 1599.22 1613 1577.88 1602.6 1562.4 C 1597.02 1554.08 1589.53 1544.69 1583.75 1535.72 C 1559.18 1466.39 1591.13 1399.58 1586.75 1327.75 z"/>
<path transform="translate(0,0)" fill="rgb(3,163,181)" d="M 1460.84 1049.97 C 1468.19 1052.02 1471.81 1052.18 1476.73 1057.93 C 1508.91 1087.36 1551.71 1116.09 1594.24 1127.3 C 1616.44 1148.81 1630.11 1175.63 1649.06 1195.69 C 1628.61 1197.96 1617.42 1198.81 1597.04 1198.65 C 1612.72 1220.42 1631.46 1247.76 1648 1268.47 C 1632.54 1268.76 1615.9 1269.41 1600.54 1269.26 C 1609.49 1285.29 1636.31 1324.3 1648.06 1338.85 C 1631.98 1338.83 1614.21 1339.3 1598.4 1337.31 L 1586.75 1327.75 C 1558.43 1277.23 1480.22 1156.7 1470.13 1102.66 L 1466.07 1083.69 C 1463.97 1077.27 1461.26 1056.7 1460.84 1049.97 z"/>
<path transform="translate(0,0)" fill="rgb(100,181,228)" d="M 1789.8 1461.8 C 1789.74 1468 1789.76 1469.8 1788.76 1476.11 L 1786.71 1476.82 C 1781.07 1466.35 1772.93 1429.14 1780.85 1419.76 C 1781.63 1428.2 1781.41 1435.11 1785.67 1442.64 C 1788.48 1449.74 1788.71 1454.17 1789.8 1461.8 z"/>
<path transform="translate(0,0)" fill="rgb(223,99,164)" d="M 1863.8 1809.38 C 1872.5 1813.92 1881.09 1817.58 1890.05 1821.54 C 1868.44 1832.89 1887.17 1839.97 1868.68 1843.44 L 1868.28 1838.55 C 1868.36 1827.63 1866.13 1819.99 1863.8 1809.38 z"/>
<path transform="translate(0,0)" fill="rgb(100,181,228)" d="M 1841.74 1682.39 L 1839.64 1685.52 C 1827.04 1679.04 1823.09 1663.25 1831.35 1651.76 C 1834.91 1661.87 1838.71 1672.13 1841.74 1682.39 z"/>
<path transform="translate(0,0)" fill="rgb(100,181,228)" d="M 1820.49 1631.03 C 1816.82 1617.85 1812.15 1597.66 1815.45 1584.44 L 1819.75 1585.95 L 1821.85 1597.74 C 1820.37 1609.06 1822.64 1617.08 1820.49 1631.03 z"/>
<path transform="translate(0,0)" fill="rgb(221,49,53)" d="M 2114.63 1521.66 C 2139.34 1522.95 2220.26 1526.6 2241.61 1530.77 C 2249.03 1533.64 2256.7 1536.6 2258.83 1545.12 C 2277.66 1620.48 2201.57 1798.1 2139.42 1832.9 C 2114.46 1838.89 2103.94 1839.97 2078.44 1840.5 C 2069.06 1839.84 2049.2 1840.19 2047.38 1827.78 C 2044.18 1784.44 2042.23 1783.12 2043.89 1734.48 C 2045.7 1681.34 2035.87 1579.92 2053.94 1528.94 C 2057.33 1519.38 2098.55 1524.34 2114.63 1521.66 z"/>
<path transform="translate(0,0)" fill="rgb(251,152,5)" d="M 1991.84 1370.07 C 2026.63 1374.54 2031.13 1374.79 2036.35 1410.19 C 2036.45 1429.06 2041.64 1497.66 2030.8 1507.91 C 2015.39 1522.47 1975.75 1518.79 1956 1521.45 C 1919.02 1524.51 1881.6 1525.91 1844.55 1528.39 C 1800.26 1528.61 1799.64 1497.72 1789.8 1461.8 C 1788.71 1454.17 1788.48 1449.74 1785.67 1442.64 C 1785.28 1400.36 1793.98 1397.09 1832.21 1385.13 C 1882.29 1378.27 1941.28 1373.32 1991.84 1370.07 z"/>
<path transform="translate(0,0)" fill="rgb(178,134,137)" d="M 2036.35 1410.19 C 2039.03 1400.95 2036.5 1394.18 2039.53 1386.79 C 2043.72 1392.32 2043.6 1393.29 2044.35 1399.83 L 2047.01 1401.44 C 2045.49 1428.82 2044.65 1457.23 2044.12 1484.65 C 2043.42 1521.08 2086.99 1518.91 2114.63 1521.66 C 2098.55 1524.34 2057.33 1519.38 2053.94 1528.94 C 2035.87 1579.92 2045.7 1681.34 2043.89 1734.48 C 2042.23 1783.12 2044.18 1784.44 2047.38 1827.78 C 2049.2 1840.19 2069.06 1839.84 2078.44 1840.5 C 2068.22 1846.04 2002.02 1845.96 1991.45 1840.23 C 2037.76 1839.58 2038.61 1830.89 2037.33 1782.47 C 2035.9 1728.43 2050.1 1574.38 2030.38 1530.03 C 2012.31 1514.52 1979.16 1525.76 1956 1521.45 C 1975.75 1518.79 2015.39 1522.47 2030.8 1507.91 C 2041.64 1497.66 2036.45 1429.06 2036.35 1410.19 z"/>
<path transform="translate(0,0)" fill="rgb(221,49,53)" d="M 2490.98 1536.16 C 2548.72 1620.37 2613.24 1845.74 2611.86 1945.44 C 2612.56 1964.35 2614.77 1998.72 2612.59 2015.81 C 2671.87 2154.21 2646.98 2327.62 2581.48 2458.41 C 2572.82 2475.71 2543.18 2526.28 2540.08 2543.31 C 2530.64 2566.35 2526.13 2586.21 2518.2 2607.95 C 2517.06 2616.06 2516.03 2637.9 2513.86 2643.4 L 2511.04 2641.99 L 2507.01 2642.13 C 2503.67 2640.61 2500.37 2639.01 2497.11 2637.33 C 2470.92 2623.7 2449.23 2605.42 2440.31 2576.59 C 2411.32 2619.34 2383.87 2638.45 2355.14 2684.25 C 2324.94 2719.71 2275.41 2713.24 2243.45 2683.62 C 2254.22 2703.52 2249.15 2721.32 2254.9 2735.6 C 2247.39 2734.65 2237.65 2726.72 2231.17 2722.18 C 2165.67 2669.39 2165.04 2508.29 2144.09 2430.33 C 2121.98 2348.02 2091.69 2269.66 2072.34 2186.87 C 2071.11 2132.71 2065.83 2117.99 2105.56 2070.2 C 2053.36 2094.74 2027.56 2095.47 1974.66 2070.28 C 1961.93 2060.48 1927.21 2029.87 1917.44 2023.99 C 1917.83 2007.98 1897.65 1966.65 1892.24 1948.04 C 1883.5 1918.01 1870.84 1874.88 1868.68 1843.44 C 1887.17 1839.97 1868.44 1832.89 1890.05 1821.54 C 1900.45 1824.97 1926.85 1834.19 1936.97 1832.75 L 1937.72 1830.85 C 1957.89 1839.19 1969.56 1839.52 1991.45 1840.23 C 2002.02 1845.96 2068.22 1846.04 2078.44 1840.5 C 2103.94 1839.97 2114.46 1838.89 2139.42 1832.9 C 2155.36 1836.34 2198.23 1818.75 2215.04 1812.46 C 2213.91 1819.8 2211.99 1830.1 2211.6 1837.26 C 2215.7 1826.94 2216.81 1814.55 2222.47 1804.55 C 2255.34 1746.49 2303.16 1692.11 2352.35 1647.25 C 2358.86 1641.32 2367.16 1636.58 2371.62 1629.22 C 2386.11 1621.3 2409.62 1611.65 2425.51 1604.28 C 2454.51 1583.89 2474.96 1568.86 2490.98 1536.16 z"/>
<path transform="translate(0,0)" fill="rgb(3,129,142)" d="M 2371.62 1629.22 C 2386.11 1621.3 2409.62 1611.65 2425.51 1604.28 C 2424.85 1617.95 2406.34 1651.93 2399.3 1667.66 C 2391.58 1681.26 2359.6 1754.93 2358.9 1768.06 C 2380.43 1798.26 2373.96 1949.45 2356.31 1984.26 C 2343.74 2011.36 2330.5 2036.96 2315.8 2063.11 C 2229.64 2216.32 2155.98 2385.45 2194.85 2565 C 2197.71 2578.23 2201.46 2593.98 2206.07 2606.75 C 2206.89 2609.06 2207.78 2611.34 2208.73 2613.59 L 2217.63 2635.9 C 2224.61 2654.96 2231.94 2666.95 2243.45 2683.62 C 2254.22 2703.52 2249.15 2721.32 2254.9 2735.6 C 2247.39 2734.65 2237.65 2726.72 2231.17 2722.18 C 2165.67 2669.39 2165.04 2508.29 2144.09 2430.33 C 2121.98 2348.02 2091.69 2269.66 2072.34 2186.87 C 2071.11 2132.71 2065.83 2117.99 2105.56 2070.2 C 2053.36 2094.74 2027.56 2095.47 1974.66 2070.28 C 1961.93 2060.48 1927.21 2029.87 1917.44 2023.99 C 1917.83 2007.98 1897.65 1966.65 1892.24 1948.04 C 1883.5 1918.01 1870.84 1874.88 1868.68 1843.44 C 1887.17 1839.97 1868.44 1832.89 1890.05 1821.54 C 1900.45 1824.97 1926.85 1834.19 1936.97 1832.75 L 1937.72 1830.85 C 1957.89 1839.19 1969.56 1839.52 1991.45 1840.23 C 2002.02 1845.96 2068.22 1846.04 2078.44 1840.5 C 2103.94 1839.97 2114.46 1838.89 2139.42 1832.9 C 2155.36 1836.34 2198.23 1818.75 2215.04 1812.46 C 2213.91 1819.8 2211.99 1830.1 2211.6 1837.26 C 2215.7 1826.94 2216.81 1814.55 2222.47 1804.55 C 2255.34 1746.49 2303.16 1692.11 2352.35 1647.25 C 2358.86 1641.32 2367.16 1636.58 2371.62 1629.22 z"/>
<path transform="translate(0,0)" fill="rgb(223,99,164)" d="M 2215.04 1812.46 C 2213.91 1819.8 2211.99 1830.1 2211.6 1837.26 C 2202.28 1890.5 2191.89 1941.05 2169.83 1990.54 C 2165.29 2000.73 2161.04 2012.83 2160.65 2023.98 C 2142.93 2036.06 2125.75 2055.73 2105.56 2070.2 C 2053.36 2094.74 2027.56 2095.47 1974.66 2070.28 C 1961.93 2060.48 1927.21 2029.87 1917.44 2023.99 C 1917.83 2007.98 1897.65 1966.65 1892.24 1948.04 C 1883.5 1918.01 1870.84 1874.88 1868.68 1843.44 C 1887.17 1839.97 1868.44 1832.89 1890.05 1821.54 C 1900.45 1824.97 1926.85 1834.19 1936.97 1832.75 L 1937.72 1830.85 C 1957.89 1839.19 1969.56 1839.52 1991.45 1840.23 C 2002.02 1845.96 2068.22 1846.04 2078.44 1840.5 C 2103.94 1839.97 2114.46 1838.89 2139.42 1832.9 C 2155.36 1836.34 2198.23 1818.75 2215.04 1812.46 z"/>
<path transform="translate(0,0)" fill="rgb(10,128,213)" d="M 2371.62 1629.22 C 2386.11 1621.3 2409.62 1611.65 2425.51 1604.28 C 2424.85 1617.95 2406.34 1651.93 2399.3 1667.66 C 2391.58 1681.26 2359.6 1754.93 2358.9 1768.06 C 2345.09 1781.89 2335.37 1808.46 2325.17 1827.49 C 2295.58 1882.72 2213.67 1992.13 2160.65 2023.98 C 2161.04 2012.83 2165.29 2000.73 2169.83 1990.54 C 2191.89 1941.05 2202.28 1890.5 2211.6 1837.26 C 2215.7 1826.94 2216.81 1814.55 2222.47 1804.55 C 2255.34 1746.49 2303.16 1692.11 2352.35 1647.25 C 2358.86 1641.32 2367.16 1636.58 2371.62 1629.22 z"/>
<path transform="translate(0,0)" fill="rgb(253,197,8)" d="M 2490.98 1536.16 C 2548.72 1620.37 2613.24 1845.74 2611.86 1945.44 C 2612.56 1964.35 2614.77 1998.72 2612.59 2015.81 L 2606.37 2006.38 C 2593.1 1986.86 2548.64 1911.97 2535.96 1901.19 C 2529.51 1924.38 2524.79 1955.82 2520.32 1980.41 C 2515.94 2004.47 2507.19 2037.06 2504.27 2060.33 L 2504.13 2063.76 C 2496.53 2087.03 2496.33 2116.5 2485.16 2135.62 C 2467.97 2102.88 2394.19 1989.23 2356.31 1984.26 C 2373.96 1949.45 2380.43 1798.26 2358.9 1768.06 C 2359.6 1754.93 2391.58 1681.26 2399.3 1667.66 C 2406.34 1651.93 2424.85 1617.95 2425.51 1604.28 C 2454.51 1583.89 2474.96 1568.86 2490.98 1536.16 z"/>
<path transform="translate(0,0)" fill="rgb(223,99,164)" d="M 2490.98 1536.16 C 2548.72 1620.37 2613.24 1845.74 2611.86 1945.44 C 2612.56 1964.35 2614.77 1998.72 2612.59 2015.81 L 2606.37 2006.38 C 2593.1 1986.86 2548.64 1911.97 2535.96 1901.19 C 2530.41 1881.98 2482.75 1820.82 2469.09 1798.82 C 2450.23 1768.43 2435.77 1738.73 2418.65 1707.19 C 2410.67 1692.49 2410.54 1674.3 2399.3 1667.66 C 2406.34 1651.93 2424.85 1617.95 2425.51 1604.28 C 2454.51 1583.89 2474.96 1568.86 2490.98 1536.16 z"/>
<path transform="translate(0,0)" fill="rgb(91,84,190)" d="M 2535.96 1901.19 C 2548.64 1911.97 2593.1 1986.86 2606.37 2006.38 L 2612.59 2015.81 C 2671.87 2154.21 2646.98 2327.62 2581.48 2458.41 C 2572.82 2475.71 2543.18 2526.28 2540.08 2543.31 C 2530.64 2566.35 2526.13 2586.21 2518.2 2607.95 C 2517.06 2616.06 2516.03 2637.9 2513.86 2643.4 L 2511.04 2641.99 L 2507.01 2642.13 C 2503.67 2640.61 2500.37 2639.01 2497.11 2637.33 C 2470.92 2623.7 2449.23 2605.42 2440.31 2576.59 C 2451.38 2553.06 2462.89 2520.63 2470.38 2495.58 L 2478.26 2467.52 L 2501.95 2344.88 C 2501.97 2338.74 2503.05 2332.34 2503.86 2326.21 C 2508.29 2244.56 2508.45 2216 2485.16 2135.62 C 2496.33 2116.5 2496.53 2087.03 2504.13 2063.76 L 2504.27 2060.33 C 2507.19 2037.06 2515.94 2004.47 2520.32 1980.41 C 2524.79 1955.82 2529.51 1924.38 2535.96 1901.19 z"/>
<path transform="translate(0,0)" fill="rgb(78,92,199)" d="M 2470.38 2495.58 L 2478.26 2467.52 C 2485.69 2478.89 2479.44 2498.63 2471.69 2507.82 C 2469.32 2504.97 2470.37 2500.45 2470.38 2495.58 z"/>
<path transform="translate(0,0)" fill="rgb(78,92,199)" d="M 2503.86 2326.21 L 2508 2328.57 C 2512.01 2343.37 2510.93 2351.45 2502.95 2364.95 C 2502.75 2358.68 2502.72 2350.93 2501.95 2344.88 C 2501.97 2338.74 2503.05 2332.34 2503.86 2326.21 z"/>
<path transform="translate(0,0)" fill="rgb(60,77,212)" d="M 2511.04 2641.99 C 2507.85 2627.94 2508.03 2623.01 2511.54 2609.03 C 2514.79 2620.78 2512.62 2630.99 2513.86 2643.4 L 2511.04 2641.99 z"/>
<path transform="translate(0,0)" fill="rgb(221,49,53)" d="M 1583.75 1535.72 C 1589.53 1544.69 1597.02 1554.08 1602.6 1562.4 C 1613 1577.88 1651.52 1599.22 1654.68 1614.2 C 1656.58 1612.2 1657.96 1609.76 1659.91 1610.38 C 1674.2 1614.95 1695.97 1625.43 1710.16 1631.07 C 1758.66 1673.35 1799.51 1720.81 1837.12 1772.92 C 1855.21 1797.98 1860.67 1808.73 1868.28 1838.55 L 1868.68 1843.44 C 1870.84 1874.88 1883.5 1918.01 1892.24 1948.04 C 1897.65 1966.65 1917.83 2007.98 1917.44 2023.99 C 1927.21 2029.87 1961.93 2060.48 1974.66 2070.28 C 2012.97 2112.2 2009.39 2131.55 2007.62 2183.15 C 1990.16 2263.42 1957.89 2339.71 1938.11 2419.34 C 1927.86 2460.6 1921.29 2501.68 1914.74 2543.64 C 1905.07 2605.61 1893.49 2680.88 1843.7 2724.66 C 1836.31 2729.79 1829.63 2736.21 1821.23 2735.89 C 1827.22 2715.74 1829.73 2700.97 1836.98 2680.17 C 1808.24 2712.14 1759.6 2720.35 1726.8 2689.95 C 1717.81 2675.82 1710.61 2664.85 1700.66 2651.61 C 1687.01 2633.46 1642.93 2593.21 1639.27 2573.61 C 1623.55 2610.44 1601.52 2631.35 1563.17 2643.48 C 1562.11 2634.67 1561.11 2623.73 1559.41 2615.2 C 1554.95 2591.09 1545.37 2567.78 1535.85 2545.36 C 1524.77 2531.64 1472.21 2413.14 1463.03 2390.15 C 1423.92 2292.17 1415.09 2117.04 1456.56 2017.88 C 1455.03 1997.54 1459.31 1958.06 1461.21 1936.84 C 1473.47 1799.99 1514.56 1655.06 1583.75 1535.72 z"/>
<path transform="translate(0,0)" fill="rgb(3,150,151)" d="M 1654.68 1614.2 C 1656.58 1612.2 1657.96 1609.76 1659.91 1610.38 C 1674.2 1614.95 1695.97 1625.43 1710.16 1631.07 C 1758.66 1673.35 1799.51 1720.81 1837.12 1772.92 C 1855.21 1797.98 1860.67 1808.73 1868.28 1838.55 L 1868.68 1843.44 C 1870.84 1874.88 1883.5 1918.01 1892.24 1948.04 C 1897.65 1966.65 1917.83 2007.98 1917.44 2023.99 C 1927.21 2029.87 1961.93 2060.48 1974.66 2070.28 C 2012.97 2112.2 2009.39 2131.55 2007.62 2183.15 C 1990.16 2263.42 1957.89 2339.71 1938.11 2419.34 C 1927.86 2460.6 1921.29 2501.68 1914.74 2543.64 C 1905.07 2605.61 1893.49 2680.88 1843.7 2724.66 C 1836.31 2729.79 1829.63 2736.21 1821.23 2735.89 C 1827.22 2715.74 1829.73 2700.97 1836.98 2680.17 C 1878.66 2611.77 1889.14 2555.41 1893.79 2476.2 C 1903.33 2313.97 1823.15 2173.27 1749.16 2035.17 C 1740.44 2018.9 1730.26 1994.35 1718.19 1981.43 C 1721.56 1975.72 1709.11 1930.49 1708.31 1916.06 C 1706.25 1888.19 1706.07 1871.42 1708.05 1843.49 C 1706.51 1829.93 1713.91 1783.84 1719.07 1769.98 C 1721.12 1753.29 1688.24 1685.77 1679.25 1668.45 C 1679.05 1665.49 1657.28 1619.77 1654.68 1614.2 z"/>
<path transform="translate(0,0)" fill="rgb(3,142,181)" d="M 1654.68 1614.2 C 1656.58 1612.2 1657.96 1609.76 1659.91 1610.38 C 1674.2 1614.95 1695.97 1625.43 1710.16 1631.07 C 1758.66 1673.35 1799.51 1720.81 1837.12 1772.92 C 1855.21 1797.98 1860.67 1808.73 1868.28 1838.55 L 1868.68 1843.44 C 1870.84 1874.88 1883.5 1918.01 1892.24 1948.04 C 1897.65 1966.65 1917.83 2007.98 1917.44 2023.99 C 1863.99 1989.43 1792.03 1889.85 1758.9 1835.48 C 1742.39 1808.38 1747.01 1799.95 1719.07 1769.98 C 1721.12 1753.29 1688.24 1685.77 1679.25 1668.45 C 1679.05 1665.49 1657.28 1619.77 1654.68 1614.2 z"/>
<path transform="translate(0,0)" fill="rgb(3,163,181)" d="M 1708.05 1843.49 L 1710.53 1842.46 C 1714.1 1856.48 1718.15 1904.78 1708.31 1916.06 C 1706.25 1888.19 1706.07 1871.42 1708.05 1843.49 z"/>
<path transform="translate(0,0)" fill="rgb(253,197,8)" d="M 1583.75 1535.72 C 1589.53 1544.69 1597.02 1554.08 1602.6 1562.4 C 1613 1577.88 1651.52 1599.22 1654.68 1614.2 C 1657.28 1619.77 1679.05 1665.49 1679.25 1668.45 C 1688.24 1685.77 1721.12 1753.29 1719.07 1769.98 C 1713.91 1783.84 1706.51 1829.93 1708.05 1843.49 C 1706.07 1871.42 1706.25 1888.19 1708.31 1916.06 C 1709.11 1930.49 1721.56 1975.72 1718.19 1981.43 C 1679.22 2002.58 1615.47 2094.3 1594.71 2133.86 C 1582.66 2110.99 1565.13 2002.36 1555.85 1967.68 L 1554.08 1957.37 L 1553.45 1952.45 C 1550.61 1934.5 1546.2 1916.67 1543.34 1897.87 C 1533.21 1904.07 1500.22 1951.87 1494.38 1963.08 C 1488.38 1969.15 1463.34 2007.75 1456.56 2017.88 C 1455.03 1997.54 1459.31 1958.06 1461.21 1936.84 C 1473.47 1799.99 1514.56 1655.06 1583.75 1535.72 z"/>
<path transform="translate(0,0)" fill="rgb(223,99,164)" d="M 1583.75 1535.72 C 1589.53 1544.69 1597.02 1554.08 1602.6 1562.4 C 1613 1577.88 1651.52 1599.22 1654.68 1614.2 C 1657.28 1619.77 1679.05 1665.49 1679.25 1668.45 C 1672.59 1671.5 1675.44 1669.22 1671.35 1676.53 C 1668.25 1685.51 1665.62 1694.04 1661.4 1702.56 C 1647.34 1734.09 1630.63 1758.59 1614.86 1786.15 C 1604.1 1804.95 1545.19 1885.95 1543.34 1897.87 C 1533.21 1904.07 1500.22 1951.87 1494.38 1963.08 C 1488.38 1969.15 1463.34 2007.75 1456.56 2017.88 C 1455.03 1997.54 1459.31 1958.06 1461.21 1936.84 C 1473.47 1799.99 1514.56 1655.06 1583.75 1535.72 z"/>
<path transform="translate(0,0)" fill="rgb(126,68,145)" d="M 1543.34 1897.87 C 1546.2 1916.67 1550.61 1934.5 1553.45 1952.45 L 1554.08 1957.37 L 1555.85 1967.68 C 1565.13 2002.36 1582.66 2110.99 1594.71 2133.86 C 1589.41 2153.19 1578.73 2183.37 1576.33 2202.41 C 1563.12 2307.17 1585.21 2415.17 1615.95 2515.11 C 1621.01 2531.57 1630.52 2559.66 1639.27 2573.61 C 1623.55 2610.44 1601.52 2631.35 1563.17 2643.48 C 1562.11 2634.67 1561.11 2623.73 1559.41 2615.2 C 1554.95 2591.09 1545.37 2567.78 1535.85 2545.36 C 1524.77 2531.64 1472.21 2413.14 1463.03 2390.15 C 1423.92 2292.17 1415.09 2117.04 1456.56 2017.88 C 1463.34 2007.75 1488.38 1969.15 1494.38 1963.08 C 1500.22 1951.87 1533.21 1904.07 1543.34 1897.87 z"/>
<path transform="translate(0,0)" fill="rgb(118,73,163)" d="M 1543.34 1897.87 C 1546.2 1916.67 1550.61 1934.5 1553.45 1952.45 L 1548.93 1958.52 L 1545.96 1957.76 C 1546.87 1951.41 1547.48 1950.85 1546.57 1944.55 L 1541.52 1944.11 C 1536.35 1935.61 1540.98 1932.68 1536.58 1924.55 C 1535.95 1929.95 1535.83 1932.71 1535.78 1938.16 L 1533.79 1939.88 C 1532.01 1935.52 1532.13 1935.74 1531.05 1931.26 C 1515.58 1928.94 1512.69 1958.91 1494.38 1963.08 C 1500.22 1951.87 1533.21 1904.07 1543.34 1897.87 z"/>
<path transform="translate(0,0)" fill="rgb(118,73,163)" d="M 1555.85 1967.68 C 1555.79 1974.73 1556.2 1976.52 1553.3 1983.1 L 1550.99 1981.79 C 1548.19 1971.95 1547.09 1964.9 1554.08 1957.37 L 1555.85 1967.68 z"/>
<path transform="translate(0,0)" fill="rgb(223,99,164)" d="M 2221.67 516.119 C 2253 565.308 2313.21 580.111 2364.91 598.979 L 2554.89 666.541 C 2564.59 668.757 2565.5 673.026 2575.65 672.339 C 2742.53 653.783 2910.68 772.497 2872.48 951.127 C 2870.76 959.19 2867.32 966.786 2865.53 974.524 C 2860.7 979.52 2856.1 984.23 2851.53 989.464 C 2844.52 997.877 2843.11 998.854 2833.84 1004.78 C 2826.38 1001.97 2780.94 1000.17 2766.91 997.847 C 2763.27 997.611 2759.64 997.173 2756.05 996.535 C 2734.03 992.726 2672.72 979.03 2659.72 960.18 L 2652.87 970.338 C 2643.38 1002.2 2633.09 1019.66 2620.98 1048.47 L 2618.29 1050.15 L 2612.22 1053.98 C 2600.28 1061.46 2588.23 1073.45 2577.13 1082.5 C 2557.18 1098.78 2512.48 1123.01 2488.12 1127.9 C 2473.61 1130.22 2456.47 1134.87 2442.14 1135.62 C 2421.96 1136.67 2352.38 1129.42 2352.22 1103.42 L 2358.63 1097.23 L 2339.01 1098.38 C 2325.83 1104.6 2306.46 1124.62 2305.68 1139.7 C 2288.91 1104.66 2237.5 1103.93 2205.74 1089.62 C 2184.57 1084.49 2162.08 1078.98 2140.81 1074.62 C 2096.29 1055.59 2058.03 1043.92 2059.48 986.726 C 2059.96 967.857 2057.72 963.345 2070.28 948.138 C 2068.37 947.157 2063.29 944.603 2062.72 942.806 C 2054.45 916.579 2064.54 847.63 2070.6 823.275 C 2076.07 810 2077.69 803.839 2087.95 793.776 C 2075.13 792.24 2058.39 794.568 2048.63 787.403 C 2045.26 780.024 2046.09 782.876 2047.6 773.75 C 2050.33 767.065 2050.9 765.414 2052.59 758.413 C 2075.03 758.371 2085.07 744.803 2102.42 735.631 C 2106.55 731.721 2111.86 724.991 2115.7 720.428 C 2117.3 719.155 2123.93 710.577 2125.64 708.444 C 2130.18 702.996 2135.63 693.947 2139.62 687.76 L 2140.61 686.243 C 2160.84 655.74 2187.05 601.966 2201.35 568.203 C 2207.59 553.746 2213.34 537.314 2218.89 522.44 L 2221.67 516.119 z"/>
<path transform="translate(0,0)" fill="rgb(22,164,65)" d="M 2070.28 948.138 C 2132.03 937.265 2188.86 923.572 2252.94 913.261 C 2392.57 890.794 2514.04 882.024 2654.26 877.313 C 2661.06 887.783 2658.78 891.913 2656.4 904.871 C 2664.81 917.36 2660.1 924.804 2659.97 940.868 C 2658.72 948.386 2657.06 953.13 2659.72 960.18 L 2652.87 970.338 C 2643.38 1002.2 2633.09 1019.66 2620.98 1048.47 L 2618.29 1050.15 L 2612.22 1053.98 C 2600.28 1061.46 2588.23 1073.45 2577.13 1082.5 C 2557.18 1098.78 2512.48 1123.01 2488.12 1127.9 C 2473.61 1130.22 2456.47 1134.87 2442.14 1135.62 C 2421.96 1136.67 2352.38 1129.42 2352.22 1103.42 L 2358.63 1097.23 L 2339.01 1098.38 C 2325.83 1104.6 2306.46 1124.62 2305.68 1139.7 C 2288.91 1104.66 2237.5 1103.93 2205.74 1089.62 C 2184.57 1084.49 2162.08 1078.98 2140.81 1074.62 C 2096.29 1055.59 2058.03 1043.92 2059.48 986.726 C 2059.96 967.857 2057.72 963.345 2070.28 948.138 z"/>
<path transform="translate(0,0)" fill="rgb(91,84,190)" d="M 2628.7 951.824 C 2637.24 957.278 2635.73 958.343 2643.67 957.651 C 2647.01 954.893 2649.55 952.568 2653.22 950.254 C 2653.3 956.951 2653.18 963.648 2652.87 970.338 C 2643.38 1002.2 2633.09 1019.66 2620.98 1048.47 L 2618.29 1050.15 L 2612.22 1053.98 C 2600.28 1061.46 2588.23 1073.45 2577.13 1082.5 C 2557.18 1098.78 2512.48 1123.01 2488.12 1127.9 C 2473.61 1130.22 2456.47 1134.87 2442.14 1135.62 C 2421.96 1136.67 2352.38 1129.42 2352.22 1103.42 L 2358.63 1097.23 C 2457.85 1085.67 2565.41 1030.2 2628.7 951.824 z"/>
<path transform="translate(0,0)" fill="rgb(164,164,162)" d="M 2205.74 1089.62 C 2245.78 1095.89 2299.09 1102.44 2339.01 1098.38 C 2325.83 1104.6 2306.46 1124.62 2305.68 1139.7 C 2288.91 1104.66 2237.5 1103.93 2205.74 1089.62 z"/>
<path transform="translate(0,0)" fill="rgb(60,77,212)" d="M 2656.4 904.871 C 2664.81 917.36 2660.1 924.804 2659.97 940.868 C 2658.72 948.386 2657.06 953.13 2659.72 960.18 L 2652.87 970.338 C 2653.18 963.648 2653.3 956.951 2653.22 950.254 C 2649.55 952.568 2647.01 954.893 2643.67 957.651 C 2635.73 958.343 2637.24 957.278 2628.7 951.824 C 2641.55 933.803 2648.19 925.519 2656.4 904.871 z"/>
<path transform="translate(0,0)" fill="rgb(10,128,213)" d="M 2087.95 793.776 C 2106.74 785.899 2161.48 783.231 2183.13 782.272 C 2315.67 776.403 2457.8 762.74 2586.88 798.103 C 2609.61 804.328 2668.66 856.574 2654.26 877.313 C 2514.04 882.024 2392.57 890.794 2252.94 913.261 C 2188.86 923.572 2132.03 937.265 2070.28 948.138 C 2068.37 947.157 2063.29 944.603 2062.72 942.806 C 2054.45 916.579 2064.54 847.63 2070.6 823.275 C 2076.07 810 2077.69 803.839 2087.95 793.776 z"/>
<path transform="translate(0,0)" fill="rgb(221,49,53)" d="M 2575.65 672.339 C 2742.53 653.783 2910.68 772.497 2872.48 951.127 C 2870.76 959.19 2867.32 966.786 2865.53 974.524 C 2860.7 979.52 2856.1 984.23 2851.53 989.464 C 2844.52 997.877 2843.11 998.854 2833.84 1004.78 C 2826.38 1001.97 2780.94 1000.17 2766.91 997.847 C 2763.27 997.611 2759.64 997.173 2756.05 996.535 C 2734.03 992.726 2672.72 979.03 2659.72 960.18 C 2657.06 953.13 2658.72 948.386 2659.97 940.868 C 2666.67 918.131 2661.57 893.576 2670.46 877.761 C 2676.92 874.288 2676.5 876.055 2686.2 878.545 L 2670 864.699 C 2662.65 800.307 2643.02 741.926 2595.14 697.513 C 2587.94 690.842 2579.61 683.397 2573.39 675.953 L 2575.65 672.339 z"/>
<path transform="translate(0,0)" fill="rgb(251,152,5)" d="M 2659.97 940.868 C 2666.67 918.131 2661.57 893.576 2670.46 877.761 C 2676.92 874.288 2676.5 876.055 2686.2 878.545 C 2748.9 902.905 2808.36 937.141 2851.53 989.464 C 2844.52 997.877 2843.11 998.854 2833.84 1004.78 C 2826.38 1001.97 2780.94 1000.17 2766.91 997.847 C 2763.27 997.611 2759.64 997.173 2756.05 996.535 C 2734.03 992.726 2672.72 979.03 2659.72 960.18 C 2657.06 953.13 2658.72 948.386 2659.97 940.868 z"/>
<path transform="translate(0,0)" fill="rgb(231,66,123)" d="M 2221.67 516.119 C 2253 565.308 2313.21 580.111 2364.91 598.979 L 2554.89 666.541 L 2555.95 669.34 C 2543.54 672.183 2512.31 670.02 2498 670.286 C 2465.62 670.887 2433.87 676.638 2402.47 680.065 C 2376.31 682.921 2300.82 706.49 2279.12 701.071 C 2255.9 681 2237.03 630.643 2227.98 602.107 C 2203.49 600.016 2214.19 577.954 2201.35 568.203 C 2207.59 553.746 2213.34 537.314 2218.89 522.44 L 2221.67 516.119 z"/>
<path transform="translate(0,0)" fill="rgb(3,150,151)" d="M 2218.89 522.44 C 2223.44 531.637 2218.78 573.939 2227.98 602.107 C 2203.49 600.016 2214.19 577.954 2201.35 568.203 C 2207.59 553.746 2213.34 537.314 2218.89 522.44 z"/>
<path transform="translate(0,0)" fill="rgb(3,129,142)" d="M 2201.35 568.203 C 2214.19 577.954 2203.49 600.016 2227.98 602.107 C 2237.03 630.643 2255.9 681 2279.12 701.071 C 2277.68 702.568 2276.24 704.065 2274.8 705.562 C 2261.33 709.797 2198.26 724.858 2187.83 725.078 C 2158.18 710.465 2171.06 726.631 2155.19 725.799 C 2145.62 721.348 2142.91 715.339 2137.5 706.266 L 2145.41 690.61 L 2139.62 687.76 L 2140.61 686.243 C 2160.84 655.74 2187.05 601.966 2201.35 568.203 z"/>
<path transform="translate(0,0)" fill="rgb(3,150,151)" d="M 2139.62 687.76 L 2145.41 690.61 L 2137.5 706.266 C 2142.91 715.339 2145.62 721.348 2155.19 725.799 C 2171.06 726.631 2158.18 710.465 2187.83 725.078 C 2170.58 727.8 2114.44 741.305 2102.42 735.631 C 2106.55 731.721 2111.86 724.991 2115.7 720.428 C 2117.3 719.155 2123.93 710.577 2125.64 708.444 C 2130.18 702.996 2135.63 693.947 2139.62 687.76 z"/>
<path transform="translate(0,0)" fill="rgb(126,68,145)" d="M 1535.85 2545.36 C 1545.37 2567.78 1554.95 2591.09 1559.41 2615.2 C 1561.11 2623.73 1562.11 2634.67 1563.17 2643.48 C 1601.52 2631.35 1623.55 2610.44 1639.27 2573.61 C 1642.93 2593.21 1687.01 2633.46 1700.66 2651.61 C 1710.61 2664.85 1717.81 2675.82 1726.8 2689.95 C 1759.6 2720.35 1808.24 2712.14 1836.98 2680.17 C 1829.73 2700.97 1827.22 2715.74 1821.23 2735.89 C 1829.63 2736.21 1836.31 2729.79 1843.7 2724.66 C 1845.42 2759.86 1845.59 2795.12 1844.2 2830.34 C 1846.52 2887.46 1882.61 2941.02 1876.76 3008.8 C 1869.38 3094.24 1842.68 3114.92 1809.17 3181.71 C 1786.07 3227.76 1759.95 3373.85 1760.07 3425.64 C 1758.26 3435.33 1758.19 3450.22 1755.08 3456.5 C 1749.47 3459.23 1748.18 3458.22 1742.3 3454.59 C 1725.82 3472.4 1692.63 3481.16 1670.95 3468.89 C 1655.76 3486.83 1622.57 3487.55 1602.84 3478.37 C 1591.17 3485.2 1582.05 3487.65 1568.45 3483.99 C 1565.63 3483.21 1562.84 3482.33 1560.08 3481.37 C 1560.51 3385.19 1530.36 3313.12 1497.75 3225.22 C 1483.06 3184.62 1468.82 3143.87 1455.03 3102.96 C 1424.78 3010.62 1424.23 2934.93 1456.5 2843.13 C 1470.86 2802.24 1492.05 2769.16 1511.43 2731.03 C 1511.82 2725.7 1520.68 2708.01 1521.84 2697.95 C 1526.83 2654.68 1540.35 2587.65 1535.85 2545.36 z"/>
<path transform="translate(0,0)" fill="rgb(221,49,53)" d="M 1513.43 2731.24 L 1515.73 2727.36 C 1524.34 2729.1 1535.08 2744.24 1541.16 2751.69 C 1569.82 2787.46 1586.29 2815.32 1605.36 2856.17 C 1619.38 2895.75 1626.01 2926.97 1627.8 2969.56 C 1628.42 2984.47 1626.76 3005.33 1627.8 3018.72 C 1625.4 3034.63 1623.24 3050.2 1621.07 3066.52 C 1609.04 3156.62 1630.15 3250.64 1645.23 3339.51 C 1652.08 3379.93 1663.08 3417.18 1668.83 3457.92 L 1670.95 3468.89 C 1655.76 3486.83 1622.57 3487.55 1602.84 3478.37 C 1591.17 3485.2 1582.05 3487.65 1568.45 3483.99 C 1565.63 3483.21 1562.84 3482.33 1560.08 3481.37 C 1560.51 3385.19 1530.36 3313.12 1497.75 3225.22 C 1483.06 3184.62 1468.82 3143.87 1455.03 3102.96 C 1424.78 3010.62 1424.23 2934.93 1456.5 2843.13 C 1470.86 2802.24 1492.05 2769.16 1511.43 2731.03 L 1513.43 2731.24 z"/>
<path transform="translate(0,0)" fill="rgb(61,162,51)" d="M 1511.43 2731.03 L 1513.43 2731.24 C 1517.44 2740.1 1519.16 2746 1519.72 2755.88 L 1521.87 2765.3 C 1532.77 2805.85 1518.66 2910.13 1514.19 2958.2 C 1514.14 2991.12 1516.03 3024.01 1519.84 3056.71 C 1521.04 3067.44 1525.53 3091.54 1525.91 3099.19 C 1531.17 3126.45 1537.5 3153.49 1544.91 3180.24 C 1546.64 3186.72 1554.48 3212.69 1555.27 3217.8 L 1557.34 3223.7 C 1578.55 3279.71 1604.39 3352.11 1607.15 3412.3 C 1608.17 3434.48 1603.97 3456.69 1602.84 3478.37 C 1591.17 3485.2 1582.05 3487.65 1568.45 3483.99 C 1565.63 3483.21 1562.84 3482.33 1560.08 3481.37 C 1560.51 3385.19 1530.36 3313.12 1497.75 3225.22 C 1483.06 3184.62 1468.82 3143.87 1455.03 3102.96 C 1424.78 3010.62 1424.23 2934.93 1456.5 2843.13 C 1470.86 2802.24 1492.05 2769.16 1511.43 2731.03 z"/>
<path transform="translate(0,0)" fill="rgb(246,192,118)" d="M 1535.85 2545.36 C 1545.37 2567.78 1554.95 2591.09 1559.41 2615.2 C 1561.11 2623.73 1562.11 2634.67 1563.17 2643.48 C 1601.52 2631.35 1623.55 2610.44 1639.27 2573.61 C 1642.93 2593.21 1687.01 2633.46 1700.66 2651.61 C 1710.61 2664.85 1717.81 2675.82 1726.8 2689.95 C 1759.6 2720.35 1808.24 2712.14 1836.98 2680.17 C 1829.73 2700.97 1827.22 2715.74 1821.23 2735.89 C 1812.33 2741.28 1812.33 2753.13 1813.48 2762.49 C 1816.21 2765.84 1814.58 2764.48 1818.37 2766.56 L 1819.41 2768.34 C 1806.39 2787.71 1787.93 2812.34 1776.42 2831.56 L 1773.71 2832.79 C 1761.36 2838.39 1741.28 2854.99 1730.48 2864.34 C 1671.85 2915.13 1655.24 2950.82 1627.8 3018.72 C 1626.76 3005.33 1628.42 2984.47 1627.8 2969.56 C 1626.01 2926.97 1619.38 2895.75 1605.36 2856.17 C 1586.29 2815.32 1569.82 2787.46 1541.16 2751.69 C 1535.08 2744.24 1524.34 2729.1 1515.73 2727.36 L 1513.43 2731.24 L 1511.43 2731.03 C 1511.82 2725.7 1520.68 2708.01 1521.84 2697.95 C 1526.83 2654.68 1540.35 2587.65 1535.85 2545.36 z"/>
<path transform="translate(0,0)" fill="rgb(199,198,198)" d="M 1836.98 2680.17 C 1829.73 2700.97 1827.22 2715.74 1821.23 2735.89 C 1812.33 2741.28 1812.33 2753.13 1813.48 2762.49 C 1816.21 2765.84 1814.58 2764.48 1818.37 2766.56 L 1819.41 2768.34 C 1806.39 2787.71 1787.93 2812.34 1776.42 2831.56 L 1773.71 2832.79 C 1761.36 2838.39 1741.28 2854.99 1730.48 2864.34 C 1671.85 2915.13 1655.24 2950.82 1627.8 3018.72 C 1626.76 3005.33 1628.42 2984.47 1627.8 2969.56 C 1626.01 2926.97 1619.38 2895.75 1605.36 2856.17 L 1608.16 2855.47 C 1617.61 2867.32 1622.91 2871.6 1636.54 2877.89 C 1685.36 2846.71 1721.09 2790.14 1727.78 2732.67 C 1729.18 2720.63 1723.39 2698.2 1726.8 2689.95 C 1759.6 2720.35 1808.24 2712.14 1836.98 2680.17 z"/>
<path transform="translate(0,0)" fill="rgb(199,198,198)" d="M 1535.85 2545.36 C 1545.37 2567.78 1554.95 2591.09 1559.41 2615.2 C 1546.72 2627.56 1551.8 2637.1 1546.46 2651.11 C 1539.43 2669.58 1536.96 2673.24 1535.52 2693.29 C 1534.24 2711.12 1541.91 2736.54 1541.16 2751.69 C 1535.08 2744.24 1524.34 2729.1 1515.73 2727.36 L 1513.43 2731.24 L 1511.43 2731.03 C 1511.82 2725.7 1520.68 2708.01 1521.84 2697.95 C 1526.83 2654.68 1540.35 2587.65 1535.85 2545.36 z"/>
<path transform="translate(0,0)" fill="rgb(3,163,181)" d="M 1627.8 3018.72 C 1655.24 2950.82 1671.85 2915.13 1730.48 2864.34 C 1741.28 2854.99 1761.36 2838.39 1773.71 2832.79 C 1772.02 2840.38 1748.28 2902.18 1745.02 2905.41 C 1742.2 2921.6 1736.07 2942.95 1736.15 2957.93 C 1733.44 2973.96 1732.41 2990.22 1733.1 3006.46 L 1734.42 3023.07 L 1733.93 3026 C 1743.04 3086.65 1744.02 3162.82 1730.04 3223.02 C 1722.15 3297.39 1722.08 3318.48 1731.8 3395.14 C 1736.64 3409.86 1739.16 3437.69 1742.3 3454.59 C 1725.82 3472.4 1692.63 3481.16 1670.95 3468.89 L 1668.83 3457.92 C 1663.08 3417.18 1652.08 3379.93 1645.23 3339.51 C 1630.15 3250.64 1609.04 3156.62 1621.07 3066.52 C 1623.24 3050.2 1625.4 3034.63 1627.8 3018.72 z"/>
<path transform="translate(0,0)" fill="rgb(3,150,151)" d="M 1730.04 3223.02 C 1722.73 3199.68 1732.03 3132.53 1730.5 3104.98 C 1729.18 3081.37 1728.13 3054.47 1729.37 3031.01 C 1729.51 3028.21 1731.43 3027.92 1733.93 3026 C 1743.04 3086.65 1744.02 3162.82 1730.04 3223.02 z"/>
<path transform="translate(0,0)" fill="rgb(3,150,151)" d="M 1731.8 3395.14 C 1736.64 3409.86 1739.16 3437.69 1742.3 3454.59 C 1725.82 3472.4 1692.63 3481.16 1670.95 3468.89 L 1668.83 3457.92 C 1674.72 3453.76 1673.73 3448.93 1674.82 3442.05 L 1677.54 3440.97 C 1686.98 3450.21 1679.62 3460.61 1692.39 3468.36 C 1704.05 3468.2 1716.93 3468.5 1726.85 3462.12 C 1729.99 3455.31 1729.08 3453.23 1726.73 3445.07 C 1721.59 3427.19 1725.03 3430.07 1731.97 3416.21 C 1731.06 3407.19 1731.21 3404.28 1731.8 3395.14 z"/>
<path transform="translate(0,0)" fill="rgb(3,150,151)" d="M 1733.1 3006.46 L 1729.72 3003.45 C 1724.52 2991.81 1728.59 2929.74 1732.58 2913.37 C 1731.66 2921.41 1730.01 2923.03 1733.04 2928.99 C 1739.46 2916.14 1732.95 2913.95 1745.02 2905.41 C 1742.2 2921.6 1736.07 2942.95 1736.15 2957.93 C 1733.44 2973.96 1732.41 2990.22 1733.1 3006.46 z"/>
<path transform="translate(0,0)" fill="rgb(164,164,162)" d="M 1843.7 2724.66 C 1845.42 2759.86 1845.59 2795.12 1844.2 2830.34 C 1839.19 2815.82 1840.18 2783.31 1840.12 2766.76 C 1841.42 2756.83 1841.97 2747.03 1842.67 2737.04 L 1821.12 2767.42 L 1819.41 2768.34 L 1818.37 2766.56 C 1814.58 2764.48 1816.21 2765.84 1813.48 2762.49 C 1812.33 2753.13 1812.33 2741.28 1821.23 2735.89 C 1829.63 2736.21 1836.31 2729.79 1843.7 2724.66 z"/>
<path transform="translate(0,0)" fill="rgb(118,73,163)" d="M 1842.67 2737.04 C 1841.97 2747.03 1841.42 2756.83 1840.12 2766.76 C 1837.26 2774.93 1836.73 2806.49 1835.81 2818.21 C 1835.49 2806.02 1835.78 2779.44 1832.73 2769.13 L 1829.5 2767.89 L 1823.51 2770.7 L 1821.12 2767.42 L 1842.67 2737.04 z"/>
<path transform="translate(0,0)" fill="rgb(152,110,67)" d="M 2518.2 2607.95 C 2526.13 2586.21 2530.64 2566.35 2540.08 2543.31 C 2540.12 2567.15 2540.45 2587 2542.93 2610.81 C 2544.17 2622.65 2547.5 2638.11 2548.32 2648.43 C 2552.03 2676.19 2555.7 2703.44 2569.1 2728.62 C 2570.43 2731.13 2569.9 2729.94 2570.82 2733.04 C 2577.05 2752.73 2591.96 2774.01 2600.88 2793.82 C 2629.73 2857.88 2651.28 2932.12 2644.51 3003.04 C 2627.9 3123.19 2567.55 3234.07 2534.62 3350.19 C 2527.37 3375.56 2522.14 3398.83 2517.62 3424.85 C 2516.64 3430.48 2515.12 3451.44 2514.34 3453.73 C 2508.28 3471.5 2520.94 3495.42 2476.99 3481.88 C 2470.94 3480.01 2471.72 3461.93 2470.74 3454.71 C 2470.84 3461.82 2472.12 3472.21 2467.06 3477.48 C 2451.7 3493.47 2418.7 3483.74 2406.39 3468 C 2384.6 3481.08 2351.13 3473.46 2335.43 3453.93 C 2328.54 3458.26 2326.9 3460.82 2320.74 3454.99 C 2317.88 3445.09 2320.01 3426.21 2320.48 3414.73 C 2320.34 3408.08 2320.95 3396.02 2318.09 3390.72 C 2310.34 3338.76 2293.5 3248.81 2275.9 3200.95 C 2247.54 3123.85 2193.57 3080.88 2199.27 2986.38 C 2202.88 2926.54 2224.81 2875.99 2233.69 2816.61 C 2232.98 2808.53 2234.39 2787.99 2234.48 2778.11 C 2234.66 2756.86 2233.52 2743 2231.17 2722.18 C 2237.65 2726.72 2247.39 2734.65 2254.9 2735.6 C 2249.15 2721.32 2254.22 2703.52 2243.45 2683.62 C 2275.41 2713.24 2324.94 2719.71 2355.14 2684.25 C 2383.87 2638.45 2411.32 2619.34 2440.31 2576.59 C 2449.23 2605.42 2470.92 2623.7 2497.11 2637.33 C 2500.37 2639.01 2503.67 2640.61 2507.01 2642.13 L 2511.04 2641.99 L 2513.86 2643.4 C 2516.03 2637.9 2517.06 2616.06 2518.2 2607.95 z"/>
<path transform="translate(0,0)" fill="rgb(253,110,2)" d="M 2563.92 2728.36 L 2570.82 2733.04 C 2577.05 2752.73 2591.96 2774.01 2600.88 2793.82 C 2629.73 2857.88 2651.28 2932.12 2644.51 3003.04 C 2627.9 3123.19 2567.55 3234.07 2534.62 3350.19 C 2527.37 3375.56 2522.14 3398.83 2517.62 3424.85 C 2516.64 3430.48 2515.12 3451.44 2514.34 3453.73 C 2508.28 3471.5 2520.94 3495.42 2476.99 3481.88 C 2470.94 3480.01 2471.72 3461.93 2470.74 3454.71 C 2470.84 3461.82 2472.12 3472.21 2467.06 3477.48 C 2451.7 3493.47 2418.7 3483.74 2406.39 3468 C 2408.35 3464.73 2411.12 3459.37 2411.65 3455.5 C 2421.89 3380.23 2441.87 3305.92 2453.24 3231 C 2456.59 3208.32 2458.95 3185.5 2460.32 3162.62 C 2462.23 3120.33 2459.61 3077.96 2452.5 3036.23 C 2452.74 3024.14 2449.46 3004.82 2449.22 2991.17 C 2448.25 2935.53 2456.97 2897.58 2478.76 2847.49 C 2488.7 2828.48 2497.08 2813.04 2509.08 2795.17 C 2514.03 2787.78 2525.71 2773.02 2528.78 2766.33 C 2537.95 2757.85 2554.47 2731.79 2563.92 2728.36 z"/>
<path transform="translate(0,0)" fill="rgb(10,128,213)" d="M 2563.92 2728.36 L 2570.82 2733.04 C 2577.05 2752.73 2591.96 2774.01 2600.88 2793.82 C 2629.73 2857.88 2651.28 2932.12 2644.51 3003.04 C 2627.9 3123.19 2567.55 3234.07 2534.62 3350.19 C 2527.37 3375.56 2522.14 3398.83 2517.62 3424.85 C 2516.64 3430.48 2515.12 3451.44 2514.34 3453.73 C 2508.28 3471.5 2520.94 3495.42 2476.99 3481.88 C 2470.94 3480.01 2471.72 3461.93 2470.74 3454.71 C 2453.84 3377.54 2509.5 3260.65 2533.24 3187.51 C 2549.59 3137.13 2557.95 3096.49 2565.38 3044.18 C 2576.73 2964.2 2560.64 2900.66 2556.07 2821.49 C 2554.3 2790.8 2559.63 2758.84 2563.92 2728.36 z"/>
<path transform="translate(0,0)" fill="rgb(237,226,106)" d="M 2518.2 2607.95 C 2526.13 2586.21 2530.64 2566.35 2540.08 2543.31 C 2540.12 2567.15 2540.45 2587 2542.93 2610.81 C 2544.17 2622.65 2547.5 2638.11 2548.32 2648.43 C 2552.03 2676.19 2555.7 2703.44 2569.1 2728.62 C 2570.43 2731.13 2569.9 2729.94 2570.82 2733.04 L 2563.92 2728.36 C 2554.47 2731.79 2537.95 2757.85 2528.78 2766.33 C 2525.71 2773.02 2514.03 2787.78 2509.08 2795.17 C 2497.08 2813.04 2488.7 2828.48 2478.76 2847.49 C 2456.97 2897.58 2448.25 2935.53 2449.22 2991.17 C 2449.46 3004.82 2452.74 3024.14 2452.5 3036.23 C 2430.08 2975.23 2415.15 2924.72 2364.21 2878.06 C 2353.04 2867.82 2316.67 2834.15 2303 2834.35 C 2301.01 2832.38 2291.56 2815.75 2289.16 2812.04 C 2276.76 2792.9 2263.55 2774.88 2249.95 2756.6 C 2252.67 2755.29 2256.92 2754.47 2261.11 2752.56 C 2265.55 2746.02 2264.82 2749.51 2263.41 2741.77 C 2259.77 2738.56 2259.07 2738.1 2254.9 2735.6 C 2249.15 2721.32 2254.22 2703.52 2243.45 2683.62 C 2275.41 2713.24 2324.94 2719.71 2355.14 2684.25 C 2383.87 2638.45 2411.32 2619.34 2440.31 2576.59 C 2449.23 2605.42 2470.92 2623.7 2497.11 2637.33 C 2500.37 2639.01 2503.67 2640.61 2507.01 2642.13 L 2511.04 2641.99 L 2513.86 2643.4 C 2516.03 2637.9 2517.06 2616.06 2518.2 2607.95 z"/>
<path transform="translate(0,0)" fill="rgb(199,198,198)" d="M 2243.45 2683.62 C 2275.41 2713.24 2324.94 2719.71 2355.14 2684.25 C 2348.28 2722.35 2347.87 2744.73 2363.99 2781.12 C 2378.92 2814.81 2440.4 2924.08 2472.81 2845.67 C 2477.34 2846.16 2475.84 2845.16 2478.76 2847.49 C 2456.97 2897.58 2448.25 2935.53 2449.22 2991.17 C 2449.46 3004.82 2452.74 3024.14 2452.5 3036.23 C 2430.08 2975.23 2415.15 2924.72 2364.21 2878.06 C 2353.04 2867.82 2316.67 2834.15 2303 2834.35 C 2301.01 2832.38 2291.56 2815.75 2289.16 2812.04 C 2276.76 2792.9 2263.55 2774.88 2249.95 2756.6 C 2252.67 2755.29 2256.92 2754.47 2261.11 2752.56 C 2265.55 2746.02 2264.82 2749.51 2263.41 2741.77 C 2259.77 2738.56 2259.07 2738.1 2254.9 2735.6 C 2249.15 2721.32 2254.22 2703.52 2243.45 2683.62 z"/>
<path transform="translate(0,0)" fill="rgb(199,198,198)" d="M 2518.2 2607.95 C 2526.13 2586.21 2530.64 2566.35 2540.08 2543.31 C 2540.12 2567.15 2540.45 2587 2542.93 2610.81 C 2544.17 2622.65 2547.5 2638.11 2548.32 2648.43 C 2552.03 2676.19 2555.7 2703.44 2569.1 2728.62 C 2570.43 2731.13 2569.9 2729.94 2570.82 2733.04 L 2563.92 2728.36 C 2554.47 2731.79 2537.95 2757.85 2528.78 2766.33 C 2528.43 2762 2528.41 2762.48 2530.03 2758.73 C 2539.9 2735.75 2546.82 2708.35 2540.34 2683.57 C 2537.41 2672.35 2535.21 2663.17 2537.24 2651.51 C 2535.21 2639.54 2528.36 2614.76 2518.2 2607.95 z"/>
<path transform="translate(0,0)" fill="rgb(229,219,140)" d="M 2518.2 2607.95 C 2528.36 2614.76 2535.21 2639.54 2537.24 2651.51 C 2535.21 2663.17 2537.41 2672.35 2540.34 2683.57 C 2546.82 2708.35 2539.9 2735.75 2530.03 2758.73 C 2528.41 2762.48 2528.43 2762 2528.78 2766.33 C 2525.71 2773.02 2514.03 2787.78 2509.08 2795.17 C 2497.08 2813.04 2488.7 2828.48 2478.76 2847.49 C 2475.84 2845.16 2477.34 2846.16 2472.81 2845.67 C 2474.27 2829.19 2517.2 2775.25 2526.75 2755.55 C 2539.39 2731.65 2543.31 2706.16 2535.17 2680.06 C 2530.15 2663.95 2517.53 2655.58 2507.01 2642.13 L 2511.04 2641.99 L 2513.86 2643.4 C 2516.03 2637.9 2517.06 2616.06 2518.2 2607.95 z"/>
<path transform="translate(0,0)" fill="rgb(3,163,181)" d="M 2303 2834.35 C 2316.67 2834.15 2353.04 2867.82 2364.21 2878.06 C 2415.15 2924.72 2430.08 2975.23 2452.5 3036.23 C 2459.61 3077.96 2462.23 3120.33 2460.32 3162.62 C 2458.95 3185.5 2456.59 3208.32 2453.24 3231 C 2441.87 3305.92 2421.89 3380.23 2411.65 3455.5 C 2411.12 3459.37 2408.35 3464.73 2406.39 3468 C 2384.6 3481.08 2351.13 3473.46 2335.43 3453.93 C 2336.88 3450.84 2338.21 3446.48 2339.36 3443.16 C 2349.09 3398.05 2359.23 3310.51 2355.12 3266.18 C 2352.28 3220.27 2336.57 3160.08 2339.44 3115.06 C 2346.54 3003.54 2356.09 2938.16 2303 2834.35 z"/>
<path transform="translate(0,0)" fill="rgb(220,218,211)" d="M 2231.17 2722.18 C 2237.65 2726.72 2247.39 2734.65 2254.9 2735.6 C 2259.07 2738.1 2259.77 2738.56 2263.41 2741.77 C 2264.82 2749.51 2265.55 2746.02 2261.11 2752.56 C 2256.92 2754.47 2252.67 2755.29 2249.95 2756.6 C 2243.69 2749.03 2241.23 2745.27 2236.13 2736.84 C 2236.87 2759.54 2239.13 2795.43 2233.69 2816.61 C 2232.98 2808.53 2234.39 2787.99 2234.48 2778.11 C 2234.66 2756.86 2233.52 2743 2231.17 2722.18 z"/>
<path transform="translate(0,0)" fill="rgb(61,162,51)" d="M 1319.66 997.272 C 1342.38 992.549 1382.07 984.148 1401.75 973.096 C 1408.83 969.121 1417.36 961.778 1425.55 960.609 C 1427.39 967.605 1427.03 967.541 1432.28 973.06 C 1433.78 996.451 1460.19 1036.51 1460.84 1049.97 C 1461.26 1056.7 1463.97 1077.27 1466.07 1083.69 L 1465.75 1085.73 C 1463.55 1100.37 1464.67 1113.22 1462.32 1128.6 C 1454.6 1179.18 1438.76 1237.34 1406.99 1278.15 C 1399.53 1291.89 1389.5 1300.74 1381.67 1313.67 C 1350.28 1370.2 1378.39 1387.12 1346.37 1442.87 C 1351.34 1461.79 1333.73 1488.63 1326.93 1504.59 C 1296.49 1576.04 1089.83 1742.34 1079.73 1804.55 C 1077.56 1806.52 1077.01 1806.29 1074.04 1807.44 C 1065.07 1805.67 1060.05 1802.01 1052.14 1797.45 C 1021.16 1787.04 972.343 1773.42 943.92 1761.59 C 932.68 1759.02 904.112 1751.03 894.538 1745.68 C 922.725 1714.79 970.078 1597.42 974.81 1560.2 C 989.332 1446.02 993.996 1356.22 1078.79 1269.37 C 1096.79 1250.93 1120.15 1218.6 1138.3 1197.22 C 1139.38 1194.56 1137.57 1166.37 1137.73 1160.06 C 1139.02 1109.53 1148.55 1070.33 1172.48 1026.14 C 1187.4 1002.42 1194.9 990.921 1214.18 970.995 C 1220.02 981.248 1223.49 984.041 1232.79 991.428 C 1236.49 995.308 1240.24 999.494 1244.33 1002.92 C 1277.14 1004.04 1287.37 1004.24 1319.66 997.272 z"/>
<path transform="translate(0,0)" fill="rgb(231,66,123)" d="M 1319.66 997.272 C 1342.38 992.549 1382.07 984.148 1401.75 973.096 C 1408.83 969.121 1417.36 961.778 1425.55 960.609 C 1427.39 967.605 1427.03 967.541 1432.28 973.06 C 1433.78 996.451 1460.19 1036.51 1460.84 1049.97 C 1461.26 1056.7 1463.97 1077.27 1466.07 1083.69 L 1465.75 1085.73 C 1463.55 1100.37 1464.67 1113.22 1462.32 1128.6 C 1454.6 1179.18 1438.76 1237.34 1406.99 1278.15 C 1399.53 1291.89 1389.5 1300.74 1381.67 1313.67 C 1372.42 1310.51 1374.75 1312.78 1370.01 1305.8 C 1352.87 1315.79 1340.45 1322.74 1321.86 1330.18 C 1309.87 1334.99 1293.75 1339.89 1282.74 1345.59 L 1280.48 1333.89 C 1266.61 1335.21 1261.85 1339.25 1247.85 1336.66 C 1236.67 1327.93 1224.54 1318.12 1210.92 1315.69 C 1188.99 1320.52 1189.96 1318.12 1171.3 1307.09 C 1163.66 1298.84 1150.55 1255.22 1148.9 1244.01 C 1145.41 1231.66 1142.97 1218.2 1140.54 1205.56 L 1138.3 1197.22 C 1139.38 1194.56 1137.57 1166.37 1137.73 1160.06 C 1139.02 1109.53 1148.55 1070.33 1172.48 1026.14 C 1187.4 1002.42 1194.9 990.921 1214.18 970.995 C 1220.02 981.248 1223.49 984.041 1232.79 991.428 C 1236.49 995.308 1240.24 999.494 1244.33 1002.92 C 1277.14 1004.04 1287.37 1004.24 1319.66 997.272 z"/>
<path transform="translate(0,0)" fill="rgb(253,197,8)" d="M 1319.66 997.272 C 1342.38 992.549 1382.07 984.148 1401.75 973.096 C 1408.83 969.121 1417.36 961.778 1425.55 960.609 C 1427.39 967.605 1427.03 967.541 1432.28 973.06 C 1433.78 996.451 1460.19 1036.51 1460.84 1049.97 C 1461.26 1056.7 1463.97 1077.27 1466.07 1083.69 L 1465.75 1085.73 C 1463.55 1100.37 1464.67 1113.22 1462.32 1128.6 C 1454.6 1179.18 1438.76 1237.34 1406.99 1278.15 C 1399.53 1291.89 1389.5 1300.74 1381.67 1313.67 C 1372.42 1310.51 1374.75 1312.78 1370.01 1305.8 C 1352.87 1315.79 1340.45 1322.74 1321.86 1330.18 C 1309.87 1334.99 1293.75 1339.89 1282.74 1345.59 L 1280.48 1333.89 C 1282.68 1332.55 1288.51 1326.57 1290.7 1324.46 C 1297.23 1316.84 1300.5 1313.55 1305.29 1304.48 C 1349.09 1230.14 1360.82 1134.96 1337.12 1051.54 C 1331.27 1030.94 1318.09 1017.05 1319.66 997.272 z"/>
<path transform="translate(0,0)" fill="rgb(22,164,65)" d="M 1370.01 1305.8 C 1382.4 1296.66 1394.52 1287.23 1406.99 1278.15 C 1399.53 1291.89 1389.5 1300.74 1381.67 1313.67 C 1372.42 1310.51 1374.75 1312.78 1370.01 1305.8 z"/>
<path transform="translate(0,0)" fill="rgb(182,58,164)" d="M 1214.18 970.995 C 1220.02 981.248 1223.49 984.041 1232.79 991.428 C 1236.49 995.308 1240.24 999.494 1244.33 1002.92 C 1256.97 1020.64 1249.74 1019.15 1242.85 1037.99 C 1219.09 1078.35 1199.12 1135.91 1200.39 1182.94 C 1200.41 1191.3 1200.88 1205.81 1200.28 1213.55 C 1202.78 1230.46 1205.88 1247.22 1208.47 1264.04 C 1210.86 1279.55 1220.73 1303.2 1210.92 1315.69 C 1188.99 1320.52 1189.96 1318.12 1171.3 1307.09 C 1163.66 1298.84 1150.55 1255.22 1148.9 1244.01 C 1145.41 1231.66 1142.97 1218.2 1140.54 1205.56 L 1138.3 1197.22 C 1139.38 1194.56 1137.57 1166.37 1137.73 1160.06 C 1139.02 1109.53 1148.55 1070.33 1172.48 1026.14 C 1187.4 1002.42 1194.9 990.921 1214.18 970.995 z"/>
<path transform="translate(0,0)" fill="rgb(60,77,212)" d="M 1214.18 970.995 C 1220.02 981.248 1223.49 984.041 1232.79 991.428 C 1236.49 995.308 1240.24 999.494 1244.33 1002.92 C 1256.97 1020.64 1249.74 1019.15 1242.85 1037.99 C 1226.84 1030.15 1212.19 1026.87 1194.34 1026.77 C 1185.11 1026.71 1181.34 1029.03 1172.48 1026.14 C 1187.4 1002.42 1194.9 990.921 1214.18 970.995 z"/>
<path transform="translate(0,0)" fill="rgb(151,67,152)" d="M 1200.28 1213.55 C 1199.52 1216.99 1198.58 1220.11 1197.62 1223.51 L 1195.77 1221.78 C 1192.49 1209.63 1189.68 1183.4 1195.59 1172.38 L 1197.69 1173.22 L 1200.39 1182.94 C 1200.41 1191.3 1200.88 1205.81 1200.28 1213.55 z"/>
<path transform="translate(0,0)" fill="rgb(151,67,152)" d="M 1140.54 1205.56 L 1143.74 1198.33 L 1147.41 1197.41 C 1152.23 1203.07 1151.01 1227.03 1152.55 1237.14 C 1151.59 1239.01 1150.02 1242.38 1148.9 1244.01 C 1145.41 1231.66 1142.97 1218.2 1140.54 1205.56 z"/>
<path transform="translate(0,0)" fill="rgb(253,197,8)" d="M 894.538 1745.68 C 922.725 1714.79 970.078 1597.42 974.81 1560.2 C 989.332 1446.02 993.996 1356.22 1078.79 1269.37 C 1096.79 1250.93 1120.15 1218.6 1138.3 1197.22 L 1140.54 1205.56 C 1142.97 1218.2 1145.41 1231.66 1148.9 1244.01 C 1150.55 1255.22 1163.66 1298.84 1171.3 1307.09 C 1172.05 1310.11 1174.13 1318.83 1173.65 1321.46 C 1165.17 1367.55 1144.55 1422.2 1129.3 1466.06 C 1122.81 1483.06 1115.94 1499.92 1108.71 1516.62 C 1090.81 1551.05 1063.92 1596.53 1048.49 1628.61 C 1019.97 1673.01 978.128 1721.62 943.92 1761.59 C 932.68 1759.02 904.112 1751.03 894.538 1745.68 z"/>
<path transform="translate(0,0)" fill="rgb(151,67,152)" d="M 1171.3 1307.09 C 1189.96 1318.12 1188.99 1320.52 1210.92 1315.69 C 1224.54 1318.12 1236.67 1327.93 1247.85 1336.66 C 1261.85 1339.25 1266.61 1335.21 1280.48 1333.89 L 1282.74 1345.59 C 1277.5 1353.37 1276.64 1354.25 1278.14 1364.33 C 1282.57 1369.18 1292.96 1381.28 1297.79 1384.48 L 1289.58 1388.95 C 1249.62 1440.62 1196.55 1485.78 1151.63 1536.44 C 1132.15 1553.13 1062.12 1612.4 1048.49 1628.61 C 1063.92 1596.53 1090.81 1551.05 1108.71 1516.62 C 1115.94 1499.92 1122.81 1483.06 1129.3 1466.06 C 1144.55 1422.2 1165.17 1367.55 1173.65 1321.46 C 1174.13 1318.83 1172.05 1310.11 1171.3 1307.09 z"/>
<path transform="translate(0,0)" fill="rgb(173,164,170)" d="M 1247.85 1336.66 C 1261.85 1339.25 1266.61 1335.21 1280.48 1333.89 L 1282.74 1345.59 C 1277.5 1353.37 1276.64 1354.25 1278.14 1364.33 C 1269.21 1354.96 1257.73 1345.35 1247.85 1336.66 z"/>
<path transform="translate(0,0)" fill="rgb(126,68,145)" d="M 1129.3 1466.06 C 1138.11 1481.27 1121.81 1505.18 1113.82 1520.51 L 1111.13 1521.24 L 1108.71 1516.62 C 1115.94 1499.92 1122.81 1483.06 1129.3 1466.06 z"/>
<path transform="translate(0,0)" fill="rgb(60,77,212)" d="M 1048.49 1628.61 C 1062.12 1612.4 1132.15 1553.13 1151.63 1536.44 C 1112.5 1605.64 1094.43 1648.14 1072.05 1725.36 C 1067.17 1742.17 1056.93 1783.79 1052.14 1797.45 C 1021.16 1787.04 972.343 1773.42 943.92 1761.59 C 978.128 1721.62 1019.97 1673.01 1048.49 1628.61 z"/>
<path transform="translate(0,0)" fill="rgb(22,164,65)" d="M 1297.79 1384.48 C 1303.37 1386.09 1348.16 1425.52 1341.99 1434.69 C 1341.91 1434.9 1341.82 1435.11 1341.74 1435.32 C 1330.74 1420.66 1307.65 1391.84 1289.58 1388.95 L 1297.79 1384.48 z"/>
<path transform="translate(0,0)" fill="rgb(3,150,151)" d="M 2659.72 960.18 C 2672.72 979.03 2734.03 992.726 2756.05 996.535 C 2759.64 997.173 2763.27 997.611 2766.91 997.847 C 2780.94 1000.17 2826.38 1001.97 2833.84 1004.78 C 2843.11 998.854 2844.52 997.877 2851.53 989.464 C 2856.1 984.23 2860.7 979.52 2865.53 974.524 C 2928.73 1029.54 2947.54 1120.57 2941.77 1200.61 C 2954.07 1217.57 2965.85 1234.99 2978.67 1251.44 C 3009.16 1290.55 3042.25 1322.93 3061.66 1369.45 C 3085.47 1426.51 3086.46 1482.54 3093.29 1541.91 C 3100.16 1601.59 3139.65 1702.69 3179.15 1748 C 3174.9 1753.75 3141.79 1762.2 3133.85 1763.56 C 3128.99 1757.91 3125.75 1754.58 3120.3 1749.48 C 3116.36 1752.79 3118.24 1752.44 3114.13 1753.02 C 3111.46 1758.66 3109.91 1762.72 3105.89 1767.59 C 3099.94 1769.5 3091.75 1771.6 3086.87 1775.01 L 3086.34 1777.47 C 3070.04 1784 3043.78 1791.88 3026.44 1796.48 L 3023.75 1785.84 C 3018.06 1787.66 2998.86 1795.46 2997.72 1800.05 L 2995.67 1800.15 C 2993.37 1781.38 2912.77 1693.71 2897.09 1674.73 C 2851.34 1619.35 2721.72 1512.05 2732.39 1437.03 C 2713.84 1397.27 2719.21 1378.96 2714.43 1337.13 C 2713.08 1325.28 2694.91 1298.22 2689.06 1284.58 C 2684.1 1276.33 2668.93 1261.96 2661.26 1248.68 C 2628.81 1192.57 2619.09 1138.51 2619.29 1075.59 C 2620.56 1065.76 2622.08 1058.35 2620.98 1048.47 C 2633.09 1019.66 2643.38 1002.2 2652.87 970.338 L 2659.72 960.18 z"/>
<path transform="translate(0,0)" fill="rgb(231,66,123)" d="M 2659.72 960.18 C 2672.72 979.03 2734.03 992.726 2756.05 996.535 C 2759.64 997.173 2763.27 997.611 2766.91 997.847 C 2780.94 1000.17 2826.38 1001.97 2833.84 1004.78 C 2843.11 998.854 2844.52 997.877 2851.53 989.464 C 2856.1 984.23 2860.7 979.52 2865.53 974.524 C 2928.73 1029.54 2947.54 1120.57 2941.77 1200.61 C 2935.33 1226.2 2930.74 1251.19 2923.12 1276.88 C 2919.2 1290.1 2907.05 1314.44 2905.12 1325.67 L 2903.39 1324.8 C 2889.72 1318.19 2883.7 1323.47 2869.66 1319.3 C 2859.08 1320.82 2843.6 1329.34 2835.44 1335.87 C 2818.85 1336.89 2817.4 1335.38 2801.52 1333.13 L 2796.37 1343.2 C 2803.09 1349.7 2805.25 1351.61 2805.6 1361.74 C 2796.01 1371.57 2792.36 1375.32 2784.43 1386.69 C 2771.89 1395.03 2744.88 1424.58 2732.39 1437.03 C 2713.84 1397.27 2719.21 1378.96 2714.43 1337.13 C 2713.08 1325.28 2694.91 1298.22 2689.06 1284.58 C 2684.1 1276.33 2668.93 1261.96 2661.26 1248.68 C 2628.81 1192.57 2619.09 1138.51 2619.29 1075.59 C 2620.56 1065.76 2622.08 1058.35 2620.98 1048.47 C 2633.09 1019.66 2643.38 1002.2 2652.87 970.338 L 2659.72 960.18 z"/>
<path transform="translate(0,0)" fill="rgb(253,197,8)" d="M 2659.72 960.18 C 2672.72 979.03 2734.03 992.726 2756.05 996.535 C 2759.64 997.173 2763.27 997.611 2766.91 997.847 C 2767.66 1006.33 2740.61 1076.91 2737.02 1099.5 C 2733.47 1135.39 2733.41 1196.38 2748.41 1230.13 C 2751.78 1254.61 2781.33 1318.88 2801.52 1333.13 L 2796.37 1343.2 C 2803.09 1349.7 2805.25 1351.61 2805.6 1361.74 C 2796.01 1371.57 2792.36 1375.32 2784.43 1386.69 C 2771.89 1395.03 2744.88 1424.58 2732.39 1437.03 C 2713.84 1397.27 2719.21 1378.96 2714.43 1337.13 C 2713.08 1325.28 2694.91 1298.22 2689.06 1284.58 C 2684.1 1276.33 2668.93 1261.96 2661.26 1248.68 C 2628.81 1192.57 2619.09 1138.51 2619.29 1075.59 C 2620.56 1065.76 2622.08 1058.35 2620.98 1048.47 C 2633.09 1019.66 2643.38 1002.2 2652.87 970.338 L 2659.72 960.18 z"/>
<path transform="translate(0,0)" fill="rgb(61,162,51)" d="M 2689.06 1284.58 C 2739.15 1323.93 2741.36 1319.8 2796.37 1343.2 C 2803.09 1349.7 2805.25 1351.61 2805.6 1361.74 C 2796.01 1371.57 2792.36 1375.32 2784.43 1386.69 C 2771.89 1395.03 2744.88 1424.58 2732.39 1437.03 C 2713.84 1397.27 2719.21 1378.96 2714.43 1337.13 C 2713.08 1325.28 2694.91 1298.22 2689.06 1284.58 z"/>
<path transform="translate(0,0)" fill="rgb(182,58,164)" d="M 2865.53 974.524 C 2928.73 1029.54 2947.54 1120.57 2941.77 1200.61 C 2935.33 1226.2 2930.74 1251.19 2923.12 1276.88 C 2919.2 1290.1 2907.05 1314.44 2905.12 1325.67 L 2903.39 1324.8 C 2889.72 1318.19 2883.7 1323.47 2869.66 1319.3 C 2864.48 1303.1 2882.66 1243.41 2884.08 1213.71 C 2887.44 1143.34 2874.09 1083.23 2835.02 1023.22 C 2830.81 1016.76 2824.41 1014.32 2822.52 1005.82 C 2828.26 1006.19 2828.04 1005.81 2833.84 1004.78 C 2843.11 998.854 2844.52 997.877 2851.53 989.464 C 2856.1 984.23 2860.7 979.52 2865.53 974.524 z"/>
<path transform="translate(0,0)" fill="rgb(223,99,164)" d="M 2737.02 1099.5 L 2742.6 1097.39 C 2749.55 1124.33 2736.07 1166.81 2747.86 1197.24 C 2750.7 1204.56 2754.11 1223.36 2748.41 1230.13 C 2733.41 1196.38 2733.47 1135.39 2737.02 1099.5 z"/>
<path transform="translate(0,0)" fill="rgb(251,152,5)" d="M 2941.77 1200.61 C 2954.07 1217.57 2965.85 1234.99 2978.67 1251.44 C 3009.16 1290.55 3042.25 1322.93 3061.66 1369.45 C 3085.47 1426.51 3086.46 1482.54 3093.29 1541.91 C 3100.16 1601.59 3139.65 1702.69 3179.15 1748 C 3174.9 1753.75 3141.79 1762.2 3133.85 1763.56 C 3128.99 1757.91 3125.75 1754.58 3120.3 1749.48 C 3088.1 1711.12 3053.36 1671 3027.65 1628 C 2998.97 1572.07 2967.29 1520.91 2946.3 1460.72 C 2937.37 1435.12 2929.26 1409.58 2921.59 1383.58 C 2916.8 1367.31 2911.67 1340.09 2905.12 1325.67 C 2907.05 1314.44 2919.2 1290.1 2923.12 1276.88 C 2930.74 1251.19 2935.33 1226.2 2941.77 1200.61 z"/>
<path transform="translate(0,0)" fill="rgb(118,73,163)" d="M 2835.44 1335.87 C 2843.6 1329.34 2859.08 1320.82 2869.66 1319.3 C 2883.7 1323.47 2889.72 1318.19 2903.39 1324.8 L 2905.12 1325.67 C 2911.67 1340.09 2916.8 1367.31 2921.59 1383.58 C 2929.26 1409.58 2937.37 1435.12 2946.3 1460.72 C 2967.29 1520.91 2998.97 1572.07 3027.65 1628 C 3006.71 1613.33 2991.71 1595.11 2973.14 1577.68 C 2959.26 1564.66 2943.76 1551.42 2928.65 1539.82 C 2915.71 1523.83 2794.89 1392.89 2784.43 1386.69 C 2792.36 1375.32 2796.01 1371.57 2805.6 1361.74 C 2805.25 1351.61 2803.09 1349.7 2796.37 1343.2 L 2801.52 1333.13 C 2817.4 1335.38 2818.85 1336.89 2835.44 1335.87 z"/>
<path transform="translate(0,0)" fill="rgb(173,164,170)" d="M 2801.52 1333.13 C 2817.4 1335.38 2818.85 1336.89 2835.44 1335.87 C 2825.44 1344.4 2815.29 1352.87 2805.6 1361.74 C 2805.25 1351.61 2803.09 1349.7 2796.37 1343.2 L 2801.52 1333.13 z"/>
<path transform="translate(0,0)" fill="rgb(60,77,212)" d="M 2928.65 1539.82 C 2943.76 1551.42 2959.26 1564.66 2973.14 1577.68 C 2991.71 1595.11 3006.71 1613.33 3027.65 1628 C 3053.36 1671 3088.1 1711.12 3120.3 1749.48 C 3116.36 1752.79 3118.24 1752.44 3114.13 1753.02 C 3111.46 1758.66 3109.91 1762.72 3105.89 1767.59 C 3099.94 1769.5 3091.75 1771.6 3086.87 1775.01 L 3086.34 1777.47 C 3070.04 1784 3043.78 1791.88 3026.44 1796.48 L 3023.75 1785.84 C 3012.18 1730.97 2960.11 1587.31 2928.65 1539.82 z"/>
<path transform="translate(0,0)" fill="rgb(199,198,198)" d="M 1827.67 403.368 C 1821.31 403.737 1811.7 404.568 1805.89 401.262 C 1783.1 387.01 1768.42 356.238 1759.53 331.615 C 1753.74 315.572 1750.16 283.964 1772.75 279.326 C 1783.16 277.187 1787.74 285.539 1796.52 287.912 C 1798.93 268.211 1793.07 246.636 1797.46 224.42 C 1805.08 185.762 1834.87 152.492 1867.12 130.36 C 1979.85 53.0001 2179.3 62.0446 2263.81 178.366 C 2288.43 212.26 2286.75 248.807 2278.71 288.126 C 2293.69 280.221 2316.23 273.265 2321.06 297.708 C 2326.11 328.865 2312.05 355.286 2295.97 380.282 C 2280.26 404.716 2276.61 396.408 2254.79 405.517 C 2251.38 412.027 2239.49 436.276 2240.27 443.359 C 2240.82 448.393 2242.32 443.65 2238.57 449.896 C 2231.8 473.167 2226.94 492.468 2221.67 516.119 L 2218.89 522.44 C 2213.34 537.314 2207.59 553.746 2201.35 568.203 C 2187.05 601.966 2160.84 655.74 2140.61 686.243 L 2139.62 687.76 C 2135.63 693.947 2130.18 702.996 2125.64 708.444 C 2123.93 710.577 2117.3 719.155 2115.7 720.428 C 2111.86 724.991 2106.55 731.721 2102.42 735.631 C 2085.07 744.803 2075.03 758.371 2052.59 758.413 C 2050.9 765.414 2050.33 767.065 2047.6 773.75 L 2041.95 779.017 L 2036.68 777.861 C 2030.98 769.922 2028.13 767.507 2031.89 757.996 C 2033.39 753.266 2032.92 754.155 2033.03 748.974 C 2016.73 723.238 1929.13 533.926 1925.5 510.335 C 1917.76 500.751 1868.03 473.585 1857.46 454.578 C 1855.55 451.134 1853.17 449.125 1849.96 447.127 L 1847.43 451.816 C 1847.38 451.682 1847.32 451.548 1847.26 451.414 C 1844.24 436.454 1834.05 419.187 1827.67 403.368 z"/>
<path transform="translate(0,0)" fill="rgb(4,162,106)" d="M 2154.12 514.748 C 2161.66 504.151 2198 483.519 2210.16 471.861 C 2215.19 467.031 2233.15 447.95 2236.61 446.572 L 2238.57 449.896 C 2231.8 473.167 2226.94 492.468 2221.67 516.119 L 2218.89 522.44 C 2213.34 537.314 2207.59 553.746 2201.35 568.203 C 2187.05 601.966 2160.84 655.74 2140.61 686.243 L 2139.62 687.76 C 2135.63 693.947 2130.18 702.996 2125.64 708.444 C 2123.93 710.577 2117.3 719.155 2115.7 720.428 C 2111.86 724.991 2106.55 731.721 2102.42 735.631 C 2085.07 744.803 2075.03 758.371 2052.59 758.413 C 2050.9 765.414 2050.33 767.065 2047.6 773.75 L 2041.95 779.017 L 2036.68 777.861 C 2030.98 769.922 2028.13 767.507 2031.89 757.996 C 2033.39 753.266 2032.92 754.155 2033.03 748.974 C 2016.73 723.238 1929.13 533.926 1925.5 510.335 C 1987.48 545.54 2031.73 550.049 2103.87 534.682 C 2118.14 531.642 2144.31 515.529 2154.12 514.748 z"/>
<path transform="translate(0,0)" fill="rgb(231,66,123)" d="M 2154.12 514.748 C 2161.66 504.151 2198 483.519 2210.16 471.861 C 2215.19 467.031 2233.15 447.95 2236.61 446.572 L 2238.57 449.896 C 2231.8 473.167 2226.94 492.468 2221.67 516.119 L 2218.89 522.44 C 2213.34 537.314 2207.59 553.746 2201.35 568.203 C 2187.05 601.966 2160.84 655.74 2140.61 686.243 L 2139.62 687.76 C 2135.63 693.947 2130.18 702.996 2125.64 708.444 C 2123.93 710.577 2117.3 719.155 2115.7 720.428 C 2111.86 724.991 2106.55 731.721 2102.42 735.631 C 2085.07 744.803 2075.03 758.371 2052.59 758.413 L 2057.29 741.872 C 2086.11 690.788 2106.29 634.919 2126.95 580.205 C 2135.21 558.33 2146.44 536.811 2154.12 514.748 z"/>
<path transform="translate(0,0)" fill="rgb(206,26,94)" d="M 2115.7 720.428 C 2111.29 718.397 2111.87 719.098 2106.97 719.563 C 2106.7 715.861 2112.34 706.029 2114.41 702.013 L 2118.44 701.5 L 2125.64 708.444 C 2123.93 710.577 2117.3 719.155 2115.7 720.428 z"/>
<path transform="translate(0,0)" fill="rgb(164,164,162)" d="M 2057.29 741.872 L 2052.59 758.413 C 2050.9 765.414 2050.33 767.065 2047.6 773.75 L 2041.95 779.017 L 2036.68 777.861 C 2030.98 769.922 2028.13 767.507 2031.89 757.996 C 2033.39 753.266 2032.92 754.155 2033.03 748.974 C 2037.38 754.047 2037.73 755.618 2044.13 757.155 C 2050.94 753.894 2052.56 748.937 2057.29 741.872 z"/>
<path transform="translate(0,0)" fill="rgb(110,177,224)" d="M 2620.98 1048.47 C 2622.08 1058.35 2620.56 1065.76 2619.29 1075.59 C 2598.82 1157.14 2538.21 1264.31 2490.17 1333.75 C 2490.14 1345.56 2489.96 1357.38 2489.62 1369.19 C 2491.94 1429.34 2518.21 1477.39 2490.98 1536.16 C 2474.96 1568.86 2454.51 1583.89 2425.51 1604.28 C 2409.62 1611.65 2386.11 1621.3 2371.62 1629.22 C 2367.16 1636.58 2358.86 1641.32 2352.35 1647.25 C 2303.16 1692.11 2255.34 1746.49 2222.47 1804.55 C 2216.81 1814.55 2215.7 1826.94 2211.6 1837.26 C 2211.99 1830.1 2213.91 1819.8 2215.04 1812.46 C 2198.23 1818.75 2155.36 1836.34 2139.42 1832.9 C 2201.57 1798.1 2277.66 1620.48 2258.83 1545.12 C 2256.7 1536.6 2249.03 1533.64 2241.61 1530.77 C 2279.9 1524.9 2281.49 1501.52 2292.79 1468.25 C 2297.08 1451.54 2297.87 1441.32 2297.97 1424.42 C 2293.19 1395.76 2283.5 1397.71 2259.63 1386.33 C 2279.19 1381.36 2292.18 1377.79 2297.97 1355.65 C 2309.15 1312.93 2312.89 1269.32 2263.52 1253.27 C 2273.61 1250.46 2292.84 1250.66 2297.62 1239.1 C 2307.51 1215.17 2311.49 1164.06 2305.68 1139.7 C 2306.46 1124.62 2325.83 1104.6 2339.01 1098.38 L 2358.63 1097.23 L 2352.22 1103.42 C 2352.38 1129.42 2421.96 1136.67 2442.14 1135.62 C 2456.47 1134.87 2473.61 1130.22 2488.12 1127.9 C 2512.48 1123.01 2557.18 1098.78 2577.13 1082.5 C 2588.23 1073.45 2600.28 1061.46 2612.22 1053.98 L 2618.29 1050.15 L 2620.98 1048.47 z"/>
<path transform="translate(0,0)" fill="rgb(3,129,142)" d="M 2483.64 1338.11 L 2487.11 1339.95 L 2487.22 1341.32 C 2487.47 1350.46 2487.1 1360.57 2489.62 1369.19 C 2491.94 1429.34 2518.21 1477.39 2490.98 1536.16 C 2474.96 1568.86 2454.51 1583.89 2425.51 1604.28 C 2409.62 1611.65 2386.11 1621.3 2371.62 1629.22 C 2259.21 1669.53 2291.12 1627.91 2300 1543.79 C 2301.07 1533.72 2308.89 1476.13 2313.93 1471.18 C 2338.19 1447.38 2374.81 1431.34 2402.84 1411.15 C 2426.65 1394.31 2448.57 1374.93 2468.19 1353.35 C 2472.76 1348.29 2478.67 1342.9 2483.64 1338.11 z"/>
<path transform="translate(0,0)" fill="rgb(4,110,129)" d="M 2483.64 1338.11 L 2487.11 1339.95 L 2487.22 1341.32 C 2486.41 1352.62 2485.92 1363.94 2485.76 1375.27 C 2487.02 1376.4 2468.97 1354.37 2468.19 1353.35 C 2472.76 1348.29 2478.67 1342.9 2483.64 1338.11 z"/>
<path transform="translate(0,0)" fill="rgb(3,142,181)" d="M 2620.98 1048.47 C 2622.08 1058.35 2620.56 1065.76 2619.29 1075.59 C 2598.82 1157.14 2538.21 1264.31 2490.17 1333.75 C 2490.14 1345.56 2489.96 1357.38 2489.62 1369.19 C 2487.1 1360.57 2487.47 1350.46 2487.22 1341.32 L 2487.11 1339.95 L 2483.64 1338.11 C 2464.83 1338.66 2446.01 1338.96 2427.2 1339 C 2442.76 1322.51 2467.61 1288.39 2482.67 1269.2 C 2465.79 1268.61 2447.2 1269.01 2430.17 1269.02 L 2485.5 1200.03 C 2467.94 1200.05 2449.52 1197.14 2432.02 1194.87 C 2444.94 1178.13 2473.01 1140.72 2488.12 1127.9 C 2512.48 1123.01 2557.18 1098.78 2577.13 1082.5 C 2588.23 1073.45 2600.28 1061.46 2612.22 1053.98 L 2618.29 1050.15 L 2620.98 1048.47 z"/>
<path transform="translate(0,0)" fill="rgb(100,181,228)" d="M 2297.97 1424.42 L 2298.95 1412.12 L 2301.4 1410.32 C 2309.25 1418.33 2310.19 1460.08 2296.96 1469.68 L 2292.79 1468.25 C 2297.08 1451.54 2297.87 1441.32 2297.97 1424.42 z"/>
<path transform="translate(0,0)" fill="rgb(199,198,198)" d="M 3179.15 1748 C 3182.19 1751.31 3181.31 1750.04 3183.92 1754.13 C 3220.18 1811.06 3289.1 1818.73 3339.97 1850.02 C 3364.93 1865.38 3436.49 1936.47 3468.02 1956.53 C 3470.56 1958.14 3471.67 1964.78 3471.94 1967.99 C 3462.53 1994.08 3398.11 1984.15 3381.55 1971.48 C 3358.61 1953.93 3327.55 1940.83 3305.38 1924.08 C 3312.85 1956.04 3315.83 1987.47 3325.84 2018.75 C 3330.33 2032.8 3335.06 2046.35 3339.75 2061.13 C 3347.6 2087.35 3369.79 2124.01 3355.7 2150.96 C 3349.83 2162.18 3323.61 2163.75 3315.67 2153.85 C 3295.28 2128.42 3279.57 2089.88 3265.1 2060.42 L 3261.15 2069.13 C 3267.81 2086.99 3272.04 2107.26 3276.76 2125.79 C 3282.41 2148.01 3295.83 2188.25 3264.92 2197.98 C 3254.9 2201.12 3244.02 2199.77 3235.07 2194.29 C 3213.78 2181.43 3202.17 2124.07 3193.71 2100.59 L 3190.86 2102.16 C 3190.52 2106.97 3190.23 2111.79 3190.01 2116.61 C 3196.49 2130.87 3204.36 2161.76 3194.12 2172.34 C 3152.06 2215.8 3133.58 2150.42 3126.87 2121.43 C 3120.29 2092.98 3110.6 2075.69 3105.63 2050.05 C 3096.69 2067.73 3112.38 2081.04 3099.31 2112.62 C 3097.87 2116.76 3095.52 2122.74 3094.78 2126.63 C 3092.52 2138.63 3070.17 2144.39 3061.1 2138.24 C 3027.16 2115.27 3040.79 2033.83 3025.79 2001.15 C 2995.76 1935.72 2970.31 1906.84 3004.5 1835.49 C 3001.59 1824.94 2997.13 1810.68 2995.67 1800.15 L 2997.72 1800.05 C 2998.86 1795.46 3018.06 1787.66 3023.75 1785.84 L 3026.44 1796.48 C 3043.78 1791.88 3070.04 1784 3086.34 1777.47 L 3086.87 1775.01 C 3091.75 1771.6 3099.94 1769.5 3105.89 1767.59 C 3109.91 1762.72 3111.46 1758.66 3114.13 1753.02 C 3118.24 1752.44 3116.36 1752.79 3120.3 1749.48 C 3125.75 1754.58 3128.99 1757.91 3133.85 1763.56 C 3141.79 1762.2 3174.9 1753.75 3179.15 1748 z"/>
<path transform="translate(0,0)" fill="rgb(78,92,199)" d="M 3120.3 1749.48 C 3125.75 1754.58 3128.99 1757.91 3133.85 1763.56 C 3122.78 1767.65 3097.28 1776.09 3086.34 1777.47 L 3086.87 1775.01 C 3091.75 1771.6 3099.94 1769.5 3105.89 1767.59 C 3109.91 1762.72 3111.46 1758.66 3114.13 1753.02 C 3118.24 1752.44 3116.36 1752.79 3120.3 1749.48 z"/>
<path transform="translate(0,0)" fill="rgb(220,218,211)" d="M 3190.01 2116.61 C 3186.23 2098.67 3178.75 2069.93 3177.5 2052.85 L 3178.93 2052.61 C 3185.02 2066.27 3190.66 2085.88 3193.71 2100.59 L 3190.86 2102.16 C 3190.52 2106.97 3190.23 2111.79 3190.01 2116.61 z"/>
<path transform="translate(0,0)" fill="rgb(4,162,106)" d="M 2997.72 1800.05 C 2998.86 1795.46 3018.06 1787.66 3023.75 1785.84 L 3026.44 1796.48 C 3018.98 1800.01 3009 1805.71 3001.18 1805.94 C 2997.7 1802.34 2998.72 1804.37 2997.72 1800.05 z"/>
<path transform="translate(0,0)" fill="rgb(220,218,211)" d="M 3099.31 2112.62 C 3102.35 2085.72 3098.5 2060.81 3101.24 2039.57 L 3102.97 2038.31 L 3102.97 2041.1 C 3106.59 2044.59 3104.98 2042.86 3105.63 2050.05 C 3096.69 2067.73 3112.38 2081.04 3099.31 2112.62 z"/>
<path transform="translate(0,0)" fill="rgb(220,218,211)" d="M 3261.15 2069.13 C 3258.04 2061.04 3251.73 2045.63 3251.21 2037.62 L 3255.45 2037.93 L 3251.22 2039.86 L 3251.32 2040.97 L 3257.42 2041.38 C 3260.21 2047.63 3262.77 2053.98 3265.1 2060.42 L 3261.15 2069.13 z"/>
<path transform="translate(0,0)" fill="rgb(199,198,198)" d="M 773.755 1923.11 C 755.253 1939.44 738.866 1941.58 722.942 1953.08 C 687.781 1978.5 664.88 1991.58 620.085 1981.34 C 612.869 1979.69 607.775 1976.91 603.973 1969.97 C 601.528 1950.38 622.707 1946.94 640.742 1933.45 C 670.324 1911.33 710.553 1865.96 739.809 1848.1 C 772.815 1827.96 827.175 1812.41 859.977 1790.51 C 870.126 1783.74 888.176 1757.07 894.538 1745.68 C 904.112 1751.03 932.68 1759.02 943.92 1761.59 C 972.343 1773.42 1021.16 1787.04 1052.14 1797.45 C 1060.05 1802.01 1065.07 1805.67 1074.04 1807.44 C 1077.01 1806.29 1077.56 1806.52 1079.73 1804.55 C 1079.62 1806.66 1074.06 1834.2 1073.23 1839.21 C 1105.36 1899.92 1083.99 1938.91 1053.72 1995.6 C 1039.92 2021.43 1048.4 2115.12 1017.63 2137.33 C 961.993 2157.57 981.354 2054.48 978.657 2028.58 C 970.917 2059.42 963.507 2082.04 952.636 2111.91 C 947.855 2125.04 945.355 2149.46 939.07 2162.5 C 936.156 2168.68 931.546 2173.9 925.777 2177.56 C 897.226 2195.63 870.957 2179.7 878.844 2145.44 C 884.312 2121.69 889.033 2097.36 895.703 2073.86 C 897.083 2069.02 898.566 2064.22 900.15 2059.44 L 896.962 2052.54 C 893.917 2067.91 885.111 2088.93 879.897 2105.77 C 869.796 2138.39 859.363 2213.32 809.596 2197.56 C 799.658 2194.42 794.836 2182.94 790.73 2174.04 C 794.924 2159.08 822.258 2049.47 819.656 2041.78 C 810.314 2069.22 797.967 2089.44 784.823 2118.24 C 774.645 2140.54 751.158 2184.54 721.28 2147.59 C 710.986 2126.99 731.034 2082.71 737.203 2062.93 C 752.178 2014.9 763.619 1971.46 773.755 1923.11 z"/>
<path transform="translate(0,0)" fill="rgb(220,218,211)" d="M 896.962 2052.54 C 898.89 2045.23 897.871 2043.91 902.546 2039.72 C 906.448 2047.35 903.261 2051.91 900.15 2059.44 L 896.962 2052.54 z"/>
<path transform="translate(0,0)" fill="rgb(199,198,198)" d="M 2318.09 3390.72 C 2320.95 3396.02 2320.34 3408.08 2320.48 3414.73 C 2320.01 3426.21 2317.88 3445.09 2320.74 3454.99 C 2326.9 3460.82 2328.54 3458.26 2335.43 3453.93 C 2351.13 3473.46 2384.6 3481.08 2406.39 3468 C 2418.7 3483.74 2451.7 3493.47 2467.06 3477.48 C 2472.12 3472.21 2470.84 3461.82 2470.74 3454.71 C 2471.72 3461.93 2470.94 3480.01 2476.99 3481.88 C 2520.94 3495.42 2508.28 3471.5 2514.34 3453.73 C 2515.04 3464.25 2512.98 3480.71 2515.49 3489.85 C 2529.04 3532.01 2538 3542.76 2536.2 3586.29 C 2544.47 3633.85 2607.4 3698.13 2641.43 3726.09 C 2667.75 3747.72 2732.79 3775.8 2732.91 3813.36 C 2725.96 3826.68 2715.7 3823.46 2702.96 3827.81 C 2703.02 3827.79 2693.95 3840.13 2689.42 3842.78 C 2680.23 3848.16 2670.06 3844.12 2660.94 3846.37 C 2654.9 3847.86 2647.57 3857.07 2639.59 3859.28 C 2628.2 3862.44 2618.32 3858.25 2607.11 3859.53 C 2602.16 3860.1 2591.43 3868.04 2587.16 3869.18 C 2554.56 3877.83 2526.79 3859.75 2501.34 3850.32 C 2488.48 3879.34 2464.6 3875.74 2436.64 3874.7 C 2405.85 3877.87 2342.76 3833 2338.25 3803.3 C 2330.24 3750.55 2326.25 3752.31 2291.01 3718.97 C 2266.44 3695.72 2294.22 3612.52 2298.22 3585.09 C 2300.55 3569.07 2284.75 3534.02 2292.42 3515.83 C 2298.56 3492.74 2313.03 3479.02 2316.42 3458.95 C 2319.72 3439.42 2315.31 3410.69 2318.09 3390.72 z"/>
<path transform="translate(0,0)" fill="rgb(199,198,198)" d="M 1760.07 3425.64 C 1760.9 3438.66 1760.68 3448.86 1759.43 3461.92 C 1785.96 3516.27 1792.39 3521.8 1773.67 3586.21 C 1782.28 3615.98 1805.99 3697.05 1785.18 3717.69 C 1750.06 3752.52 1745.15 3756.55 1735.77 3809.73 C 1731.54 3833.68 1680.13 3870.56 1654.96 3872.87 C 1637.21 3876.33 1608.13 3878.78 1591.03 3870.63 C 1585.84 3868.16 1578.21 3856.49 1574.7 3851.36 C 1534.08 3870.45 1502.37 3880.73 1466.89 3858.51 C 1464.85 3857.23 1442.35 3860.27 1438.32 3859.29 C 1421.37 3853.75 1403.08 3845.41 1384.66 3842.09 C 1380.36 3841.31 1373.8 3830.69 1371.35 3827.13 C 1361.54 3824.68 1354.3 3825.42 1347.69 3819.56 C 1326.75 3778.39 1422.33 3741.91 1444.13 3719.82 C 1478.04 3685.46 1513.7 3646.42 1535.52 3603.01 C 1544.19 3585.35 1536.86 3559.39 1539.93 3545.38 C 1545.09 3521.8 1554.52 3506.85 1560.08 3481.37 C 1562.84 3482.33 1565.63 3483.21 1568.45 3483.99 C 1582.05 3487.65 1591.17 3485.2 1602.84 3478.37 C 1622.57 3487.55 1655.76 3486.83 1670.95 3468.89 C 1692.63 3481.16 1725.82 3472.4 1742.3 3454.59 C 1748.18 3458.22 1749.47 3459.23 1755.08 3456.5 C 1758.19 3450.22 1758.26 3435.33 1760.07 3425.64 z"/>
<path transform="translate(0,0)" fill="rgb(164,164,162)" d="M 1974.66 2070.28 C 2027.56 2095.47 2053.36 2094.74 2105.56 2070.2 C 2065.83 2117.99 2071.11 2132.71 2072.34 2186.87 C 2066.75 2169.93 2062.76 2083.97 2036.62 2090.1 C 2023.97 2101.18 2024.84 2111.23 2019 2124.81 C 2010.26 2145.14 2014.12 2163.65 2007.62 2183.15 C 2009.39 2131.55 2012.97 2112.2 1974.66 2070.28 z"/>
</svg>