<svg version="1.1" xmlns="http://www.w3.org/2000/svg" style="display: block;" viewBox="0 0 4096 4096" width="2730" height="4096" preserveAspectRatio="none">
<path transform="translate(0,0)" fill="rgb(254,254,254)" d="M 0 0 L 4096 0 L 4096 4096 L 0 4096 L 0 0 z"/>
<path transform="translate(0,0)" fill="rgb(253,183,2)" d="M 1797.66 316.083 C 1787.44 264.322 1784.93 218.778 1815.33 173.013 C 1852.03 117.765 1917.61 91.0786 1979.01 77.8819 C 2110.13 49.7018 2322.3 114.09 2292.82 283.013 C 2291.37 291.31 2289.33 306.301 2290.64 314.289 C 2305.51 310.486 2341.55 296.566 2343.4 324.627 C 2345.56 357.166 2320.13 402.624 2302.45 429.086 C 2292.16 444.486 2279.42 441.181 2263.75 439.836 C 2249.2 468.559 2249.8 526.631 2246.19 556.811 C 2276.24 589.358 2304.09 604.629 2343.52 625.128 C 2433.21 665.122 2490.89 688.171 2588.91 701.819 C 2685.8 708.516 2764.52 715.738 2833.59 793.585 C 2885.26 851.814 2905.4 921.816 2898.76 998.736 C 2897.81 1009.69 2896.24 1027.75 2891.9 1037.61 C 2872.81 1024.39 2865.94 1019.55 2844.02 1010.77 C 2831.84 1005.89 2809.61 1003.77 2805.63 998.239 C 2802.65 998.839 2801.68 999.416 2798.88 999.029 C 2742.95 993.896 2700.9 981.474 2646.77 968.371 L 2648.81 1016.56 C 2648.73 1042.13 2646.52 1055.18 2643.76 1080.11 L 2642.39 1079.84 L 2641.9 1092.44 L 2639.52 1100.75 C 2636.26 1115.11 2633.47 1129.38 2630.44 1143.76 L 2623.02 1163.34 L 2622.25 1164.67 C 2619.43 1174.8 2617.21 1182.25 2613.49 1192.25 C 2592.79 1246.84 2572.13 1299.87 2540.89 1349.51 C 2538.55 1353.24 2522.2 1381.12 2521.42 1381.93 L 2517.21 1380.8 C 2427.09 1453.49 2343.98 1500.84 2239.27 1552.61 C 2235.74 1551.73 2227.7 1555.14 2223.8 1556.54 L 2221.3 1557.47 C 2214.71 1553.84 2215.96 1553.16 2211.49 1545.47 C 2216.51 1574.5 2195.61 1602.38 2185.7 1634 C 2170.27 1684.45 2169.02 1738.18 2182.1 1789.29 L 2160.73 1809.06 C 2154.7 1813.49 2154.77 1813.65 2150.35 1819.2 L 2148.49 1822.21 C 2143.33 1830.41 2133.84 1839.4 2127.49 1848.95 C 2102.4 1886.72 2089.72 1916.19 2078.99 1959.78 C 2064.69 2027.33 2063.47 2037.02 2070.91 2103.54 C 2071.92 2117.51 2072.12 2125.72 2075.98 2139.21 C 2067.89 2132.97 2053.18 2124.94 2042.78 2117.67 C 2033.78 2122.83 2010.64 2134.83 2005.46 2142.63 C 2000.56 2159.06 1990.22 2184.66 1978.75 2197.33 C 1959.34 2220.01 1945.52 2236.63 1919.3 2253.31 C 1911.09 2258.53 1888.68 2269.4 1883.88 2274.31 C 1875.04 2275.69 1853.41 2286.47 1841.57 2290.24 C 1796.33 2303.54 1762 2310.77 1714.08 2313.14 C 1652.73 2317.4 1597.75 2308.11 1543.67 2278.93 L 1540.75 2278.35 C 1539.2 2274.94 1524.03 2259 1519.74 2253.43 C 1503.83 2232.83 1494.59 2216.48 1484.37 2192.68 C 1467.49 2164.77 1456.45 2085.39 1459.6 2052.6 L 1459.93 2034.17 C 1461.11 1965.48 1479.84 1901.72 1515.13 1842.38 C 1521.33 1831.94 1536.96 1813.85 1544.85 1802.72 C 1545.02 1797.92 1560.45 1752.64 1562.01 1740.92 C 1565.7 1713.23 1563.82 1676.99 1568.52 1650.99 C 1586.81 1549.63 1619.1 1532.16 1588.83 1429.75 C 1584.31 1421.77 1572.02 1391.79 1566.43 1380.22 C 1554.63 1372.96 1487.85 1234.75 1484.51 1215.8 C 1478.67 1206.23 1469.38 1175.88 1465.97 1164.82 L 1457.2 1143.14 C 1453.76 1137.21 1446.46 1102.48 1444.89 1094.99 L 1442.73 1078.28 C 1433.47 1050.63 1439.01 1002.06 1444.57 973.787 C 1432.82 974.497 1414.92 979.787 1403.04 982.886 C 1365.19 992.759 1327.63 996.045 1289.12 1001.32 L 1285.58 1001.37 L 1282.48 997.976 C 1281.35 999.51 1280.22 1001.04 1279.1 1002.58 C 1247.83 1011.43 1221.86 1019.89 1195.15 1039.19 C 1163.57 947.509 1203.76 838.691 1274.01 776.21 C 1343.72 714.209 1411.13 709.496 1499.05 702.789 L 1528.71 698.254 C 1579.48 689.173 1629.11 674.593 1676.72 654.773 C 1699.7 645.203 1722.74 633.45 1745.83 624.755 C 1784.06 603.858 1809.51 587.805 1840.21 557.162 C 1837.61 524.051 1829.36 469.608 1816.26 439.203 C 1808.88 440.37 1792.28 444.889 1786.67 439.11 C 1771.24 423.187 1761.94 394.629 1752.83 375.266 C 1733.23 333.627 1739.87 285.374 1797.66 316.083 z"/>
<path transform="translate(0,0)" fill="rgb(253,183,2)" d="M 2343.52 625.128 C 2433.21 665.122 2490.89 688.171 2588.91 701.819 C 2685.8 708.516 2764.52 715.738 2833.59 793.585 C 2885.26 851.814 2905.4 921.816 2898.76 998.736 C 2897.81 1009.69 2896.24 1027.75 2891.9 1037.61 C 2872.81 1024.39 2865.94 1019.55 2844.02 1010.77 C 2831.84 1005.89 2809.61 1003.77 2805.63 998.239 C 2802.65 998.839 2801.68 999.416 2798.88 999.029 C 2742.95 993.896 2700.9 981.474 2646.77 968.371 L 2648.81 1016.56 C 2648.73 1042.13 2646.52 1055.18 2643.76 1080.11 L 2642.39 1079.84 L 2641.9 1092.44 L 2639.52 1100.75 C 2636.26 1115.11 2633.47 1129.38 2630.44 1143.76 L 2623.02 1163.34 L 2622.25 1164.67 C 2619.43 1174.8 2617.21 1182.25 2613.49 1192.25 C 2592.79 1246.84 2572.13 1299.87 2540.89 1349.51 C 2538.55 1353.24 2522.2 1381.12 2521.42 1381.93 L 2517.21 1380.8 C 2427.09 1453.49 2343.98 1500.84 2239.27 1552.61 C 2235.74 1551.73 2227.7 1555.14 2223.8 1556.54 L 2221.3 1557.47 C 2214.71 1553.84 2215.96 1553.16 2211.49 1545.47 C 2201.63 1480.1 2194.5 1414.35 2190.12 1348.38 C 2188.67 1338.24 2187.34 1328.08 2186.13 1317.91 C 2186.27 1308.86 2185.15 1299.02 2184.38 1289.94 C 2183.79 1264.64 2178.95 1241.43 2179.74 1214.16 C 2175.55 1184.36 2175.34 1129.39 2174.56 1097.67 L 2174.35 1083.26 L 2174.53 1047.94 C 2151.32 1067.97 2127.93 1093.24 2104.54 1113.98 L 2101.49 1113.2 C 2098.89 1108.47 2101.75 1072.25 2102.06 1064.08 C 2103.51 1023.7 2104.05 983.304 2103.67 942.908 C 2103.44 920.964 2101.58 893.046 2102.85 871.961 C 2099.74 813.023 2094.4 753.452 2091.49 695.92 L 2093.78 704.422 L 2096.89 705.98 C 2106.76 702.587 2114.29 690.882 2125.37 683.387 C 2151.59 665.32 2180.41 651.367 2210.85 642.013 C 2234.59 634.843 2258.97 630.024 2283.65 627.627 C 2296.93 626.244 2337.44 627.826 2343.52 625.128 z"/>
<path transform="translate(0,0)" fill="rgb(1,170,152)" d="M 2490.24 899.831 C 2526.32 921.087 2556.83 937.233 2596.52 951.471 C 2613.3 957.491 2630.46 962.268 2646.77 968.371 L 2648.81 1016.56 C 2648.73 1042.13 2646.52 1055.18 2643.76 1080.11 L 2642.39 1079.84 L 2641.9 1092.44 L 2639.52 1100.75 C 2636.26 1115.11 2633.47 1129.38 2630.44 1143.76 L 2623.02 1163.34 L 2622.25 1164.67 C 2619.43 1174.8 2617.21 1182.25 2613.49 1192.25 C 2592.79 1246.84 2572.13 1299.87 2540.89 1349.51 C 2538.55 1353.24 2522.2 1381.12 2521.42 1381.93 L 2517.21 1380.8 C 2427.09 1453.49 2343.98 1500.84 2239.27 1552.61 C 2235.74 1551.73 2227.7 1555.14 2223.8 1556.54 L 2221.3 1557.47 C 2214.71 1553.84 2215.96 1553.16 2211.49 1545.47 C 2201.63 1480.1 2194.5 1414.35 2190.12 1348.38 C 2188.67 1338.24 2187.34 1328.08 2186.13 1317.91 C 2186.27 1308.86 2185.15 1299.02 2184.38 1289.94 C 2183.79 1264.64 2178.95 1241.43 2179.74 1214.16 C 2220.13 1191.91 2289.4 1118.43 2325.4 1087.29 C 2332.35 1078.2 2343.27 1067.31 2351.25 1058.7 C 2399.13 1007.1 2443.17 952.146 2490.24 899.831 z"/>
<path transform="translate(0,0)" fill="rgb(3,171,191)" d="M 2585.08 1191.78 C 2598.78 1190.08 2600.03 1189.24 2613.49 1192.25 C 2592.79 1246.84 2572.13 1299.87 2540.89 1349.51 C 2538.55 1353.24 2522.2 1381.12 2521.42 1381.93 L 2517.21 1380.8 C 2427.09 1453.49 2343.98 1500.84 2239.27 1552.61 C 2235.74 1551.73 2227.7 1555.14 2223.8 1556.54 L 2221.3 1557.47 C 2214.71 1553.84 2215.96 1553.16 2211.49 1545.47 C 2201.63 1480.1 2194.5 1414.35 2190.12 1348.38 C 2214.26 1348.17 2250.01 1337.78 2273.47 1330.91 C 2383.41 1298.74 2489.39 1255.08 2585.08 1191.78 z"/>
<path transform="translate(0,0)" fill="rgb(2,128,76)" d="M 2490.24 899.831 C 2526.32 921.087 2556.83 937.233 2596.52 951.471 C 2613.3 957.491 2630.46 962.268 2646.77 968.371 L 2648.81 1016.56 C 2648.73 1042.13 2646.52 1055.18 2643.76 1080.11 L 2642.39 1079.84 C 2620.71 1083.88 2599.61 1089.94 2577.79 1093.21 C 2502.65 1104.47 2398.27 1107.34 2325.4 1087.29 C 2332.35 1078.2 2343.27 1067.31 2351.25 1058.7 C 2399.13 1007.1 2443.17 952.146 2490.24 899.831 z"/>
<path transform="translate(0,0)" fill="rgb(47,162,207)" d="M 2585.08 1191.78 C 2596.33 1180.84 2609.03 1172.94 2622.25 1164.67 C 2619.43 1174.8 2617.21 1182.25 2613.49 1192.25 C 2600.03 1189.24 2598.78 1190.08 2585.08 1191.78 z"/>
<path transform="translate(0,0)" fill="rgb(253,88,16)" d="M 2343.52 625.128 C 2433.21 665.122 2490.89 688.171 2588.91 701.819 C 2554.85 719.172 2536.18 720.012 2497.73 745.953 C 2379.21 749.377 2263.18 780.742 2159.07 837.495 C 2144.59 845.438 2115.49 862.174 2102.85 871.961 C 2099.74 813.023 2094.4 753.452 2091.49 695.92 L 2093.78 704.422 L 2096.89 705.98 C 2106.76 702.587 2114.29 690.882 2125.37 683.387 C 2151.59 665.32 2180.41 651.367 2210.85 642.013 C 2234.59 634.843 2258.97 630.024 2283.65 627.627 C 2296.93 626.244 2337.44 627.826 2343.52 625.128 z"/>
<path transform="translate(0,0)" fill="rgb(64,162,42)" d="M 2174.53 1047.94 C 2191.18 1034.05 2212.15 1011.21 2228.68 995.706 C 2290.39 937.844 2356.04 862.718 2420.95 809.806 C 2428.02 832.336 2433.93 846.741 2450.33 864.609 L 2467.47 881.385 C 2473.31 885.751 2486.17 894.67 2490.24 899.831 C 2443.17 952.146 2399.13 1007.1 2351.25 1058.7 C 2343.27 1067.31 2332.35 1078.2 2325.4 1087.29 C 2289.4 1118.43 2220.13 1191.91 2179.74 1214.16 C 2175.55 1184.36 2175.34 1129.39 2174.56 1097.67 L 2174.35 1083.26 L 2174.53 1047.94 z"/>
<path transform="translate(0,0)" fill="rgb(111,44,170)" d="M 2479.69 759.029 C 2510.11 774.268 2634.87 824.413 2656.45 844.417 C 2674.15 853.782 2697.95 869.159 2713.62 881.783 C 2752.62 908.01 2794.23 951.143 2805.63 998.239 C 2802.65 998.839 2801.68 999.416 2798.88 999.029 C 2742.95 993.896 2700.9 981.474 2646.77 968.371 C 2630.46 962.268 2613.3 957.491 2596.52 951.471 C 2556.83 937.233 2526.32 921.087 2490.24 899.831 C 2486.17 894.67 2473.31 885.751 2467.47 881.385 L 2450.33 864.609 C 2433.93 846.741 2428.02 832.336 2420.95 809.806 C 2435.44 793.709 2462.75 773.639 2479.69 759.029 z"/>
<path transform="translate(0,0)" fill="rgb(134,49,155)" d="M 2656.45 844.417 C 2674.15 853.782 2697.95 869.159 2713.62 881.783 C 2702.5 886.508 2691.98 874.843 2682.02 868.846 C 2671.66 862.605 2660.05 859.399 2654.39 848.908 L 2656.45 844.417 z"/>
<path transform="translate(0,0)" fill="rgb(64,162,42)" d="M 1566.43 1380.22 C 1576.02 1382.5 1589.55 1398.36 1600.15 1406.56 C 1660.7 1449.55 1779.02 1527.03 1848.15 1551.66 C 1859.5 1553.41 1862.25 1555.48 1872.28 1560.69 C 1873.09 1552.77 1873.34 1542.77 1877.48 1536.66 C 1877.05 1548.57 1876.41 1553.09 1874.31 1564.74 C 1888.17 1591.46 1913 1643.18 1912.11 1674.09 C 1917.06 1699.47 1914.2 1724.22 1912.33 1749.91 C 1910.88 1763.19 1908.67 1778.6 1907.59 1791.64 C 1909.79 1793.41 1919 1801.04 1920.84 1802.09 C 1925.09 1805.56 1934.83 1815.26 1938.37 1816.05 C 1939.29 1825.03 1966.13 1853.55 1973.47 1866 C 1991.61 1896.72 1997.39 1922.46 2006.28 1955.62 C 2008.52 1967.61 2012.17 1983.82 2012.11 1995.6 C 2017.01 2018.79 2020.05 2054.58 2015.56 2077.99 L 2013.7 2093.31 C 2011.68 2111.86 2010.34 2124.63 2005.46 2142.63 C 2000.56 2159.06 1990.22 2184.66 1978.75 2197.33 C 1959.34 2220.01 1945.52 2236.63 1919.3 2253.31 C 1911.09 2258.53 1888.68 2269.4 1883.88 2274.31 C 1875.04 2275.69 1853.41 2286.47 1841.57 2290.24 C 1796.33 2303.54 1762 2310.77 1714.08 2313.14 C 1652.73 2317.4 1597.75 2308.11 1543.67 2278.93 L 1540.75 2278.35 C 1539.2 2274.94 1524.03 2259 1519.74 2253.43 C 1503.83 2232.83 1494.59 2216.48 1484.37 2192.68 C 1467.49 2164.77 1456.45 2085.39 1459.6 2052.6 L 1459.93 2034.17 C 1461.11 1965.48 1479.84 1901.72 1515.13 1842.38 C 1521.33 1831.94 1536.96 1813.85 1544.85 1802.72 C 1545.02 1797.92 1560.45 1752.64 1562.01 1740.92 C 1565.7 1713.23 1563.82 1676.99 1568.52 1650.99 C 1586.81 1549.63 1619.1 1532.16 1588.83 1429.75 C 1584.31 1421.77 1572.02 1391.79 1566.43 1380.22 z"/>
<path transform="translate(0,0)" fill="rgb(253,183,2)" d="M 1566.43 1380.22 C 1576.02 1382.5 1589.55 1398.36 1600.15 1406.56 C 1660.7 1449.55 1779.02 1527.03 1848.15 1551.66 C 1859.5 1553.41 1862.25 1555.48 1872.28 1560.69 C 1873.09 1552.77 1873.34 1542.77 1877.48 1536.66 C 1877.05 1548.57 1876.41 1553.09 1874.31 1564.74 C 1888.17 1591.46 1913 1643.18 1912.11 1674.09 C 1917.06 1699.47 1914.2 1724.22 1912.33 1749.91 C 1910.88 1763.19 1908.67 1778.6 1907.59 1791.64 C 1909.79 1793.41 1919 1801.04 1920.84 1802.09 L 1928.21 1812.18 L 1926.7 1814.98 C 1823.25 1825.3 1625.34 1929.31 1540.14 1990.37 C 1523.27 2002.55 1507.07 2015.63 1491.6 2029.56 C 1483.52 2036.81 1469.36 2054.24 1463.16 2057.33 C 1459.85 2054.14 1460.83 2055.85 1459.6 2052.6 L 1459.93 2034.17 C 1461.11 1965.48 1479.84 1901.72 1515.13 1842.38 C 1521.33 1831.94 1536.96 1813.85 1544.85 1802.72 C 1545.02 1797.92 1560.45 1752.64 1562.01 1740.92 C 1565.7 1713.23 1563.82 1676.99 1568.52 1650.99 C 1586.81 1549.63 1619.1 1532.16 1588.83 1429.75 C 1584.31 1421.77 1572.02 1391.79 1566.43 1380.22 z"/>
<path transform="translate(0,0)" fill="rgb(1,80,155)" d="M 1566.43 1380.22 C 1576.02 1382.5 1589.55 1398.36 1600.15 1406.56 C 1660.7 1449.55 1779.02 1527.03 1848.15 1551.66 C 1798.3 1588.34 1632.26 1713.39 1599.66 1762.54 C 1575.59 1777.42 1563.73 1789.91 1544.85 1802.72 C 1545.02 1797.92 1560.45 1752.64 1562.01 1740.92 C 1565.7 1713.23 1563.82 1676.99 1568.52 1650.99 C 1586.81 1549.63 1619.1 1532.16 1588.83 1429.75 C 1584.31 1421.77 1572.02 1391.79 1566.43 1380.22 z"/>
<path transform="translate(0,0)" fill="rgb(47,162,207)" d="M 1872.28 1560.69 C 1873.09 1552.77 1873.34 1542.77 1877.48 1536.66 C 1877.05 1548.57 1876.41 1553.09 1874.31 1564.74 C 1888.17 1591.46 1913 1643.18 1912.11 1674.09 C 1917.06 1699.47 1914.2 1724.22 1912.33 1749.91 C 1910.88 1763.19 1908.67 1778.6 1907.59 1791.64 C 1881.07 1770.7 1851.46 1754.01 1819.82 1742.17 C 1740.31 1713.09 1673.41 1727.81 1599.66 1762.54 C 1632.26 1713.39 1798.3 1588.34 1848.15 1551.66 C 1859.5 1553.41 1862.25 1555.48 1872.28 1560.69 z"/>
<path transform="translate(0,0)" fill="rgb(221,98,153)" d="M 1920.84 1802.09 C 1925.09 1805.56 1934.83 1815.26 1938.37 1816.05 C 1939.29 1825.03 1966.13 1853.55 1973.47 1866 C 1991.61 1896.72 1997.39 1922.46 2006.28 1955.62 C 1962.73 1997.24 1905.51 2012.03 1848.36 2026.37 C 1719.66 2058.64 1575.12 2086.08 1484.37 2192.68 C 1467.49 2164.77 1456.45 2085.39 1459.6 2052.6 C 1460.83 2055.85 1459.85 2054.14 1463.16 2057.33 C 1469.36 2054.24 1483.52 2036.81 1491.6 2029.56 C 1507.07 2015.63 1523.27 2002.55 1540.14 1990.37 C 1625.34 1929.31 1823.25 1825.3 1926.7 1814.98 L 1928.21 1812.18 L 1920.84 1802.09 z"/>
<path transform="translate(0,0)" fill="rgb(12,74,95)" d="M 1543.67 2278.93 C 1544.87 2269.89 1565.89 2257.43 1573.76 2252.61 C 1686.82 2183.29 1822.46 2187.02 1944.36 2143.62 C 1975.9 2132.38 1988.32 2116.51 2011.31 2095.47 L 2013.7 2093.31 C 2011.68 2111.86 2010.34 2124.63 2005.46 2142.63 C 2000.56 2159.06 1990.22 2184.66 1978.75 2197.33 C 1959.34 2220.01 1945.52 2236.63 1919.3 2253.31 C 1911.09 2258.53 1888.68 2269.4 1883.88 2274.31 C 1875.04 2275.69 1853.41 2286.47 1841.57 2290.24 C 1796.33 2303.54 1762 2310.77 1714.08 2313.14 C 1652.73 2317.4 1597.75 2308.11 1543.67 2278.93 z"/>
<path transform="translate(0,0)" fill="rgb(212,183,209)" d="M 1912.87 1045.59 C 1920.7 1052.14 1943.28 1073.51 1950.12 1081.45 C 1960.6 1090.08 1969.87 1099.79 1979.46 1109.4 L 1987.63 1117.96 C 1989.78 1131.5 1992.21 1145.09 1993.19 1158.75 C 1999.12 1168.25 1998.26 1169.01 2010.6 1171.86 C 2013.68 1172.57 2016.77 1173.24 2019.87 1173.89 C 2053.34 1154.09 2082.58 1187.93 2093.88 1148.84 C 2097.96 1133.34 2091.57 1126.7 2104.54 1113.98 C 2127.93 1093.24 2151.32 1067.97 2174.53 1047.94 L 2174.35 1083.26 L 2174.56 1097.67 C 2175.34 1129.39 2175.55 1184.36 2179.74 1214.16 C 2178.95 1241.43 2183.79 1264.64 2184.38 1289.94 C 2185.15 1299.02 2186.27 1308.86 2186.13 1317.91 C 2187.34 1328.08 2188.67 1338.24 2190.12 1348.38 C 2194.5 1414.35 2201.63 1480.1 2211.49 1545.47 C 2216.51 1574.5 2195.61 1602.38 2185.7 1634 C 2170.27 1684.45 2169.02 1738.18 2182.1 1789.29 L 2160.73 1809.06 C 2154.7 1813.49 2154.77 1813.65 2150.35 1819.2 L 2148.49 1822.21 C 2143.33 1830.41 2133.84 1839.4 2127.49 1848.95 C 2102.4 1886.72 2089.72 1916.19 2078.99 1959.78 C 2064.69 2027.33 2063.47 2037.02 2070.91 2103.54 C 2071.92 2117.51 2072.12 2125.72 2075.98 2139.21 C 2067.89 2132.97 2053.18 2124.94 2042.78 2117.67 C 2033.78 2122.83 2010.64 2134.83 2005.46 2142.63 C 2010.34 2124.63 2011.68 2111.86 2013.7 2093.31 L 2015.56 2077.99 C 2020.05 2054.58 2017.01 2018.79 2012.11 1995.6 C 2012.17 1983.82 2008.52 1967.61 2006.28 1955.62 C 1997.39 1922.46 1991.61 1896.72 1973.47 1866 C 1966.13 1853.55 1939.29 1825.03 1938.37 1816.05 C 1934.83 1815.26 1925.09 1805.56 1920.84 1802.09 C 1919 1801.04 1909.79 1793.41 1907.59 1791.64 C 1908.67 1778.6 1910.88 1763.19 1912.33 1749.91 C 1914.2 1724.22 1917.06 1699.47 1912.11 1674.09 C 1913 1643.18 1888.17 1591.46 1874.31 1564.74 C 1876.41 1553.09 1877.05 1548.57 1877.48 1536.66 C 1885.94 1473.94 1892.6 1410.98 1897.44 1347.87 C 1898.84 1323.74 1909.24 1230.79 1906.95 1212.4 C 1912.53 1194.61 1912.4 1140.61 1912.84 1119.27 C 1913.27 1094.88 1911.92 1069.71 1912.87 1045.59 z"/>
<path transform="translate(0,0)" fill="rgb(111,44,170)" d="M 2104.54 1113.98 C 2127.93 1093.24 2151.32 1067.97 2174.53 1047.94 L 2174.35 1083.26 L 2174.56 1097.67 C 2175.34 1129.39 2175.55 1184.36 2179.74 1214.16 C 2178.95 1241.43 2183.79 1264.64 2184.38 1289.94 C 2185.15 1299.02 2186.27 1308.86 2186.13 1317.91 C 2187.34 1328.08 2188.67 1338.24 2190.12 1348.38 C 2194.5 1414.35 2201.63 1480.1 2211.49 1545.47 C 2216.51 1574.5 2195.61 1602.38 2185.7 1634 C 2170.27 1684.45 2169.02 1738.18 2182.1 1789.29 L 2160.73 1809.06 C 2154.7 1813.49 2154.77 1813.65 2150.35 1819.2 C 2074.63 1613.41 2083.2 1520.83 2084.36 1304.61 C 2085.83 1293.41 2085.97 1279.67 2086 1268.29 C 2086.07 1227.87 2089.68 1189.04 2093.88 1148.84 C 2097.96 1133.34 2091.57 1126.7 2104.54 1113.98 z"/>
<path transform="translate(0,0)" fill="rgb(134,49,155)" d="M 2186.13 1317.91 C 2184.57 1326.95 2185.99 1339.64 2184.99 1350.5 L 2182.56 1348.17 C 2178.16 1335 2175.74 1302.2 2179.66 1289.26 L 2184.38 1289.94 C 2185.15 1299.02 2186.27 1308.86 2186.13 1317.91 z"/>
<path transform="translate(0,0)" fill="rgb(111,44,170)" d="M 1912.87 1045.59 C 1920.7 1052.14 1943.28 1073.51 1950.12 1081.45 C 1960.6 1090.08 1969.87 1099.79 1979.46 1109.4 L 1987.63 1117.96 C 1989.78 1131.5 1992.21 1145.09 1993.19 1158.75 C 1995.37 1186.33 1996.63 1219.67 1999.56 1246.26 L 2000.5 1318.27 C 2000.99 1368.92 2001.03 1419.57 2000.62 1470.22 C 1998.68 1571.51 1985.85 1724.98 1938.37 1816.05 C 1934.83 1815.26 1925.09 1805.56 1920.84 1802.09 C 1919 1801.04 1909.79 1793.41 1907.59 1791.64 C 1908.67 1778.6 1910.88 1763.19 1912.33 1749.91 C 1914.2 1724.22 1917.06 1699.47 1912.11 1674.09 C 1913 1643.18 1888.17 1591.46 1874.31 1564.74 C 1876.41 1553.09 1877.05 1548.57 1877.48 1536.66 C 1885.94 1473.94 1892.6 1410.98 1897.44 1347.87 C 1898.84 1323.74 1909.24 1230.79 1906.95 1212.4 C 1912.53 1194.61 1912.4 1140.61 1912.84 1119.27 C 1913.27 1094.88 1911.92 1069.71 1912.87 1045.59 z"/>
<path transform="translate(0,0)" fill="rgb(245,133,173)" d="M 2019.87 1173.89 C 2053.34 1154.09 2082.58 1187.93 2093.88 1148.84 C 2089.68 1189.04 2086.07 1227.87 2086 1268.29 C 2085.97 1279.67 2085.83 1293.41 2084.36 1304.61 C 2082.83 1282.09 2084.08 1250.17 2084.33 1227.18 C 2076.43 1262.04 2064.25 1288.88 2043.52 1317.75 C 2029.23 1291.88 2013.06 1269.99 2006.33 1239.01 L 2001.85 1226.05 L 2000.41 1225.86 L 1999.56 1246.26 C 1996.63 1219.67 1995.37 1186.33 1993.19 1158.75 C 1999.12 1168.25 1998.26 1169.01 2010.6 1171.86 C 2013.68 1172.57 2016.77 1173.24 2019.87 1173.89 z"/>
<path transform="translate(0,0)" fill="rgb(1,170,152)" d="M 1444.57 973.787 C 1450.32 970.954 1486 960.011 1494.4 956.988 C 1536.62 941.778 1563.36 927.059 1599.98 902.48 L 1764.18 1087.01 C 1774.25 1094.9 1788.81 1110.54 1799.22 1120.02 C 1830.96 1148.92 1862.73 1179.75 1897.33 1205.2 L 1906.95 1212.4 C 1909.24 1230.79 1898.84 1323.74 1897.44 1347.87 C 1892.6 1410.98 1885.94 1473.94 1877.48 1536.66 C 1873.34 1542.77 1873.09 1552.77 1872.28 1560.69 C 1862.25 1555.48 1859.5 1553.41 1848.15 1551.66 C 1779.02 1527.03 1660.7 1449.55 1600.15 1406.56 C 1589.55 1398.36 1576.02 1382.5 1566.43 1380.22 C 1554.63 1372.96 1487.85 1234.75 1484.51 1215.8 C 1478.67 1206.23 1469.38 1175.88 1465.97 1164.82 L 1457.2 1143.14 C 1453.76 1137.21 1446.46 1102.48 1444.89 1094.99 L 1442.73 1078.28 C 1433.47 1050.63 1439.01 1002.06 1444.57 973.787 z"/>
<path transform="translate(0,0)" fill="rgb(3,171,191)" d="M 1465.97 1164.82 C 1478.38 1167.89 1481.26 1172.47 1490.59 1181.72 C 1578.05 1250.85 1773.07 1324.22 1881.78 1346.41 C 1887.9 1347.66 1891.2 1348.8 1897.44 1347.87 C 1892.6 1410.98 1885.94 1473.94 1877.48 1536.66 C 1873.34 1542.77 1873.09 1552.77 1872.28 1560.69 C 1862.25 1555.48 1859.5 1553.41 1848.15 1551.66 C 1779.02 1527.03 1660.7 1449.55 1600.15 1406.56 C 1589.55 1398.36 1576.02 1382.5 1566.43 1380.22 C 1554.63 1372.96 1487.85 1234.75 1484.51 1215.8 C 1478.67 1206.23 1469.38 1175.88 1465.97 1164.82 z"/>
<path transform="translate(0,0)" fill="rgb(47,162,207)" d="M 1465.97 1164.82 C 1478.38 1167.89 1481.26 1172.47 1490.59 1181.72 C 1492.41 1195.72 1491.53 1203.33 1484.51 1215.8 C 1478.67 1206.23 1469.38 1175.88 1465.97 1164.82 z"/>
<path transform="translate(0,0)" fill="rgb(2,128,76)" d="M 1444.57 973.787 C 1450.32 970.954 1486 960.011 1494.4 956.988 C 1536.62 941.778 1563.36 927.059 1599.98 902.48 L 1764.18 1087.01 C 1672.36 1109.92 1533.84 1105.92 1442.73 1078.28 C 1433.47 1050.63 1439.01 1002.06 1444.57 973.787 z"/>
<path transform="translate(0,0)" fill="rgb(208,208,207)" d="M 1797.66 316.083 C 1787.44 264.322 1784.93 218.778 1815.33 173.013 C 1852.03 117.765 1917.61 91.0786 1979.01 77.8819 C 2110.13 49.7018 2322.3 114.09 2292.82 283.013 C 2291.37 291.31 2289.33 306.301 2290.64 314.289 C 2305.51 310.486 2341.55 296.566 2343.4 324.627 C 2345.56 357.166 2320.13 402.624 2302.45 429.086 C 2292.16 444.486 2279.42 441.181 2263.75 439.836 C 2249.2 468.559 2249.8 526.631 2246.19 556.811 C 2207.36 512.996 2208.28 490.296 2194.65 439.326 C 2183.84 398.94 2105.97 373.06 2064.7 390.443 C 2054.25 390.648 2040.7 390.309 2031.08 394.106 L 2026.27 391.024 L 2024.66 391.379 C 2010.27 383.378 1997.69 383.754 1982.8 385.401 C 1926.33 391.648 1892.32 415.199 1884.34 474.612 C 1880.84 500.635 1858.18 537.154 1840.21 557.162 C 1837.61 524.051 1829.36 469.608 1816.26 439.203 C 1808.88 440.37 1792.28 444.889 1786.67 439.11 C 1771.24 423.187 1761.94 394.629 1752.83 375.266 C 1733.23 333.627 1739.87 285.374 1797.66 316.083 z"/>
<path transform="translate(0,0)" fill="rgb(253,124,79)" d="M 2064.7 390.443 C 2105.97 373.06 2183.84 398.94 2194.65 439.326 C 2208.28 490.296 2207.36 512.996 2246.19 556.811 C 2276.24 589.358 2304.09 604.629 2343.52 625.128 C 2337.44 627.826 2296.93 626.244 2283.65 627.627 C 2258.97 630.024 2234.59 634.843 2210.85 642.013 C 2180.41 651.367 2151.59 665.32 2125.37 683.387 C 2114.29 690.882 2106.76 702.587 2096.89 705.98 L 2093.78 704.422 L 2091.49 695.92 C 2094.4 753.452 2099.74 813.023 2102.85 871.961 C 2101.58 893.046 2103.44 920.964 2103.67 942.908 C 2104.05 983.304 2103.51 1023.7 2102.06 1064.08 C 2101.75 1072.25 2098.89 1108.47 2101.49 1113.2 L 2104.54 1113.98 C 2091.57 1126.7 2097.96 1133.34 2093.88 1148.84 C 2082.58 1187.93 2053.34 1154.09 2019.87 1173.89 C 2016.77 1173.24 2013.68 1172.57 2010.6 1171.86 C 1998.26 1169.01 1999.12 1168.25 1993.19 1158.75 C 1992.21 1145.09 1989.78 1131.5 1987.63 1117.96 L 1979.46 1109.4 C 1982.96 1109.25 1982.06 1109.17 1985.5 1107.73 C 1988.83 1101.17 1984.59 996.122 1983.99 978.541 C 1983.2 955.22 1987.8 889.095 1983.78 869.319 C 1987.76 822.257 1987.29 774 1991.86 726.881 C 1993.1 714.089 1994.14 700.646 1994.13 687.825 C 1992.68 696.327 1993.76 699.836 1988.82 704.565 C 1982.98 703.594 1964.3 685.538 1954.88 679.375 C 1933.33 665.008 1910.04 653.433 1885.58 644.926 C 1850.4 632.724 1809.9 625.545 1772.68 626.122 C 1764.17 626.254 1753.4 628.061 1745.83 624.755 C 1784.06 603.858 1809.51 587.805 1840.21 557.162 C 1858.18 537.154 1880.84 500.635 1884.34 474.612 C 1892.32 415.199 1926.33 391.648 1982.8 385.401 C 1997.69 383.754 2010.27 383.378 2024.66 391.379 L 2026.27 391.024 L 2031.08 394.106 C 2040.7 390.309 2054.25 390.648 2064.7 390.443 z"/>
<path transform="translate(0,0)" fill="rgb(219,12,29)" d="M 2064.7 390.443 C 2105.97 373.06 2183.84 398.94 2194.65 439.326 C 2208.28 490.296 2207.36 512.996 2246.19 556.811 C 2276.24 589.358 2304.09 604.629 2343.52 625.128 C 2337.44 627.826 2296.93 626.244 2283.65 627.627 C 2258.97 630.024 2234.59 634.843 2210.85 642.013 C 2180.41 651.367 2151.59 665.32 2125.37 683.387 C 2114.29 690.882 2106.76 702.587 2096.89 705.98 L 2093.78 704.422 L 2091.49 695.92 C 2092.14 681.839 2087.95 641.24 2086.65 626.014 C 2080.09 549.665 2063.35 470.988 2061.21 394.649 L 2064.7 390.443 z"/>
<path transform="translate(0,0)" fill="rgb(219,12,29)" d="M 1840.21 557.162 C 1858.18 537.154 1880.84 500.635 1884.34 474.612 C 1892.32 415.199 1926.33 391.648 1982.8 385.401 C 1997.69 383.754 2010.27 383.378 2024.66 391.379 C 2026.99 423.078 2012.24 515.215 2007.41 551.019 C 2001.54 596.469 1997.11 642.094 1994.13 687.825 C 1992.68 696.327 1993.76 699.836 1988.82 704.565 C 1982.98 703.594 1964.3 685.538 1954.88 679.375 C 1933.33 665.008 1910.04 653.433 1885.58 644.926 C 1850.4 632.724 1809.9 625.545 1772.68 626.122 C 1764.17 626.254 1753.4 628.061 1745.83 624.755 C 1784.06 603.858 1809.51 587.805 1840.21 557.162 z"/>
<path transform="translate(0,0)" fill="rgb(212,183,209)" d="M 2026.27 391.024 L 2031.08 394.106 C 2040.7 390.309 2054.25 390.648 2064.7 390.443 L 2061.21 394.649 C 2058.13 403.125 2050.06 422.701 2048.44 429.492 C 2046.88 437.211 2046.66 439.657 2043.4 446.671 C 2040.38 445.379 2036.51 421.832 2032.13 411.844 L 2031.13 409.613 C 2029.73 403.594 2027.87 397.052 2026.27 391.024 z"/>
<path transform="translate(0,0)" fill="rgb(251,161,126)" d="M 2031.13 409.613 L 2032.13 411.844 C 2036.51 421.832 2040.38 445.379 2043.4 446.671 C 2046.66 439.657 2046.88 437.211 2048.44 429.492 C 2048.95 438.904 2043.81 515.666 2042.83 525.937 L 2041.08 526.935 C 2039.51 502.886 2040.01 479.646 2038.26 455.668 C 2037.05 439.057 2033.15 425.731 2031.13 409.613 z"/>
<path transform="translate(0,0)" fill="rgb(253,88,16)" d="M 1528.71 698.254 C 1579.48 689.173 1629.11 674.593 1676.72 654.773 C 1699.7 645.203 1722.74 633.45 1745.83 624.755 C 1753.4 628.061 1764.17 626.254 1772.68 626.122 C 1809.9 625.545 1850.4 632.724 1885.58 644.926 C 1910.04 653.433 1933.33 665.008 1954.88 679.375 C 1964.3 685.538 1982.98 703.594 1988.82 704.565 C 1993.76 699.836 1992.68 696.327 1994.13 687.825 C 1994.14 700.646 1993.1 714.089 1991.86 726.881 C 1987.29 774 1987.76 822.257 1983.78 869.319 C 1862.61 799.404 1731.52 744.095 1588.49 746.323 C 1574.06 735.065 1552.97 725.571 1536.2 717.444 C 1525.02 713.571 1508.79 708.625 1499.05 702.789 L 1528.71 698.254 z"/>
<path transform="translate(0,0)" fill="rgb(64,162,42)" d="M 1669.47 811.692 C 1709.33 841.196 1779.65 914.243 1817.08 950.426 C 1842.12 974.634 1890.67 1020.99 1912.87 1045.59 C 1911.92 1069.71 1913.27 1094.88 1912.84 1119.27 C 1912.4 1140.61 1912.53 1194.61 1906.95 1212.4 L 1897.33 1205.2 C 1862.73 1179.75 1830.96 1148.92 1799.22 1120.02 C 1788.81 1110.54 1774.25 1094.9 1764.18 1087.01 L 1599.98 902.48 C 1639.88 860.84 1644.24 874.01 1669.47 811.692 z"/>
<path transform="translate(0,0)" fill="rgb(111,44,170)" d="M 1609.5 760.09 C 1626.28 773.582 1656.1 796.795 1669.47 811.692 C 1644.24 874.01 1639.88 860.84 1599.98 902.48 C 1563.36 927.059 1536.62 941.778 1494.4 956.988 C 1486 960.011 1450.32 970.954 1444.57 973.787 C 1432.82 974.497 1414.92 979.787 1403.04 982.886 C 1365.19 992.759 1327.63 996.045 1289.12 1001.32 L 1285.58 1001.37 L 1282.48 997.976 C 1293.17 973.461 1299.45 962.061 1316.64 941.964 C 1330.57 924.123 1353.62 903.703 1372.12 890.573 C 1427 843.536 1544.73 790.642 1609.5 760.09 z"/>
<path transform="translate(0,0)" fill="rgb(134,49,155)" d="M 1372.12 890.573 L 1371.78 896.727 L 1370.44 897.865 C 1360.17 906.641 1350.54 917.804 1340.23 927.213 C 1333.69 933.183 1325.62 938.751 1320.24 944.509 C 1317.22 943.188 1318.34 944.141 1316.64 941.964 C 1330.57 924.123 1353.62 903.703 1372.12 890.573 z"/>
<path transform="translate(0,0)" fill="rgb(122,190,44)" d="M 2239.27 1552.61 C 2343.98 1500.84 2427.09 1453.49 2517.21 1380.8 L 2521.42 1381.93 C 2510.69 1403.98 2500.82 1424.06 2493.31 1447.62 C 2485.4 1484.23 2484.36 1497.74 2489.22 1534.54 C 2500.62 1573.85 2512.4 1610.55 2517.88 1651.37 C 2524.23 1698.66 2520.39 1732.3 2535.47 1778.29 L 2543.29 1804.49 C 2582.03 1863.95 2611.96 1911.07 2618.12 1984.59 C 2618.6 1990.35 2620.76 2028.8 2621.72 2031.63 L 2625.15 2039.26 C 2630.59 2050.45 2634.74 2059.81 2639.45 2071.33 C 2740.85 2317.77 2675.94 2561.3 2573.88 2793.31 C 2570.94 2799.98 2568.59 2805.81 2565.37 2812.5 C 2561.03 2828.63 2558.76 2838.6 2557.89 2854.81 C 2556.62 2878.3 2557.73 2963.98 2549.1 2982.51 C 2524.72 2953.98 2508.01 2929.56 2480.73 2900.25 C 2468.05 2902.7 2463.22 2907.1 2456.17 2918.73 C 2440.26 2944.97 2424.41 2986.6 2417.89 3016.19 C 2406.59 2991.09 2392.04 2960.19 2374.21 2939.52 C 2355.02 2917.27 2338.81 2920.86 2320.67 2940.11 C 2313.5 2960.04 2274.37 3043.29 2263.38 3060.83 L 2258.67 3063.66 C 2238.5 3019.99 2223.44 2980.88 2204.76 2937.81 C 2190.41 2919.56 2176.18 2861.75 2172.11 2838.69 C 2166.69 2822.16 2163.43 2788.2 2161.56 2770.07 C 2152.61 2683.44 2127.24 2606.69 2101.83 2523.85 C 2068.9 2416.54 2063.87 2306.35 2102.02 2199.07 C 2089.21 2177.42 2081.08 2163.98 2075.98 2139.21 C 2072.12 2125.72 2071.92 2117.51 2070.91 2103.54 C 2063.47 2037.02 2064.69 2027.33 2078.99 1959.78 C 2089.72 1916.19 2102.4 1886.72 2127.49 1848.95 C 2133.84 1839.4 2143.33 1830.41 2148.49 1822.21 L 2150.35 1819.2 C 2154.77 1813.65 2154.7 1813.49 2160.73 1809.06 L 2182.1 1789.29 C 2169.02 1738.18 2170.27 1684.45 2185.7 1634 C 2195.61 1602.38 2216.51 1574.5 2211.49 1545.47 C 2215.96 1553.16 2214.71 1553.84 2221.3 1557.47 L 2223.8 1556.54 C 2227.7 1555.14 2235.74 1551.73 2239.27 1552.61 z"/>
<path transform="translate(0,0)" fill="rgb(194,105,23)" d="M 2239.27 1552.61 C 2343.98 1500.84 2427.09 1453.49 2517.21 1380.8 L 2521.42 1381.93 C 2510.69 1403.98 2500.82 1424.06 2493.31 1447.62 C 2485.4 1484.23 2484.36 1497.74 2489.22 1534.54 C 2500.62 1573.85 2512.4 1610.55 2517.88 1651.37 C 2524.23 1698.66 2520.39 1732.3 2535.47 1778.29 L 2543.29 1804.49 C 2582.03 1863.95 2611.96 1911.07 2618.12 1984.59 C 2618.6 1990.35 2620.76 2028.8 2621.72 2031.63 L 2625.15 2039.26 C 2622.56 2058.2 2620.71 2085.8 2619.95 2104.99 C 2615.08 2136.97 2610.97 2161.43 2597.36 2191.59 C 2588.27 2210.65 2582.59 2221.77 2571.1 2239.61 C 2565.68 2248.02 2542.79 2275.51 2541.91 2280.68 L 2538.33 2278.75 C 2480.79 2309.85 2435.33 2316.07 2369.57 2313.25 C 2319.84 2309.15 2293.37 2304.83 2245.72 2291.37 C 2230.63 2286.77 2215.91 2280.71 2200.86 2275.65 C 2199.1 2274.25 2175.95 2261.5 2172.45 2259.47 C 2141.06 2241.24 2124.42 2226.89 2102.02 2199.07 C 2089.21 2177.42 2081.08 2163.98 2075.98 2139.21 C 2072.12 2125.72 2071.92 2117.51 2070.91 2103.54 C 2063.47 2037.02 2064.69 2027.33 2078.99 1959.78 C 2089.72 1916.19 2102.4 1886.72 2127.49 1848.95 C 2133.84 1839.4 2143.33 1830.41 2148.49 1822.21 L 2150.35 1819.2 C 2154.77 1813.65 2154.7 1813.49 2160.73 1809.06 L 2182.1 1789.29 C 2169.02 1738.18 2170.27 1684.45 2185.7 1634 C 2195.61 1602.38 2216.51 1574.5 2211.49 1545.47 C 2215.96 1553.16 2214.71 1553.84 2221.3 1557.47 L 2223.8 1556.54 C 2227.7 1555.14 2235.74 1551.73 2239.27 1552.61 z"/>
<path transform="translate(0,0)" fill="rgb(253,183,2)" d="M 2239.27 1552.61 C 2343.98 1500.84 2427.09 1453.49 2517.21 1380.8 L 2521.42 1381.93 C 2510.69 1403.98 2500.82 1424.06 2493.31 1447.62 C 2485.4 1484.23 2484.36 1497.74 2489.22 1534.54 C 2500.62 1573.85 2512.4 1610.55 2517.88 1651.37 C 2524.23 1698.66 2520.39 1732.3 2535.47 1778.29 L 2543.29 1804.49 C 2582.03 1863.95 2611.96 1911.07 2618.12 1984.59 C 2618.6 1990.35 2620.76 2028.8 2621.72 2031.63 C 2621.52 2039.57 2622.67 2044.61 2619.06 2050.77 C 2611.41 2049.71 2598.5 2032.25 2589.15 2024.45 C 2562.57 2002.28 2534.46 1982.04 2505.02 1963.85 C 2423.29 1912.55 2326.77 1864.14 2235.7 1830.91 C 2215.86 1823.67 2184.67 1818.09 2163.48 1813.48 L 2160.73 1809.06 L 2182.1 1789.29 C 2169.02 1738.18 2170.27 1684.45 2185.7 1634 C 2195.61 1602.38 2216.51 1574.5 2211.49 1545.47 C 2215.96 1553.16 2214.71 1553.84 2221.3 1557.47 L 2223.8 1556.54 C 2227.7 1555.14 2235.74 1551.73 2239.27 1552.61 z"/>
<path transform="translate(0,0)" fill="rgb(1,80,155)" d="M 2239.27 1552.61 C 2343.98 1500.84 2427.09 1453.49 2517.21 1380.8 L 2521.42 1381.93 C 2510.69 1403.98 2500.82 1424.06 2493.31 1447.62 C 2485.4 1484.23 2484.36 1497.74 2489.22 1534.54 C 2500.62 1573.85 2512.4 1610.55 2517.88 1651.37 C 2524.23 1698.66 2520.39 1732.3 2535.47 1778.29 L 2533.62 1782 L 2531.72 1782.48 C 2528.04 1776.66 2525.49 1770.61 2519.49 1768.19 C 2512.27 1771.25 2515.2 1768.89 2510.86 1776.05 C 2502.23 1771.04 2496.45 1767.2 2488.31 1761.4 C 2476.79 1745.04 2452.79 1724.42 2437.72 1710.05 C 2375.7 1650.89 2305.93 1604.64 2239.27 1552.61 z"/>
<path transform="translate(0,0)" fill="rgb(47,162,207)" d="M 2211.49 1545.47 C 2215.96 1553.16 2214.71 1553.84 2221.3 1557.47 L 2223.8 1556.54 C 2227.7 1555.14 2235.74 1551.73 2239.27 1552.61 C 2305.93 1604.64 2375.7 1650.89 2437.72 1710.05 C 2452.79 1724.42 2476.79 1745.04 2488.31 1761.4 C 2378.81 1711.13 2280.16 1712.27 2182.1 1789.29 C 2169.02 1738.18 2170.27 1684.45 2185.7 1634 C 2195.61 1602.38 2216.51 1574.5 2211.49 1545.47 z"/>
<path transform="translate(0,0)" fill="rgb(26,98,180)" d="M 2510.86 1776.05 C 2515.2 1768.89 2512.27 1771.25 2519.49 1768.19 C 2525.49 1770.61 2528.04 1776.66 2531.72 1782.48 L 2533.62 1782 L 2535.47 1778.29 L 2543.29 1804.49 C 2531.99 1793.62 2523.05 1785.97 2510.86 1776.05 z"/>
<path transform="translate(0,0)" fill="rgb(221,98,153)" d="M 2150.35 1819.2 C 2154.77 1813.65 2154.7 1813.49 2160.73 1809.06 L 2163.48 1813.48 C 2184.67 1818.09 2215.86 1823.67 2235.7 1830.91 C 2326.77 1864.14 2423.29 1912.55 2505.02 1963.85 C 2534.46 1982.04 2562.57 2002.28 2589.15 2024.45 C 2598.5 2032.25 2611.41 2049.71 2619.06 2050.77 C 2622.67 2044.61 2621.52 2039.57 2621.72 2031.63 L 2625.15 2039.26 C 2622.56 2058.2 2620.71 2085.8 2619.95 2104.99 C 2615.08 2136.97 2610.97 2161.43 2597.36 2191.59 C 2466.26 2044.32 2278.2 2057.19 2111.51 1982.07 C 2102.19 1977.87 2087.09 1961.52 2078.99 1959.78 C 2089.72 1916.19 2102.4 1886.72 2127.49 1848.95 C 2133.84 1839.4 2143.33 1830.41 2148.49 1822.21 L 2150.35 1819.2 z"/>
<path transform="translate(0,0)" fill="rgb(122,58,29)" d="M 2070.91 2103.54 L 2072.27 2097.12 L 2074.38 2097.24 C 2085.61 2110.76 2099.47 2125.11 2115.51 2132.73 C 2241 2192.35 2390.89 2177.78 2510.7 2254.8 C 2517.86 2259.4 2537.73 2270.47 2538.33 2278.75 C 2480.79 2309.85 2435.33 2316.07 2369.57 2313.25 C 2319.84 2309.15 2293.37 2304.83 2245.72 2291.37 C 2230.63 2286.77 2215.91 2280.71 2200.86 2275.65 C 2199.1 2274.25 2175.95 2261.5 2172.45 2259.47 C 2141.06 2241.24 2124.42 2226.89 2102.02 2199.07 C 2089.21 2177.42 2081.08 2163.98 2075.98 2139.21 C 2072.12 2125.72 2071.92 2117.51 2070.91 2103.54 z"/>
<path transform="translate(0,0)" fill="rgb(253,88,16)" d="M 2625.15 2039.26 C 2630.59 2050.45 2634.74 2059.81 2639.45 2071.33 C 2740.85 2317.77 2675.94 2561.3 2573.88 2793.31 C 2570.94 2799.98 2568.59 2805.81 2565.37 2812.5 C 2561.03 2828.63 2558.76 2838.6 2557.89 2854.81 C 2556.62 2878.3 2557.73 2963.98 2549.1 2982.51 C 2524.72 2953.98 2508.01 2929.56 2480.73 2900.25 C 2451.07 2842.01 2431.98 2771.16 2417.43 2707.64 C 2398.67 2561.59 2339.96 2470.52 2369.57 2313.25 C 2435.33 2316.07 2480.79 2309.85 2538.33 2278.75 L 2541.91 2280.68 C 2542.79 2275.51 2565.68 2248.02 2571.1 2239.61 C 2582.59 2221.77 2588.27 2210.65 2597.36 2191.59 C 2610.97 2161.43 2615.08 2136.97 2619.95 2104.99 C 2620.71 2085.8 2622.56 2058.2 2625.15 2039.26 z"/>
<path transform="translate(0,0)" fill="rgb(134,49,155)" d="M 2625.15 2039.26 C 2630.59 2050.45 2634.74 2059.81 2639.45 2071.33 C 2740.85 2317.77 2675.94 2561.3 2573.88 2793.31 C 2570.94 2799.98 2568.59 2805.81 2565.37 2812.5 C 2567.65 2789.25 2574.36 2759.91 2579.79 2736.9 C 2599.63 2652.8 2614.17 2567.65 2608.61 2480.97 C 2604.6 2418.35 2583.85 2328.87 2541.91 2280.68 C 2542.79 2275.51 2565.68 2248.02 2571.1 2239.61 C 2582.59 2221.77 2588.27 2210.65 2597.36 2191.59 C 2610.97 2161.43 2615.08 2136.97 2619.95 2104.99 C 2620.71 2085.8 2622.56 2058.2 2625.15 2039.26 z"/>
<path transform="translate(0,0)" fill="rgb(111,44,170)" d="M 2625.15 2039.26 C 2630.59 2050.45 2634.74 2059.81 2639.45 2071.33 C 2638.93 2073.56 2621.37 2126.17 2621.83 2125.64 C 2620.43 2119.3 2620.3 2111.61 2619.95 2104.99 C 2620.71 2085.8 2622.56 2058.2 2625.15 2039.26 z"/>
<path transform="translate(0,0)" fill="rgb(26,98,180)" d="M 2102.02 2199.07 C 2124.42 2226.89 2141.06 2241.24 2172.45 2259.47 C 2175.95 2261.5 2199.1 2274.25 2200.86 2275.65 C 2215.91 2280.71 2230.63 2286.77 2245.72 2291.37 C 2236.11 2314.6 2226.92 2361.82 2227.7 2387.34 C 2226.77 2412.65 2225.71 2453.48 2229.73 2477.97 C 2235.29 2522.31 2242.07 2539.84 2236.64 2585.74 C 2234.99 2599.66 2227.14 2651.05 2227.6 2660.73 C 2219.72 2697.03 2209.57 2741.4 2203.05 2777.61 C 2199.39 2793.74 2194.61 2833.15 2190.05 2844.55 C 2193.93 2877.36 2197.67 2905.4 2204.76 2937.81 C 2190.41 2919.56 2176.18 2861.75 2172.11 2838.69 C 2166.69 2822.16 2163.43 2788.2 2161.56 2770.07 C 2152.61 2683.44 2127.24 2606.69 2101.83 2523.85 C 2068.9 2416.54 2063.87 2306.35 2102.02 2199.07 z"/>
<path transform="translate(0,0)" fill="rgb(253,183,2)" d="M 2200.86 2275.65 C 2215.91 2280.71 2230.63 2286.77 2245.72 2291.37 C 2236.11 2314.6 2226.92 2361.82 2227.7 2387.34 C 2226.77 2412.65 2225.71 2453.48 2229.73 2477.97 C 2235.29 2522.31 2242.07 2539.84 2236.64 2585.74 C 2234.99 2599.66 2227.14 2651.05 2227.6 2660.73 C 2219.72 2697.03 2209.57 2741.4 2203.05 2777.61 C 2196.08 2762.29 2193.52 2778.29 2194.01 2751.51 C 2194.36 2732.17 2194.67 2656.69 2185.31 2644.14 L 2183.27 2647.56 C 2180.93 2642.15 2177.34 2613.55 2175.69 2605.37 C 2162.54 2540.13 2153.52 2495.51 2151.3 2428.55 L 2153.89 2404.36 C 2163.46 2351.74 2175.65 2321.81 2200.86 2275.65 z"/>
<path transform="translate(0,0)" fill="rgb(252,194,4)" d="M 2183.27 2647.56 L 2185.31 2644.14 C 2194.67 2656.69 2194.36 2732.17 2194.01 2751.51 C 2193.52 2778.29 2196.08 2762.29 2203.05 2777.61 C 2199.39 2793.74 2194.61 2833.15 2190.05 2844.55 C 2183.65 2785.62 2187.06 2718.92 2183.51 2657.04 L 2183.27 2647.56 z"/>
<path transform="translate(0,0)" fill="rgb(64,162,42)" d="M 2238.59 2601.96 L 2242.84 2603.22 C 2245.06 2610.27 2246.6 2619.99 2251.48 2623.64 L 2253.4 2620.44 C 2259.98 2642.74 2262.38 2667.77 2266.53 2690.18 C 2282.44 2775.97 2273.62 2857.72 2262.98 2943.28 C 2261.07 2958.64 2258.91 3048.63 2263.38 3060.83 L 2258.67 3063.66 C 2238.5 3019.99 2223.44 2980.88 2204.76 2937.81 C 2197.67 2905.4 2193.93 2877.36 2190.05 2844.55 C 2194.61 2833.15 2199.39 2793.74 2203.05 2777.61 C 2209.57 2741.4 2219.72 2697.03 2227.6 2660.73 C 2232.55 2644.69 2235.9 2619.18 2238.59 2601.96 z"/>
<path transform="translate(0,0)" fill="rgb(208,208,207)" d="M 2417.43 2707.64 C 2431.98 2771.16 2451.07 2842.01 2480.73 2900.25 C 2468.05 2902.7 2463.22 2907.1 2456.17 2918.73 C 2440.26 2944.97 2424.41 2986.6 2417.89 3016.19 C 2406.59 2991.09 2392.04 2960.19 2374.21 2939.52 C 2355.02 2917.27 2338.81 2920.86 2320.67 2940.11 C 2322.76 2907.17 2399.25 2730.35 2417.43 2707.64 z"/>
<path transform="translate(0,0)" fill="rgb(2,128,76)" d="M 2241.55 2554.85 C 2245.76 2576.67 2249.7 2598.53 2253.4 2620.44 L 2251.48 2623.64 C 2246.6 2619.99 2245.06 2610.27 2242.84 2603.22 L 2238.59 2601.96 C 2239.83 2586.27 2240.82 2570.57 2241.55 2554.85 z"/>
<path transform="translate(0,0)" fill="rgb(122,190,44)" d="M 1459.93 2034.17 L 1459.6 2052.6 C 1456.45 2085.39 1467.49 2164.77 1484.37 2192.68 C 1494.59 2216.48 1503.83 2232.83 1519.74 2253.43 C 1524.03 2259 1539.2 2274.94 1540.75 2278.35 L 1543.67 2278.93 C 1597.75 2308.11 1652.73 2317.4 1714.08 2313.14 C 1762 2310.77 1796.33 2303.54 1841.57 2290.24 C 1853.41 2286.47 1875.04 2275.69 1883.88 2274.31 C 1888.68 2269.4 1911.09 2258.53 1919.3 2253.31 C 1945.52 2236.63 1959.34 2220.01 1978.75 2197.33 C 2003.34 2248.87 2004.35 2349.72 1998.58 2407.29 C 1989.2 2500.85 1949.8 2593.17 1928.61 2684.33 C 1917.09 2731 1913.72 2798.27 1901.79 2838.58 C 1895.75 2864.92 1884.62 2912.37 1871.22 2934.46 C 1852.74 2972.75 1837.71 3016.42 1818.14 3057.77 C 1815.39 3062.83 1814.06 3065.67 1810.63 3070.35 C 1798.12 3046.87 1767.5 2971.52 1756.39 2944.33 C 1709.32 2880.09 1672.17 2989.72 1652.79 3018.08 C 1644.54 2984.95 1634.83 2950.48 1619.23 2919.82 C 1613.61 2908.76 1610.86 2904.74 1599.1 2900.15 C 1574.24 2922.47 1547.22 2958.49 1525.37 2984.37 C 1513.01 2924.03 1523.79 2880.53 1511.76 2815.71 C 1503.57 2801.89 1490.8 2765.19 1483.9 2748.93 C 1448.19 2664.77 1421.39 2580.74 1402.99 2491.11 C 1376.86 2363.8 1382.93 2234.66 1425.9 2111.72 C 1433.85 2088.97 1446.87 2053.56 1459.93 2034.17 z"/>
<path transform="translate(0,0)" fill="rgb(253,88,16)" d="M 1459.93 2034.17 L 1459.6 2052.6 C 1456.45 2085.39 1467.49 2164.77 1484.37 2192.68 C 1494.59 2216.48 1503.83 2232.83 1519.74 2253.43 C 1524.03 2259 1539.2 2274.94 1540.75 2278.35 L 1543.67 2278.93 C 1597.75 2308.11 1652.73 2317.4 1714.08 2313.14 C 1716.45 2335.53 1720.24 2365.01 1719.51 2387.02 C 1715.92 2495.63 1676.58 2601.72 1661.12 2708.08 C 1647.68 2769.99 1630.03 2844.55 1599.1 2900.15 C 1574.24 2922.47 1547.22 2958.49 1525.37 2984.37 C 1513.01 2924.03 1523.79 2880.53 1511.76 2815.71 C 1503.57 2801.89 1490.8 2765.19 1483.9 2748.93 C 1448.19 2664.77 1421.39 2580.74 1402.99 2491.11 C 1376.86 2363.8 1382.93 2234.66 1425.9 2111.72 C 1433.85 2088.97 1446.87 2053.56 1459.93 2034.17 z"/>
<path transform="translate(0,0)" fill="rgb(26,98,180)" d="M 1459.93 2034.17 L 1459.6 2052.6 C 1456.45 2085.39 1467.49 2164.77 1484.37 2192.68 C 1494.59 2216.48 1503.83 2232.83 1519.74 2253.43 C 1524.03 2259 1539.2 2274.94 1540.75 2278.35 C 1466.85 2382.24 1457 2506.68 1475.81 2629.65 C 1483.92 2682.62 1508.82 2766.86 1511.76 2815.71 C 1503.57 2801.89 1490.8 2765.19 1483.9 2748.93 C 1448.19 2664.77 1421.39 2580.74 1402.99 2491.11 C 1376.86 2363.8 1382.93 2234.66 1425.9 2111.72 C 1433.85 2088.97 1446.87 2053.56 1459.93 2034.17 z"/>
<path transform="translate(0,0)" fill="rgb(26,98,180)" d="M 1883.88 2274.31 C 1888.68 2269.4 1911.09 2258.53 1919.3 2253.31 C 1945.52 2236.63 1959.34 2220.01 1978.75 2197.33 C 2003.34 2248.87 2004.35 2349.72 1998.58 2407.29 C 1989.2 2500.85 1949.8 2593.17 1928.61 2684.33 C 1917.09 2731 1913.72 2798.27 1901.79 2838.58 C 1895.75 2864.92 1884.62 2912.37 1871.22 2934.46 C 1875.62 2903.92 1880.32 2886.36 1883.11 2853.95 C 1877.24 2842.68 1881.83 2807.68 1878.93 2793.02 C 1874.43 2770.31 1868.56 2747.78 1863.76 2725.1 C 1854.45 2690.16 1847.93 2654.53 1844.26 2618.56 C 1845.75 2593.81 1839.95 2568.8 1841.73 2543.98 C 1845.64 2489.39 1858.11 2437.12 1855.46 2381.8 C 1854.87 2369.49 1840.79 2292.66 1841.57 2290.24 C 1853.41 2286.47 1875.04 2275.69 1883.88 2274.31 z"/>
<path transform="translate(0,0)" fill="rgb(253,183,2)" d="M 1841.57 2290.24 C 1853.41 2286.47 1875.04 2275.69 1883.88 2274.31 C 1949.64 2400.37 1932.41 2468.21 1903.51 2603.34 C 1895.32 2641.67 1892.26 2680.79 1889.6 2719.67 C 1889.27 2754.78 1888.72 2789.89 1887.97 2824.99 C 1886.51 2835.04 1885.25 2843.98 1883.11 2853.95 C 1877.24 2842.68 1881.83 2807.68 1878.93 2793.02 C 1874.43 2770.31 1868.56 2747.78 1863.76 2725.1 C 1854.45 2690.16 1847.93 2654.53 1844.26 2618.56 C 1845.75 2593.81 1839.95 2568.8 1841.73 2543.98 C 1845.64 2489.39 1858.11 2437.12 1855.46 2381.8 C 1854.87 2369.49 1840.79 2292.66 1841.57 2290.24 z"/>
<path transform="translate(0,0)" fill="rgb(64,162,42)" d="M 1818.14 3057.77 L 1815.36 3055.31 C 1813.16 3032.02 1818.68 2995.97 1816.11 2966.74 C 1811.75 2917.06 1804.67 2867.82 1802.76 2818.21 C 1799.26 2727.5 1822.12 2645.24 1838.66 2557.11 C 1839.49 2578.92 1839.23 2597.3 1844.26 2618.56 C 1847.93 2654.53 1854.45 2690.16 1863.76 2725.1 C 1868.56 2747.78 1874.43 2770.31 1878.93 2793.02 C 1881.83 2807.68 1877.24 2842.68 1883.11 2853.95 C 1880.32 2886.36 1875.62 2903.92 1871.22 2934.46 C 1852.74 2972.75 1837.71 3016.42 1818.14 3057.77 z"/>
<path transform="translate(0,0)" fill="rgb(208,208,207)" d="M 1661.12 2708.08 C 1693.24 2769.87 1722.07 2833.01 1743.38 2899.28 C 1746.85 2910.07 1755.7 2933.62 1756.39 2944.33 C 1709.32 2880.09 1672.17 2989.72 1652.79 3018.08 C 1644.54 2984.95 1634.83 2950.48 1619.23 2919.82 C 1613.61 2908.76 1610.86 2904.74 1599.1 2900.15 C 1630.03 2844.55 1647.68 2769.99 1661.12 2708.08 z"/>
<path transform="translate(0,0)" fill="rgb(1,170,152)" d="M 1599.1 2900.15 C 1610.86 2904.74 1613.61 2908.76 1619.23 2919.82 C 1634.83 2950.48 1644.54 2984.95 1652.79 3018.08 C 1672.17 2989.72 1709.32 2880.09 1756.39 2944.33 C 1767.5 2971.52 1798.12 3046.87 1810.63 3070.35 C 1847.63 3177.57 1881.73 3268.73 1824.69 3376.71 C 1815.74 3393.66 1814.19 3400.64 1800.71 3416.59 C 1795.93 3435.1 1790.51 3454.71 1786.9 3473.4 C 1782.61 3495.64 1780.13 3518.11 1774.22 3540.11 C 1750.24 3629.29 1716.57 3688.17 1719.91 3783.48 C 1721.39 3788.18 1722.55 3798.79 1724.37 3802.43 C 1754.52 3862.94 1733.61 3872.77 1723.62 3925.98 C 1716.9 3961.77 1781.59 4048.33 1709.64 4074.05 C 1678.09 4085.33 1645.39 4079.55 1612.92 4080.72 C 1561.89 4081.97 1519.34 4066.45 1470.69 4052.14 C 1442.68 4043.9 1324.14 4055.88 1346.48 3997.13 C 1352.66 3980.88 1412.86 3978.88 1431.57 3973.09 C 1476.22 3959.28 1503.39 3938.38 1527.03 3896.71 C 1520.74 3843.85 1531.67 3865.9 1540.24 3816.41 C 1544.26 3793.19 1540.41 3770.51 1539.44 3747.57 C 1523.69 3679.28 1498.86 3614.68 1479.93 3547.37 C 1464.76 3493.45 1456.31 3436.9 1446.89 3381.63 C 1363.05 3235.48 1444.57 3108.31 1525.37 2984.37 C 1547.22 2958.49 1574.24 2922.47 1599.1 2900.15 z"/>
<path transform="translate(0,0)" fill="rgb(208,208,207)" d="M 1615.56 3354.21 C 1617.12 3346.4 1617.48 3338.98 1623.2 3333.82 C 1629.25 3347.67 1636.23 3363.09 1645.19 3375.39 C 1672.04 3411.65 1674.94 3407.51 1705.64 3432.74 C 1720.88 3439.15 1727.31 3442.55 1743.61 3444.86 L 1762.39 3444.38 C 1779.88 3436.92 1788.95 3431.49 1800.71 3416.59 C 1795.93 3435.1 1790.51 3454.71 1786.9 3473.4 C 1782.61 3495.64 1780.13 3518.11 1774.22 3540.11 C 1750.24 3629.29 1716.57 3688.17 1719.91 3783.48 C 1721.39 3788.18 1722.55 3798.79 1724.37 3802.43 C 1754.52 3862.94 1733.61 3872.77 1723.62 3925.98 C 1716.9 3961.77 1781.59 4048.33 1709.64 4074.05 C 1678.09 4085.33 1645.39 4079.55 1612.92 4080.72 C 1561.89 4081.97 1519.34 4066.45 1470.69 4052.14 C 1442.68 4043.9 1324.14 4055.88 1346.48 3997.13 C 1352.66 3980.88 1412.86 3978.88 1431.57 3973.09 C 1476.22 3959.28 1503.39 3938.38 1527.03 3896.71 C 1520.74 3843.85 1531.67 3865.9 1540.24 3816.41 C 1544.26 3793.19 1540.41 3770.51 1539.44 3747.57 C 1523.69 3679.28 1498.86 3614.68 1479.93 3547.37 C 1464.76 3493.45 1456.31 3436.9 1446.89 3381.63 C 1458.88 3400.87 1467.55 3410.57 1486.92 3423.7 C 1553.52 3437.48 1585.24 3408.94 1615.56 3354.21 z"/>
<path transform="translate(0,0)" fill="rgb(111,44,170)" d="M 1615.56 3354.21 C 1617.12 3346.4 1617.48 3338.98 1623.2 3333.82 C 1629.25 3347.67 1636.23 3363.09 1645.19 3375.39 C 1672.04 3411.65 1674.94 3407.51 1705.64 3432.74 C 1720.88 3439.15 1727.31 3442.55 1743.61 3444.86 L 1762.39 3444.38 C 1779.88 3436.92 1788.95 3431.49 1800.71 3416.59 C 1795.93 3435.1 1790.51 3454.71 1786.9 3473.4 C 1782.61 3495.64 1780.13 3518.11 1774.22 3540.11 C 1750.24 3629.29 1716.57 3688.17 1719.91 3783.48 C 1718.81 3794.05 1721.6 3805.75 1723.41 3816.44 C 1697.82 3770.35 1686.94 3726.2 1682.81 3673.4 C 1682.16 3665.08 1683.52 3645.8 1680.04 3639.67 L 1676.31 3641.28 C 1669.81 3673.5 1659.12 3721.95 1656.69 3753.85 C 1655.96 3759.32 1654.14 3770.41 1653.96 3775.46 C 1650.37 3792.48 1651.2 3816.39 1650.74 3834.08 C 1650.18 3855.53 1625.72 3852.68 1623.71 3840.63 C 1619.72 3816.69 1616.21 3792.51 1611.79 3768.59 C 1603.66 3726.3 1592.86 3684.57 1579.45 3643.65 C 1578.95 3638.32 1571.2 3620.18 1568.87 3613.77 C 1546.54 3552.3 1505.42 3485.67 1486.92 3423.7 C 1553.52 3437.48 1585.24 3408.94 1615.56 3354.21 z"/>
<path transform="translate(0,0)" fill="rgb(142,136,204)" d="M 1800.71 3416.59 C 1795.93 3435.1 1790.51 3454.71 1786.9 3473.4 C 1782.61 3495.64 1780.13 3518.11 1774.22 3540.11 C 1750.24 3629.29 1716.57 3688.17 1719.91 3783.48 C 1718.81 3794.05 1721.6 3805.75 1723.41 3816.44 C 1697.82 3770.35 1686.94 3726.2 1682.81 3673.4 C 1682.16 3665.08 1683.52 3645.8 1680.04 3639.67 L 1676.31 3641.28 C 1680.48 3595.42 1738.75 3488.64 1762.39 3444.38 C 1779.88 3436.92 1788.95 3431.49 1800.71 3416.59 z"/>
<path transform="translate(0,0)" fill="rgb(134,49,155)" d="M 1615.56 3354.21 C 1617.12 3346.4 1617.48 3338.98 1623.2 3333.82 C 1629.25 3347.67 1636.23 3363.09 1645.19 3375.39 L 1644.32 3381.15 L 1641.95 3382.85 C 1636.32 3378.66 1632.37 3369.44 1628.88 3362.93 C 1617.49 3355.72 1627.26 3363.6 1617.36 3361.99 L 1615.56 3354.21 z"/>
<path transform="translate(0,0)" fill="rgb(134,49,155)" d="M 1705.64 3432.74 C 1720.88 3439.15 1727.31 3442.55 1743.61 3444.86 L 1751.42 3447.16 L 1749.56 3448.79 C 1734.58 3450.63 1712.96 3448.99 1702.86 3436.22 L 1705.64 3432.74 z"/>
<path transform="translate(0,0)" fill="rgb(142,136,204)" d="M 1446.89 3381.63 C 1458.88 3400.87 1467.55 3410.57 1486.92 3423.7 C 1505.42 3485.67 1546.54 3552.3 1568.87 3613.77 C 1571.2 3620.18 1578.95 3638.32 1579.45 3643.65 L 1575.67 3645.52 C 1574.73 3649.48 1575.59 3682.31 1574.88 3691.31 C 1570.73 3744.05 1563.96 3780.1 1543.05 3828.13 C 1544.14 3805.35 1547.57 3768.12 1539.44 3747.57 C 1523.69 3679.28 1498.86 3614.68 1479.93 3547.37 C 1464.76 3493.45 1456.31 3436.9 1446.89 3381.63 z"/>
<path transform="translate(0,0)" fill="rgb(254,254,254)" d="M 1656.69 3753.85 C 1665.14 3764.59 1661.27 3802.09 1654.85 3811.58 C 1654.76 3802.99 1655 3782.86 1653.96 3775.46 C 1654.14 3770.41 1655.96 3759.32 1656.69 3753.85 z"/>
<path transform="translate(0,0)" fill="rgb(26,98,180)" d="M 1599.1 2900.15 C 1610.86 2904.74 1613.61 2908.76 1619.23 2919.82 C 1634.83 2950.48 1644.54 2984.95 1652.79 3018.08 C 1618.4 3120.17 1597.71 3226.63 1623.2 3333.82 C 1617.48 3338.98 1617.12 3346.4 1615.56 3354.21 C 1585.24 3408.94 1553.52 3437.48 1486.92 3423.7 C 1467.55 3410.57 1458.88 3400.87 1446.89 3381.63 C 1363.05 3235.48 1444.57 3108.31 1525.37 2984.37 C 1547.22 2958.49 1574.24 2922.47 1599.1 2900.15 z"/>
<path transform="translate(0,0)" fill="rgb(122,190,44)" d="M 1289.12 1001.32 C 1327.63 996.045 1365.19 992.759 1403.04 982.886 C 1414.92 979.787 1432.82 974.497 1444.57 973.787 C 1439.01 1002.06 1433.47 1050.63 1442.73 1078.28 L 1444.89 1094.99 C 1446.46 1102.48 1453.76 1137.21 1457.2 1143.14 C 1438.74 1233.13 1414.56 1313.12 1351.55 1383.33 C 1347.17 1388.2 1323.83 1412.92 1322.45 1415.95 C 1295.38 1547.86 1290.16 1631.83 1187.41 1732.51 C 1136.61 1782.28 1084.63 1834.63 1053.89 1898.35 C 1049.59 1907.25 1041.61 1928.75 1034.98 1933.73 C 1017.14 1937.07 1005.4 1939.08 987.424 1940.47 C 963.755 1941.64 942.149 1941.65 919.101 1935.79 C 899.322 1931.74 845.025 1914.4 838.916 1894.24 C 863.003 1852.37 898.029 1750.1 905.092 1702.69 C 915.431 1633.3 913.087 1554.09 945.401 1489.93 C 981.938 1417.39 1047.03 1351.77 1104.83 1295.94 C 1104.83 1293.57 1104.85 1291.2 1104.9 1288.83 C 1106.75 1200.62 1129.43 1102.15 1195.15 1039.19 C 1221.86 1019.89 1247.83 1011.43 1279.1 1002.58 C 1280.22 1001.04 1281.35 999.51 1282.48 997.976 L 1285.58 1001.37 L 1289.12 1001.32 z"/>
<path transform="translate(0,0)" fill="rgb(245,133,173)" d="M 1289.12 1001.32 C 1327.63 996.045 1365.19 992.759 1403.04 982.886 C 1414.92 979.787 1432.82 974.497 1444.57 973.787 C 1439.01 1002.06 1433.47 1050.63 1442.73 1078.28 L 1444.89 1094.99 C 1446.46 1102.48 1453.76 1137.21 1457.2 1143.14 C 1438.74 1233.13 1414.56 1313.12 1351.55 1383.33 C 1347.17 1388.2 1323.83 1412.92 1322.45 1415.95 C 1288.68 1439.49 1274.82 1451.59 1236.97 1471.94 C 1216.06 1483.72 1191.78 1496.72 1171.61 1509.19 C 1167.9 1505.3 1166.24 1498.82 1164.33 1493.55 C 1156.25 1470.93 1142.16 1445.08 1129.87 1424.35 L 1128.2 1414.38 C 1124.15 1407.46 1120.5 1401.61 1117.37 1394.16 C 1106.76 1360.8 1106.38 1330.59 1104.83 1295.94 C 1104.83 1293.57 1104.85 1291.2 1104.9 1288.83 C 1106.75 1200.62 1129.43 1102.15 1195.15 1039.19 C 1221.86 1019.89 1247.83 1011.43 1279.1 1002.58 C 1280.22 1001.04 1281.35 999.51 1282.48 997.976 L 1285.58 1001.37 L 1289.12 1001.32 z"/>
<path transform="translate(0,0)" fill="rgb(206,16,86)" d="M 1444.89 1094.99 C 1446.46 1102.48 1453.76 1137.21 1457.2 1143.14 C 1438.74 1233.13 1414.56 1313.12 1351.55 1383.33 C 1347.17 1388.2 1323.83 1412.92 1322.45 1415.95 C 1288.68 1439.49 1274.82 1451.59 1236.97 1471.94 C 1260.33 1366.27 1265.64 1319.52 1266.05 1212.35 C 1328.57 1198.74 1399.87 1139.52 1444.89 1094.99 z"/>
<path transform="translate(0,0)" fill="rgb(253,124,79)" d="M 1289.12 1001.32 C 1327.63 996.045 1365.19 992.759 1403.04 982.886 C 1414.92 979.787 1432.82 974.497 1444.57 973.787 C 1439.01 1002.06 1433.47 1050.63 1442.73 1078.28 L 1444.89 1094.99 C 1399.87 1139.52 1328.57 1198.74 1266.05 1212.35 C 1244.83 1210.75 1246.43 1209.67 1230.19 1199.13 C 1219.32 1146.94 1254.79 1068.89 1285.69 1027.91 C 1291.87 1019.72 1299.67 1015.18 1303.02 1004.42 L 1300.85 1001.65 L 1289.12 1001.32 z"/>
<path transform="translate(0,0)" fill="rgb(253,88,16)" d="M 1195.15 1039.19 C 1221.86 1019.89 1247.83 1011.43 1279.1 1002.58 C 1280.22 1001.04 1281.35 999.51 1282.48 997.976 L 1285.58 1001.37 L 1289.12 1001.32 L 1300.85 1001.65 L 1303.02 1004.42 C 1299.67 1015.18 1291.87 1019.72 1285.69 1027.91 C 1254.79 1068.89 1219.32 1146.94 1230.19 1199.13 C 1136.96 1252.33 1132.36 1313.37 1128.2 1414.38 C 1124.15 1407.46 1120.5 1401.61 1117.37 1394.16 C 1106.76 1360.8 1106.38 1330.59 1104.83 1295.94 C 1104.83 1293.57 1104.85 1291.2 1104.9 1288.83 C 1106.75 1200.62 1129.43 1102.15 1195.15 1039.19 z"/>
<path transform="translate(0,0)" fill="rgb(3,171,191)" d="M 1104.83 1295.94 C 1106.38 1330.59 1106.76 1360.8 1117.37 1394.16 C 1060.83 1450.21 1029.83 1541.58 1012.58 1617.58 C 1010.21 1628.03 1001.68 1662.05 1000.7 1671.73 L 998.294 1683.85 C 980.15 1752.18 961.257 1818.55 936.195 1884.68 C 930.255 1900.35 923.114 1919.72 919.101 1935.79 C 899.322 1931.74 845.025 1914.4 838.916 1894.24 C 863.003 1852.37 898.029 1750.1 905.092 1702.69 C 915.431 1633.3 913.087 1554.09 945.401 1489.93 C 981.938 1417.39 1047.03 1351.77 1104.83 1295.94 z"/>
<path transform="translate(0,0)" fill="rgb(64,162,42)" d="M 1236.97 1471.94 C 1274.82 1451.59 1288.68 1439.49 1322.45 1415.95 C 1295.38 1547.86 1290.16 1631.83 1187.41 1732.51 C 1136.61 1782.28 1084.63 1834.63 1053.89 1898.35 C 1049.59 1907.25 1041.61 1928.75 1034.98 1933.73 C 1017.14 1937.07 1005.4 1939.08 987.424 1940.47 C 1037.77 1793.62 1170.2 1654.99 1171.61 1509.19 C 1191.78 1496.72 1216.06 1483.72 1236.97 1471.94 z"/>
<path transform="translate(0,0)" fill="rgb(122,190,44)" d="M 2646.77 968.371 C 2700.9 981.474 2742.95 993.896 2798.88 999.029 C 2801.68 999.416 2802.65 998.839 2805.63 998.239 C 2809.61 1003.77 2831.84 1005.89 2844.02 1010.77 C 2865.94 1019.55 2872.81 1024.39 2891.9 1037.61 C 2946.28 1091.92 2967.07 1164.76 2975.9 1239.62 C 2977.96 1257.12 2977.89 1277.42 2979.28 1295.38 C 3044.66 1351.01 3152.83 1480.81 3159.47 1564.64 C 3170.01 1697.92 3178.3 1771.01 3239.21 1893.66 C 3236.48 1915.16 3180.83 1931.81 3162.03 1936.35 C 3133.49 1941.5 3119.88 1941.92 3090.74 1940.56 C 3077.97 1939.7 3061.42 1936.61 3048.43 1934.55 L 3042.39 1931.45 C 3025.53 1901.37 3018.1 1872.1 2994.18 1841.46 C 2924.36 1752.05 2834.16 1689.31 2796.12 1576.73 C 2782.86 1537.49 2779.5 1504.3 2774.23 1463.89 C 2772.35 1449.53 2767.14 1429.97 2764.53 1414.64 C 2762.31 1410.18 2741.59 1389.58 2736.71 1383.86 C 2680.72 1318.23 2640.17 1228.88 2630.44 1143.76 C 2633.47 1129.38 2636.26 1115.11 2639.52 1100.75 L 2641.9 1092.44 L 2642.39 1079.84 L 2643.76 1080.11 C 2646.52 1055.18 2648.73 1042.13 2648.81 1016.56 L 2646.77 968.371 z"/>
<path transform="translate(0,0)" fill="rgb(245,133,173)" d="M 2646.77 968.371 C 2700.9 981.474 2742.95 993.896 2798.88 999.029 C 2801.68 999.416 2802.65 998.839 2805.63 998.239 C 2809.61 1003.77 2831.84 1005.89 2844.02 1010.77 C 2865.94 1019.55 2872.81 1024.39 2891.9 1037.61 C 2946.28 1091.92 2967.07 1164.76 2975.9 1239.62 C 2977.96 1257.12 2977.89 1277.42 2979.28 1295.38 C 2978.73 1314.58 2977.68 1333.77 2976.13 1352.92 C 2971.55 1377.35 2969.62 1397.88 2954.01 1418.1 L 2955.01 1420.7 C 2952.49 1425.21 2949.34 1431.22 2946.67 1435.48 C 2941.17 1444.7 2936.55 1451.86 2932.62 1461.98 C 2925.89 1472.77 2920.61 1484.48 2918.2 1497.02 C 2914.34 1505.76 2916.66 1504.02 2909.69 1507.66 C 2891.48 1494.23 2867.04 1481.28 2847.04 1469.93 C 2831.18 1461.17 2817.37 1453.47 2802.6 1442.77 C 2789.97 1433.61 2777.57 1422.74 2764.53 1414.64 C 2762.31 1410.18 2741.59 1389.58 2736.71 1383.86 C 2680.72 1318.23 2640.17 1228.88 2630.44 1143.76 C 2633.47 1129.38 2636.26 1115.11 2639.52 1100.75 L 2641.9 1092.44 L 2642.39 1079.84 L 2643.76 1080.11 C 2646.52 1055.18 2648.73 1042.13 2648.81 1016.56 L 2646.77 968.371 z"/>
<path transform="translate(0,0)" fill="rgb(206,16,86)" d="M 2641.9 1092.44 L 2644.73 1094.93 C 2654.25 1103.41 2666.86 1119.85 2675.8 1127.33 C 2711.37 1157.11 2777.06 1202.82 2821.42 1212.36 C 2816.4 1316.2 2823.65 1368.7 2847.04 1469.93 C 2831.18 1461.17 2817.37 1453.47 2802.6 1442.77 C 2789.97 1433.61 2777.57 1422.74 2764.53 1414.64 C 2762.31 1410.18 2741.59 1389.58 2736.71 1383.86 C 2680.72 1318.23 2640.17 1228.88 2630.44 1143.76 C 2633.47 1129.38 2636.26 1115.11 2639.52 1100.75 L 2641.9 1092.44 z"/>
<path transform="translate(0,0)" fill="rgb(253,124,79)" d="M 2646.77 968.371 C 2700.9 981.474 2742.95 993.896 2798.88 999.029 L 2785 1000.61 L 2784.66 1003.26 L 2786.41 1005.2 C 2825.52 1049.56 2866.78 1139.81 2858.23 1200.3 C 2839.75 1210.06 2843.51 1212.13 2821.42 1212.36 C 2777.06 1202.82 2711.37 1157.11 2675.8 1127.33 C 2666.86 1119.85 2654.25 1103.41 2644.73 1094.93 L 2641.9 1092.44 L 2642.39 1079.84 L 2643.76 1080.11 C 2646.52 1055.18 2648.73 1042.13 2648.81 1016.56 L 2646.77 968.371 z"/>
<path transform="translate(0,0)" fill="rgb(253,88,16)" d="M 2805.63 998.239 C 2809.61 1003.77 2831.84 1005.89 2844.02 1010.77 C 2865.94 1019.55 2872.81 1024.39 2891.9 1037.61 C 2946.28 1091.92 2967.07 1164.76 2975.9 1239.62 C 2977.96 1257.12 2977.89 1277.42 2979.28 1295.38 C 2978.73 1314.58 2977.68 1333.77 2976.13 1352.92 C 2971.55 1377.35 2969.62 1397.88 2954.01 1418.1 C 2954.05 1417.45 2954.09 1416.8 2954.13 1416.15 L 2954.28 1412.9 C 2956.02 1379.23 2950.83 1339.64 2943.69 1306.83 C 2932.04 1253.37 2903.03 1228.02 2858.23 1200.3 C 2866.78 1139.81 2825.52 1049.56 2786.41 1005.2 L 2784.66 1003.26 L 2785 1000.61 L 2798.88 999.029 C 2801.68 999.416 2802.65 998.839 2805.63 998.239 z"/>
<path transform="translate(0,0)" fill="rgb(3,171,191)" d="M 2979.28 1295.38 C 3044.66 1351.01 3152.83 1480.81 3159.47 1564.64 C 3170.01 1697.92 3178.3 1771.01 3239.21 1893.66 C 3236.48 1915.16 3180.83 1931.81 3162.03 1936.35 C 3159.37 1922.82 3145.53 1886.36 3140.27 1872.45 C 3126.98 1838.64 3116.98 1805.19 3106.56 1770.42 C 3080.45 1683.29 3070.55 1589.57 3040.02 1504.06 C 3028.33 1471.33 2995.07 1419.89 2970.65 1395.91 C 2972.09 1379.29 2977.47 1371.28 2976.13 1352.92 C 2977.68 1333.77 2978.73 1314.58 2979.28 1295.38 z"/>
<path transform="translate(0,0)" fill="rgb(64,162,42)" d="M 2764.53 1414.64 C 2777.57 1422.74 2789.97 1433.61 2802.6 1442.77 C 2817.37 1453.47 2831.18 1461.17 2847.04 1469.93 C 2867.04 1481.28 2891.48 1494.23 2909.69 1507.66 C 2913.07 1514.05 2912.25 1544.7 2915.48 1558.73 C 2920.49 1580.54 2924.19 1602.32 2933.17 1623.58 C 2966.66 1702.82 3016.03 1774.03 3054.12 1851.01 C 3069.26 1881.61 3083.63 1906.76 3090.74 1940.56 C 3077.97 1939.7 3061.42 1936.61 3048.43 1934.55 L 3042.39 1931.45 C 3025.53 1901.37 3018.1 1872.1 2994.18 1841.46 C 2924.36 1752.05 2834.16 1689.31 2796.12 1576.73 C 2782.86 1537.49 2779.5 1504.3 2774.23 1463.89 C 2772.35 1449.53 2767.14 1429.97 2764.53 1414.64 z"/>
<path transform="translate(0,0)" fill="rgb(208,208,207)" d="M 2303.09 3442.25 C 2371.03 3449.55 2427.02 3392.35 2444 3331.06 C 2445.17 3326.89 2446.3 3322.7 2447.37 3318.5 C 2447.84 3322.61 2447.24 3337.12 2447.98 3339.02 C 2457.27 3362.68 2470.23 3387.05 2490.02 3403.65 C 2517.71 3426.88 2545.63 3432 2580.16 3424.75 L 2585.86 3423.59 C 2591.21 3415.34 2605.96 3410.91 2618.57 3388.38 C 2609.59 3435.82 2598.63 3504.5 2584.7 3549.04 C 2563.01 3618.39 2540.78 3677.62 2524.38 3749.78 L 2524.38 3751.91 C 2524.2 3775.5 2519.51 3794.26 2523.02 3818.04 C 2526.3 3840.2 2532.91 3844.96 2539.9 3863.64 C 2541.07 3866.76 2539.42 3892.81 2539.06 3897.89 C 2557.89 3932.67 2589.74 3958.56 2627.62 3969.9 C 2651.1 3976.87 2710.94 3975.62 2718.8 3997.2 C 2738.04 4050.06 2627.65 4046.66 2598.84 4050.38 C 2561.79 4053.24 2523.67 4074.92 2487.09 4076.98 C 2402.87 4081.73 2283.62 4106.13 2330.79 3973.68 C 2342.43 3941.01 2326.92 3886.62 2325.12 3853.82 C 2324.75 3847.14 2334.29 3818.65 2339.19 3815.83 L 2343.09 3817.16 C 2360.99 3799.07 2377.15 3720.17 2381.54 3693.39 C 2383.43 3681.9 2381.73 3641.79 2386.66 3635.4 L 2390.31 3639.55 L 2391.29 3637.97 C 2386.5 3626.52 2382.83 3614.7 2378.89 3602.94 C 2359.95 3546.44 2333.07 3493.69 2303.09 3442.25 z"/>
<path transform="translate(0,0)" fill="rgb(111,44,170)" d="M 2303.09 3442.25 C 2371.03 3449.55 2427.02 3392.35 2444 3331.06 C 2445.17 3326.89 2446.3 3322.7 2447.37 3318.5 C 2447.84 3322.61 2447.24 3337.12 2447.98 3339.02 C 2457.27 3362.68 2470.23 3387.05 2490.02 3403.65 C 2517.71 3426.88 2545.63 3432 2580.16 3424.75 L 2585.86 3423.59 C 2567.53 3487.5 2503.21 3587.03 2487.07 3648.86 C 2473.73 3711.21 2450.24 3772.63 2444.62 3837.36 C 2444.29 3841.21 2440.83 3845.99 2438.23 3848.66 C 2415.9 3856.7 2415.1 3831.88 2415.37 3817.12 C 2416.36 3763.35 2403.62 3710.15 2394.72 3657.44 C 2392.6 3652.89 2391.38 3644.83 2390.31 3639.55 L 2391.29 3637.97 C 2386.5 3626.52 2382.83 3614.7 2378.89 3602.94 C 2359.95 3546.44 2333.07 3493.69 2303.09 3442.25 z"/>
<path transform="translate(0,0)" fill="rgb(134,49,155)" d="M 2391.29 3637.97 L 2397.96 3636 C 2405.72 3641.2 2408.02 3646.7 2401.73 3654.62 L 2396.75 3653.77 L 2394.72 3657.44 C 2392.6 3652.89 2391.38 3644.83 2390.31 3639.55 L 2391.29 3637.97 z"/>
<path transform="translate(0,0)" fill="rgb(142,136,204)" d="M 2585.86 3423.59 C 2591.21 3415.34 2605.96 3410.91 2618.57 3388.38 C 2609.59 3435.82 2598.63 3504.5 2584.7 3549.04 C 2563.01 3618.39 2540.78 3677.62 2524.38 3749.78 C 2517.48 3771.46 2519.17 3805.49 2520.4 3828.07 C 2498.3 3781.56 2493.37 3733.15 2492.79 3681.74 C 2492.69 3672.97 2496.49 3648.71 2492.8 3642.04 L 2487.07 3648.86 C 2503.21 3587.03 2567.53 3487.5 2585.86 3423.59 z"/>
<path transform="translate(0,0)" fill="rgb(208,208,207)" d="M 670.134 2085.79 C 654.884 2112.71 629.411 2117.82 600.612 2119.31 C 586.144 2120.06 558.782 2116.42 561.219 2096.95 C 570.029 2083.41 625.779 2049.84 640.784 2037 C 661.092 2019.01 676.366 1993.17 700.84 1980.16 C 757.981 1949.8 809.91 1964.13 838.916 1894.24 C 845.025 1914.4 899.322 1931.74 919.101 1935.79 C 942.149 1941.65 963.755 1941.64 987.424 1940.47 C 1005.4 1939.08 1017.14 1937.07 1034.98 1933.73 C 1006.45 1971.89 1031.67 2016.41 1019.87 2062.5 C 1010.48 2099.17 998.903 2123.88 985.316 2163.51 C 972.636 2200.5 971.826 2263.14 949.024 2298.21 C 890.05 2342.57 917.379 2193.57 920.139 2168.56 C 905.421 2199.33 895.202 2239.11 882.412 2275.07 C 875.441 2294.67 869.7 2349.82 825.473 2335.94 C 823.132 2335.2 817.28 2326.1 817.682 2323.69 C 824.175 2284.66 831.152 2245.48 838.519 2206.56 C 840.31 2197.05 845.042 2186.45 843.95 2179.35 C 835.71 2182.56 793.228 2314.39 783.87 2329.85 C 772.237 2349.07 746.31 2353.37 734.017 2334.64 C 730.234 2319.23 771.495 2175.88 778.821 2154.65 C 758.06 2182.24 710.609 2295.11 688.054 2303.02 C 680.752 2305.57 671.037 2305.43 664.334 2301.28 C 629.728 2279.85 709.819 2142.96 715.507 2108.56 C 717.532 2096.31 714.394 2083.35 712.214 2071.29 L 670.134 2085.79 z"/>
<path transform="translate(0,0)" fill="rgb(208,208,207)" d="M 3239.21 1893.66 C 3243.7 1898.22 3240.62 1895.56 3242.37 1899.39 C 3249.29 1914.54 3263.8 1934.85 3278.63 1942.24 C 3309.9 1957.85 3344.96 1962.39 3375.31 1978.84 C 3399.21 1991.8 3416.05 2017.84 3436.1 2036.01 C 3453.51 2051.8 3508.32 2079.1 3515.14 2099.29 C 3512.19 2123.83 3474.03 2119.56 3456.39 2116.96 C 3434.37 2113.72 3420.27 2103.54 3407.66 2085.69 C 3392.95 2080.67 3377.61 2075.69 3363.05 2070.44 C 3361.29 2084.13 3359.7 2097.28 3362.67 2110.99 C 3369.67 2143.18 3442.93 2279.61 3410.83 2301.04 C 3405.38 2304.68 3395.08 2305.5 3388.98 2303.23 C 3363.32 2293.66 3320.58 2186.2 3301.29 2158.41 C 3309.83 2187.61 3345.26 2312.13 3342.26 2333.52 C 3338.54 2340.25 3335.17 2343.09 3327.61 2345.1 C 3319.63 2347.22 3311.13 2346.11 3303.97 2342.01 C 3291.03 2334.55 3278.51 2293.93 3272.94 2279.13 L 3235.16 2177.53 L 3232.68 2178.57 C 3231.45 2188.54 3242.49 2217.42 3244.4 2231.59 C 3245.33 2238.53 3250.44 2265.54 3252.99 2272.9 C 3267.23 2313.96 3263.1 2370.93 3211.66 2318.74 C 3205.82 2312.81 3203 2292.21 3199.14 2284.25 C 3184.44 2249.62 3173.77 2203.79 3158.55 2170.59 C 3159.84 2180.97 3162.63 2197.66 3161.63 2207.86 C 3159.13 2233.46 3161.01 2256.03 3163.72 2281.27 C 3164.1 2288.39 3159.72 2295.09 3156.96 2300.19 C 3151.29 2310.67 3131.41 2306.82 3125.76 2298.4 C 3104.5 2266.77 3105.46 2205.5 3096.04 2169.42 C 3082.15 2116.2 3055.53 2078.06 3054.07 2023.89 C 3054.06 1992.98 3067.76 1962.29 3048.43 1934.55 C 3061.42 1936.61 3077.97 1939.7 3090.74 1940.56 C 3119.88 1941.92 3133.49 1941.5 3162.03 1936.35 C 3180.83 1931.81 3236.48 1915.16 3239.21 1893.66 z"/>
<path transform="translate(0,0)" fill="rgb(1,170,152)" d="M 2320.67 2940.11 C 2338.81 2920.86 2355.02 2917.27 2374.21 2939.52 C 2392.04 2960.19 2406.59 2991.09 2417.89 3016.19 L 2425.65 3041.96 L 2430.05 3058.38 C 2439.12 3097.08 2446.3 3134.14 2450.32 3173.73 C 2451.2 3182.46 2452.28 3193.84 2453.83 3202.4 L 2454.39 3221.3 C 2454.57 3260.56 2448 3287.03 2447.37 3318.5 C 2446.3 3322.7 2445.17 3326.89 2444 3331.06 C 2427.02 3392.35 2371.03 3449.55 2303.09 3442.25 C 2285.84 3432.02 2275.75 3428.81 2263.2 3412.01 C 2198.09 3328.5 2198.95 3216.14 2237.67 3122.39 C 2242.04 3111.81 2260.15 3071.64 2258.67 3063.66 L 2263.38 3060.83 C 2274.37 3043.29 2313.5 2960.04 2320.67 2940.11 z"/>
<path transform="translate(0,0)" fill="rgb(134,49,155)" d="M 2480.73 2900.25 C 2508.01 2929.56 2524.72 2953.98 2549.1 2982.51 C 2555.69 2998.37 2572.77 3021.74 2581.7 3037.79 C 2635.03 3133.68 2686.14 3235.87 2639.94 3346.03 C 2634.63 3359.43 2627.17 3376.64 2618.57 3388.38 C 2605.96 3410.91 2591.21 3415.34 2585.86 3423.59 L 2580.16 3424.75 C 2545.63 3432 2517.71 3426.88 2490.02 3403.65 C 2470.23 3387.05 2457.27 3362.68 2447.98 3339.02 C 2447.24 3337.12 2447.84 3322.61 2447.37 3318.5 C 2448 3287.03 2454.57 3260.56 2454.39 3221.3 L 2453.83 3202.4 C 2452.28 3193.84 2451.2 3182.46 2450.32 3173.73 C 2446.3 3134.14 2439.12 3097.08 2430.05 3058.38 L 2425.65 3041.96 L 2417.89 3016.19 C 2424.41 2986.6 2440.26 2944.97 2456.17 2918.73 C 2463.22 2907.1 2468.05 2902.7 2480.73 2900.25 z"/>
<path transform="translate(0,0)" fill="rgb(142,136,204)" d="M 2263.2 3412.01 C 2275.75 3428.81 2285.84 3432.02 2303.09 3442.25 C 2333.07 3493.69 2359.95 3546.44 2378.89 3602.94 C 2382.83 3614.7 2386.5 3626.52 2391.29 3637.97 L 2390.31 3639.55 L 2386.66 3635.4 C 2381.73 3641.79 2383.43 3681.9 2381.54 3693.39 C 2377.15 3720.17 2360.99 3799.07 2343.09 3817.16 L 2339.19 3815.83 C 2365.8 3748.35 2308.37 3609.88 2291.72 3540.33 C 2281.68 3498.4 2273.84 3453.55 2263.2 3412.01 z"/>
</svg>